<svg width="404" height="114" viewBox="0 0 404 114" fill="none" xmlns="http://www.w3.org/2000/svg">
<path d="M2.24765 12.582C1.85703 12.582 1.49244 12.4811 1.1539 12.2793C0.821869 12.0775 0.554942 11.8073 0.353119 11.4688C0.151296 11.1302 0.0503845 10.7591 0.0503845 10.3555C0.0503845 9.95182 0.151296 9.58073 0.353119 9.24219C0.554942 8.90365 0.821869 8.63672 1.1539 8.44141C1.49244 8.24609 1.85703 8.14844 2.24765 8.14844C2.6513 8.14844 3.02564 8.24609 3.3707 8.44141C3.71575 8.63672 3.98593 8.90365 4.18124 9.24219C4.37656 9.58073 4.47421 9.95182 4.47421 10.3555C4.47421 10.7591 4.37656 11.1302 4.18124 11.4688C3.98593 11.8073 3.71575 12.0775 3.3707 12.2793C3.02564 12.4811 2.6513 12.582 2.24765 12.582ZM24.1519 3.70508C24.1519 4.71419 23.9436 5.66146 23.5269 6.54688C23.1168 7.43229 22.5341 8.19727 21.7789 8.8418C21.0237 9.48633 20.1415 9.9681 19.1324 10.2871L18.2535 8.86133C19.1389 8.57487 19.9104 8.17122 20.568 7.65039C21.2255 7.12305 21.7301 6.52083 22.0816 5.84375C22.4397 5.16016 22.6187 4.44727 22.6187 3.70508V2.97266H24.1519V3.70508ZM24.4644 3.70508C24.4644 4.39518 24.6467 5.05924 25.0113 5.69727C25.3759 6.33529 25.8902 6.89844 26.5543 7.38672C27.2249 7.86849 28.0061 8.23307 28.898 8.48047L28.0289 9.93555C27.0068 9.63607 26.1116 9.18359 25.3434 8.57812C24.5816 7.97266 23.9924 7.25 23.5758 6.41016C23.1656 5.5638 22.9605 4.66211 22.9605 3.70508V2.97266H24.4644V3.70508ZM28.3414 3.59766H18.7418V2.12305H28.3414V3.59766ZM24.484 2.80664H22.6187V0.0820312H24.484V2.80664ZM32.4723 10.502H30.6266V0.169922H32.4723V10.502ZM32.4723 17.4355H20.9781V11.3418H32.4723V17.4355ZM22.8043 15.9316H30.6559V12.8359H22.8043V15.9316ZM53.8207 17.6504H51.9652V0.150391H53.8207V17.6504ZM45.5785 5.78516C45.5785 7.00911 45.3702 8.19076 44.9535 9.33008C44.5434 10.4694 43.9574 11.472 43.1957 12.3379C42.4405 13.2038 41.5779 13.8613 40.6078 14.3105L39.5922 12.875C40.4776 12.4779 41.2588 11.9082 41.9359 11.166C42.6195 10.4238 43.1469 9.58398 43.518 8.64648C43.8956 7.70898 44.0844 6.75521 44.0844 5.78516V4.4082H45.5785V5.78516ZM45.9105 5.78516C45.9105 6.71615 46.1026 7.63086 46.4867 8.5293C46.8773 9.42773 47.4177 10.2318 48.1078 10.9414C48.8044 11.651 49.5987 12.1979 50.4906 12.582L49.4652 14.0078C48.4887 13.5846 47.6195 12.9564 46.8578 12.123C46.0961 11.2832 45.5036 10.3132 45.0805 9.21289C44.6573 8.11263 44.4457 6.97005 44.4457 5.78516V4.4082H45.9105V5.78516ZM49.8461 4.63281H40.1V3.13867H49.8461V4.63281ZM45.9105 3.94922H44.0648V0.501953H45.9105V3.94922ZM62.3953 14.6621H60.5789V10.3848H62.3953V14.6621ZM68.0301 14.6328H66.2137V10.3555H68.0301V14.6328ZM72.2293 15.5605H56.2137V14.0273H72.2293V15.5605ZM70.2664 6.85938H60.0125V10.2188H58.1668V5.35547H68.4402V2.91406H58.1375V1.40039H70.2664V6.85938ZM70.6766 10.9121H58.1668V9.39844H70.6766V10.9121ZM87.2785 6.75195H75.1984V5.28711H87.2785V6.75195ZM89.0949 10.4531H73.0793V8.96875H89.0949V10.4531ZM77.0441 6.0293H75.1984V0.794922H77.0441V6.0293ZM87.3762 17.2402H75.0812V15.7168H87.3762V17.2402ZM76.9367 16.1562H75.0812V12.123H76.9367V16.1562ZM108.48 17.4355H96.3809V11.6055H108.48V17.4355ZM98.2168 15.9316H106.664V13.0898H98.2168V15.9316ZM108.393 6.74219H96.5078V0.785156H108.393V6.74219ZM98.3242 5.25781H106.566V2.2793H98.3242V5.25781ZM110.424 10.0527H94.4668V8.53906H110.424V10.0527ZM103.363 9.17383H101.508V6.38086H103.363V9.17383ZM117.065 1.39062C117.983 1.39062 118.8 1.56966 119.516 1.92773C120.232 2.2793 120.792 2.77409 121.196 3.41211C121.606 4.04362 121.811 4.76302 121.811 5.57031C121.811 6.3776 121.606 7.10026 121.196 7.73828C120.792 8.36979 120.232 8.86458 119.516 9.22266C118.8 9.57422 117.983 9.75 117.065 9.75C116.153 9.75 115.333 9.57422 114.604 9.22266C113.875 8.86458 113.305 8.36979 112.895 7.73828C112.491 7.10026 112.289 6.3776 112.289 5.57031C112.289 4.76302 112.491 4.04362 112.895 3.41211C113.305 2.77409 113.875 2.2793 114.604 1.92773C115.333 1.56966 116.153 1.39062 117.065 1.39062ZM117.065 3.01172C116.498 3.01172 115.991 3.11589 115.541 3.32422C115.099 3.53255 114.75 3.83203 114.496 4.22266C114.243 4.61328 114.116 5.0625 114.116 5.57031C114.116 6.07812 114.243 6.52409 114.496 6.9082C114.75 7.29232 115.099 7.5918 115.541 7.80664C115.991 8.02148 116.498 8.12891 117.065 8.12891C117.631 8.12891 118.136 8.02148 118.579 7.80664C119.028 7.5918 119.376 7.29232 119.623 6.9082C119.877 6.52409 120.004 6.07812 120.004 5.57031C120.004 5.0625 119.877 4.61328 119.623 4.22266C119.376 3.83203 119.028 3.53255 118.579 3.32422C118.136 3.11589 117.631 3.01172 117.065 3.01172ZM125.825 17.6992H123.979V0.150391H125.825V17.6992ZM111.44 12.3867C112.885 12.3802 114.194 12.3639 115.366 12.3379C116.544 12.3118 117.794 12.2598 119.116 12.1816C120.444 12.097 121.697 11.9701 122.875 11.8008L123.012 13.1582C121.795 13.3796 120.528 13.5488 119.213 13.666C117.905 13.7767 116.674 13.8483 115.522 13.8809C114.37 13.9134 113.09 13.9297 111.684 13.9297L111.44 12.3867ZM143.071 8.37305H139.849V6.85938H143.071V8.37305ZM147.779 17.6504H145.991V0.150391H147.779V17.6504ZM144.214 16.791H142.456V0.482422H144.214V16.791ZM136.695 1.54688C137.456 1.54688 138.124 1.79753 138.696 2.29883C139.269 2.79362 139.712 3.50651 140.025 4.4375C140.344 5.36849 140.503 6.46224 140.503 7.71875C140.503 8.96224 140.344 10.0495 140.025 10.9805C139.712 11.9115 139.269 12.6309 138.696 13.1387C138.124 13.64 137.456 13.8939 136.695 13.9004C135.939 13.8939 135.275 13.64 134.702 13.1387C134.129 12.6309 133.687 11.9115 133.374 10.9805C133.068 10.0495 132.915 8.96224 132.915 7.71875C132.915 6.46224 133.068 5.36849 133.374 4.4375C133.687 3.50651 134.129 2.79362 134.702 2.29883C135.275 1.79753 135.939 1.54688 136.695 1.54688ZM136.695 3.30469C136.265 3.29818 135.897 3.4707 135.591 3.82227C135.285 4.17383 135.051 4.68164 134.888 5.3457C134.725 6.00326 134.644 6.79427 134.644 7.71875C134.644 8.63021 134.725 9.41797 134.888 10.082C135.051 10.7461 135.288 11.2539 135.601 11.6055C135.913 11.9505 136.278 12.123 136.695 12.123C137.118 12.123 137.486 11.9505 137.798 11.6055C138.111 11.2539 138.351 10.7461 138.521 10.082C138.69 9.41797 138.775 8.63021 138.775 7.71875C138.775 6.79427 138.69 6.00326 138.521 5.3457C138.351 4.68164 138.111 4.17383 137.798 3.82227C137.486 3.4707 137.118 3.29818 136.695 3.30469ZM164.224 17.6992H162.359V0.150391H164.224V17.6992ZM162.945 7.33789H157.134V5.81445H162.945V7.33789ZM152.408 12.9531H150.552V2.08398H152.408V12.9531ZM151.929 11.9375C153.407 11.931 154.774 11.8757 156.031 11.7715C157.287 11.6608 158.55 11.4818 159.82 11.2344L160.035 12.7578C158.713 13.0247 157.408 13.2135 156.119 13.3242C154.83 13.4349 153.433 13.4902 151.929 13.4902H150.552V11.9375H151.929ZM172.574 5.31641C172.574 6.57292 172.356 7.80339 171.92 9.00781C171.484 10.2057 170.885 11.2734 170.123 12.2109C169.361 13.1419 168.499 13.8418 167.535 14.3105L166.441 12.8555C167.307 12.4388 168.092 11.8301 168.795 11.0293C169.498 10.222 170.048 9.32031 170.445 8.32422C170.849 7.32161 171.051 6.31901 171.051 5.31641V2.71875H172.574V5.31641ZM172.926 5.31641C172.926 6.27995 173.121 7.23698 173.512 8.1875C173.909 9.13802 174.459 9.98438 175.162 10.7266C175.872 11.4688 176.669 12.0319 177.555 12.416L176.529 13.8711C175.54 13.4284 174.658 12.7708 173.883 11.8984C173.115 11.026 172.516 10.0202 172.086 8.88086C171.663 7.74154 171.451 6.55339 171.451 5.31641V2.71875H172.926V5.31641ZM176.93 3.45117H167.057V1.92773H176.93V3.45117ZM180.992 17.6504H179.127V0.150391H180.992V17.6504ZM203.024 4.24219H188.61V2.73828H203.024V4.24219ZM203.874 15.5996H187.858V14.0859H203.874V15.5996ZM195.827 5.27734C197.005 5.26432 198.034 5.39779 198.913 5.67773C199.792 5.95768 200.466 6.35807 200.934 6.87891C201.41 7.39974 201.647 8.02474 201.647 8.75391C201.647 9.47005 201.41 10.0918 200.934 10.6191C200.466 11.14 199.792 11.5404 198.913 11.8203C198.034 12.1003 197.005 12.2402 195.827 12.2402C194.636 12.2402 193.6 12.1003 192.721 11.8203C191.843 11.5404 191.169 11.14 190.7 10.6191C190.231 10.0918 189.997 9.47005 189.997 8.75391C189.997 8.02474 190.231 7.39974 190.7 6.87891C191.169 6.35807 191.843 5.95768 192.721 5.67773C193.6 5.39779 194.636 5.26432 195.827 5.27734ZM195.827 6.76172C195.007 6.75521 194.297 6.83333 193.698 6.99609C193.106 7.15234 192.65 7.38346 192.331 7.68945C192.018 7.98893 191.862 8.34375 191.862 8.75391C191.862 9.16406 192.018 9.51888 192.331 9.81836C192.65 10.1178 193.106 10.349 193.698 10.5117C194.297 10.668 195.007 10.7461 195.827 10.7461C196.641 10.7461 197.344 10.668 197.936 10.5117C198.529 10.349 198.978 10.1178 199.284 9.81836C199.596 9.51888 199.753 9.16406 199.753 8.75391C199.753 8.34375 199.596 7.98893 199.284 7.68945C198.978 7.38346 198.529 7.15234 197.936 6.99609C197.344 6.83333 196.641 6.75521 195.827 6.76172ZM196.735 3.62695H194.909V0.462891H196.735V3.62695ZM220.739 10.6191H204.724V9.125H220.739V10.6191ZM218.718 4.86719H208.62V7.05469H206.784V3.5H216.862V2.01562H206.736V0.550781H218.718V4.86719ZM219.079 7.79688H206.784V6.37109H219.079V7.79688ZM218.747 17.4355H206.862V12.0449H218.747V17.4355ZM208.679 15.9316H216.921V13.5391H208.679V15.9316ZM229.607 0.443359C230.922 0.443359 232.045 0.560547 232.976 0.794922C233.907 1.02279 234.617 1.36133 235.105 1.81055C235.6 2.25977 235.847 2.80339 235.847 3.44141C235.847 4.09245 235.6 4.64583 235.105 5.10156C234.617 5.55078 233.907 5.89258 232.976 6.12695C232.045 6.36133 230.922 6.48503 229.607 6.49805C228.292 6.48503 227.166 6.36133 226.228 6.12695C225.297 5.89258 224.581 5.55078 224.08 5.10156C223.585 4.64583 223.337 4.09245 223.337 3.44141C223.337 2.80339 223.585 2.25977 224.08 1.81055C224.581 1.36133 225.297 1.02279 226.228 0.794922C227.166 0.560547 228.292 0.443359 229.607 0.443359ZM229.607 1.82031C228.683 1.82031 227.895 1.88216 227.244 2.00586C226.599 2.12956 226.111 2.3151 225.779 2.5625C225.447 2.8099 225.281 3.10286 225.281 3.44141C225.281 3.8125 225.444 4.12174 225.769 4.36914C226.095 4.61003 226.58 4.79232 227.224 4.91602C227.869 5.03971 228.663 5.10156 229.607 5.10156C230.551 5.10156 231.345 5.03971 231.99 4.91602C232.634 4.79232 233.119 4.60677 233.445 4.35938C233.777 4.10547 233.943 3.79948 233.943 3.44141C233.943 3.10286 233.774 2.81315 233.435 2.57227C233.103 2.33138 232.612 2.14583 231.961 2.01562C231.316 1.88542 230.532 1.82031 229.607 1.82031ZM237.586 9.04688H221.629V7.5625H237.586V9.04688ZM235.564 14.4961H225.388V16.4395H223.562V13.1582H233.748V11.7812H223.533V10.3945H235.564V14.4961ZM236.072 17.4844H223.562V16.0488H236.072V17.4844ZM259.012 15.4824H242.996V13.9492H259.012V15.4824ZM251.932 14.4375H250.067V9.81836H251.932V14.4375ZM251.59 3.34375C251.59 4.51562 251.265 5.59961 250.614 6.5957C249.969 7.58529 249.103 8.41536 248.016 9.08594C246.929 9.75651 245.754 10.222 244.491 10.4824L243.739 8.99805C244.826 8.80924 245.851 8.4349 246.815 7.875C247.778 7.3151 248.55 6.63802 249.129 5.84375C249.715 5.04297 250.008 4.20964 250.008 3.34375V2.41602H251.59V3.34375ZM251.942 3.34375C251.942 4.22266 252.235 5.05599 252.821 5.84375C253.413 6.625 254.198 7.29232 255.174 7.8457C256.157 8.39258 257.202 8.75391 258.309 8.92969L257.567 10.3945C256.284 10.1471 255.096 9.69792 254.002 9.04688C252.909 8.38932 252.033 7.56901 251.375 6.58594C250.724 5.59635 250.399 4.51562 250.399 3.34375V2.41602H251.942V3.34375ZM257.635 3.1875H244.315V1.6543H257.635V3.1875ZM273.817 5.46289H269.354V3.95898H273.817V5.46289ZM265.761 2.77734C265.761 3.7474 265.555 4.67839 265.145 5.57031C264.742 6.46224 264.162 7.24349 263.407 7.91406C262.658 8.57812 261.789 9.07943 260.8 9.41797L259.882 7.96289C260.754 7.66341 261.519 7.24349 262.177 6.70312C262.834 6.15625 263.342 5.54102 263.7 4.85742C264.058 4.17383 264.237 3.48047 264.237 2.77734V1.63477H265.761V2.77734ZM266.102 2.79688C266.102 3.45443 266.272 4.09896 266.61 4.73047C266.955 5.35547 267.443 5.91536 268.075 6.41016C268.713 6.90495 269.452 7.28906 270.292 7.5625L269.393 9.01758C268.417 8.70508 267.564 8.23633 266.835 7.61133C266.112 6.98633 265.555 6.26042 265.165 5.43359C264.774 4.60026 264.579 3.72135 264.579 2.79688V1.63477H266.102V2.79688ZM269.872 2.50391H260.419V0.990234H269.872V2.50391ZM274.452 9.1543H272.616V0.150391H274.452V9.1543ZM274.452 14.3398H264.901V16.918H263.046V12.9434H272.616V11.4492H263.016V9.95508H274.452V14.3398ZM275.077 17.4648H263.046V16H275.077V17.4648ZM290.4 17.6504H288.564V0.150391H290.4V17.6504ZM293.222 8.7832H289.98V7.25H293.222V8.7832ZM287.04 4.4082H276.669V2.89453H287.04V4.4082ZM281.933 5.70703C282.766 5.70703 283.512 5.87956 284.169 6.22461C284.833 6.56966 285.351 7.05143 285.722 7.66992C286.099 8.28841 286.288 8.98828 286.288 9.76953C286.288 10.5573 286.099 11.2604 285.722 11.8789C285.351 12.4974 284.833 12.9792 284.169 13.3242C283.512 13.6693 282.766 13.8418 281.933 13.8418C281.093 13.8418 280.344 13.6693 279.687 13.3242C279.029 12.9792 278.512 12.4974 278.134 11.8789C277.763 11.2604 277.577 10.5573 277.577 9.76953C277.577 8.98828 277.763 8.28841 278.134 7.66992C278.512 7.05143 279.029 6.56966 279.687 6.22461C280.344 5.87956 281.093 5.70703 281.933 5.70703ZM281.933 7.24023C281.438 7.24023 280.995 7.34766 280.605 7.5625C280.214 7.77083 279.905 8.06706 279.677 8.45117C279.456 8.83529 279.345 9.27474 279.345 9.76953C279.345 10.2708 279.456 10.7103 279.677 11.0879C279.905 11.4655 280.214 11.7617 280.605 11.9766C280.995 12.1849 281.438 12.2891 281.933 12.2891C282.428 12.2891 282.87 12.1849 283.261 11.9766C283.652 11.7617 283.958 11.4655 284.179 11.0879C284.4 10.7103 284.511 10.2708 284.511 9.76953C284.511 9.27474 284.4 8.83529 284.179 8.45117C283.958 8.06706 283.652 7.77083 283.261 7.5625C282.87 7.34766 282.428 7.24023 281.933 7.24023ZM282.841 3.53906H280.995V0.384766H282.841V3.53906ZM306.65 3.34375H295.332V1.83984H306.65V3.34375ZM309.609 15.2871H293.652V13.7637H309.609V15.2871ZM301.552 14.5547H299.726V7.5918H301.552V14.5547ZM307.812 3.55859C307.812 4.59375 307.799 5.46289 307.773 6.16602C307.747 6.86263 307.688 7.68945 307.597 8.64648C307.506 9.59701 307.36 10.6257 307.158 11.7324L305.273 11.5273C305.488 10.4792 305.644 9.48958 305.742 8.55859C305.839 7.6276 305.898 6.80404 305.918 6.08789C305.944 5.36523 305.957 4.52214 305.957 3.55859V1.83984H307.812V3.55859ZM329.512 12.8848H327.647V0.169922H329.512V12.8848ZM324.424 1.47852C324.424 2.98893 324.089 4.36914 323.418 5.61914C322.748 6.86263 321.788 7.9401 320.538 8.85156C319.288 9.75651 317.79 10.4759 316.045 11.0098L315.303 9.51562C316.788 9.07292 318.064 8.49349 319.131 7.77734C320.205 7.05469 321.026 6.22786 321.592 5.29688C322.159 4.36589 322.442 3.36328 322.442 2.28906V1.47852H324.424ZM323.555 3.01172H316.25V1.47852H323.555V3.01172ZM329.952 17.3086H318.008V15.7754H329.952V17.3086ZM319.873 16.3613H318.008V11.8203H319.873V16.3613ZM337.667 3.40234C337.667 4.47656 337.468 5.48568 337.071 6.42969C336.68 7.36719 336.114 8.1875 335.372 8.89062C334.63 9.58724 333.744 10.1146 332.716 10.4727L331.778 8.99805C332.67 8.69206 333.445 8.25586 334.102 7.68945C334.766 7.11654 335.277 6.46224 335.636 5.72656C335.994 4.98438 336.173 4.20964 336.173 3.40234V2.06445H337.667V3.40234ZM338.009 3.39258C338.009 4.12826 338.178 4.83464 338.516 5.51172C338.855 6.18229 339.337 6.77474 339.962 7.28906C340.593 7.79688 341.345 8.19401 342.218 8.48047L341.339 9.93555C340.336 9.60352 339.473 9.11523 338.751 8.4707C338.028 7.82617 337.471 7.06771 337.081 6.19531C336.697 5.32292 336.505 4.38867 336.505 3.39258V2.06445H338.009V3.39258ZM341.798 2.91406H332.315V1.41016H341.798V2.91406ZM345.655 10.6582H343.809V0.150391H345.655V10.6582ZM348.204 6.01953H345.137V4.48633H348.204V6.01953ZM340.001 11.0879C341.199 11.0879 342.234 11.2148 343.106 11.4688C343.985 11.7227 344.656 12.0938 345.118 12.582C345.58 13.0703 345.811 13.6562 345.811 14.3398C345.811 15.0234 345.58 15.6094 345.118 16.0977C344.656 16.5924 343.985 16.9701 343.106 17.2305C342.234 17.4974 341.199 17.6309 340.001 17.6309C338.796 17.6309 337.751 17.4974 336.866 17.2305C335.987 16.9701 335.31 16.5924 334.835 16.0977C334.366 15.6094 334.132 15.0234 334.132 14.3398C334.132 13.6562 334.366 13.0703 334.835 12.582C335.31 12.0938 335.987 11.7227 336.866 11.4688C337.751 11.2148 338.796 11.0879 340.001 11.0879ZM340.001 12.5527C339.174 12.5527 338.458 12.6211 337.852 12.7578C337.247 12.8945 336.785 13.0964 336.466 13.3633C336.153 13.6302 335.997 13.9557 335.997 14.3398C335.997 14.7174 336.153 15.0462 336.466 15.3262C336.785 15.5996 337.244 15.8079 337.843 15.9512C338.442 16.0944 339.161 16.166 340.001 16.166C340.854 16.166 341.576 16.0944 342.169 15.9512C342.768 15.8079 343.223 15.5996 343.536 15.3262C343.848 15.0462 344.005 14.7174 344.005 14.3398C344.005 13.9557 343.848 13.6302 343.536 13.3633C343.223 13.0964 342.764 12.8945 342.159 12.7578C341.56 12.6211 340.841 12.5527 340.001 12.5527ZM356.769 0.443359C358.084 0.443359 359.207 0.560547 360.138 0.794922C361.069 1.02279 361.779 1.36133 362.267 1.81055C362.762 2.25977 363.009 2.80339 363.009 3.44141C363.009 4.09245 362.762 4.64583 362.267 5.10156C361.779 5.55078 361.069 5.89258 360.138 6.12695C359.207 6.36133 358.084 6.48503 356.769 6.49805C355.454 6.48503 354.327 6.36133 353.39 6.12695C352.459 5.89258 351.743 5.55078 351.241 5.10156C350.747 4.64583 350.499 4.09245 350.499 3.44141C350.499 2.80339 350.747 2.25977 351.241 1.81055C351.743 1.36133 352.459 1.02279 353.39 0.794922C354.327 0.560547 355.454 0.443359 356.769 0.443359ZM356.769 1.82031C355.844 1.82031 355.056 1.88216 354.405 2.00586C353.761 2.12956 353.273 2.3151 352.941 2.5625C352.609 2.8099 352.443 3.10286 352.443 3.44141C352.443 3.8125 352.605 4.12174 352.931 4.36914C353.256 4.61003 353.741 4.79232 354.386 4.91602C355.03 5.03971 355.825 5.10156 356.769 5.10156C357.713 5.10156 358.507 5.03971 359.152 4.91602C359.796 4.79232 360.281 4.60677 360.607 4.35938C360.939 4.10547 361.105 3.79948 361.105 3.44141C361.105 3.10286 360.935 2.81315 360.597 2.57227C360.265 2.33138 359.773 2.14583 359.122 2.01562C358.478 1.88542 357.693 1.82031 356.769 1.82031ZM364.747 9.04688H348.79V7.5625H364.747V9.04688ZM362.726 14.4961H352.55V16.4395H350.724V13.1582H360.909V11.7812H350.695V10.3945H362.726V14.4961ZM363.234 17.4844H350.724V16.0488H363.234V17.4844ZM376.447 10.0332H374.582V7.36719H376.447V10.0332ZM375.471 0.941406C376.324 0.941406 377.079 1.08789 377.736 1.38086C378.394 1.67383 378.908 2.08398 379.279 2.61133C379.657 3.13216 379.846 3.74089 379.846 4.4375C379.846 5.10807 379.657 5.70703 379.279 6.23438C378.908 6.76172 378.394 7.17188 377.736 7.46484C377.079 7.75781 376.324 7.9043 375.471 7.9043C374.631 7.9043 373.876 7.75781 373.205 7.46484C372.541 7.17188 372.027 6.76172 371.662 6.23438C371.298 5.70703 371.115 5.10807 371.115 4.4375C371.115 3.75391 371.298 3.14844 371.662 2.62109C372.027 2.08724 372.541 1.67383 373.205 1.38086C373.876 1.08789 374.631 0.941406 375.471 0.941406ZM375.471 2.36719C374.963 2.36719 374.51 2.45182 374.113 2.62109C373.716 2.79036 373.407 3.03125 373.186 3.34375C372.964 3.65625 372.854 4.02083 372.854 4.4375C372.854 4.84115 372.964 5.19596 373.186 5.50195C373.407 5.80794 373.716 6.04883 374.113 6.22461C374.517 6.39388 374.969 6.48177 375.471 6.48828C375.985 6.48177 376.441 6.39388 376.838 6.22461C377.235 6.04883 377.544 5.80794 377.766 5.50195C377.987 5.19596 378.098 4.84115 378.098 4.4375C378.098 4.02083 377.987 3.65625 377.766 3.34375C377.551 3.02474 377.242 2.78385 376.838 2.62109C376.441 2.45182 375.985 2.36719 375.471 2.36719ZM383.938 13.5488H382.072V0.169922H383.938V13.5488ZM386.428 7.51367H383.205V5.95117H386.428V7.51367ZM384.553 17.2793H372.6V15.7559H384.553V17.2793ZM374.475 16.4395H372.6V12.3867H374.475V16.4395ZM370.129 9.53516C372.082 9.54818 373.983 9.51562 375.832 9.4375C377.681 9.35938 379.403 9.19987 380.998 8.95898L381.135 10.3262C379.514 10.6126 377.818 10.8047 376.047 10.9023C374.283 10.9935 372.382 11.0391 370.344 11.0391L370.129 9.53516ZM393.342 13.4121H391.477V10.5508H393.342V13.4121ZM400.764 17.6504H398.899V0.150391H400.764V17.6504ZM403.391 9.04688H400.168V7.50391H403.391V9.04688ZM386.829 12.8945C389.016 12.8945 391.008 12.8652 392.805 12.8066C394.602 12.7415 396.301 12.5918 397.903 12.3574L398.02 13.7441C396.855 13.946 395.64 14.099 394.377 14.2031C393.114 14.3008 391.92 14.3659 390.793 14.3984C389.667 14.431 388.44 14.4473 387.112 14.4473L386.829 12.8945ZM397.649 3.71484H387.151V2.23047H397.649V3.71484ZM392.424 4.63281C393.245 4.63281 393.97 4.76953 394.602 5.04297C395.233 5.3099 395.728 5.6875 396.086 6.17578C396.451 6.66406 396.633 7.23698 396.633 7.89453C396.633 8.53255 396.451 9.0957 396.086 9.58398C395.728 10.0658 395.233 10.4434 394.602 10.7168C393.97 10.9902 393.245 11.127 392.424 11.127C391.604 11.127 390.875 10.9902 390.237 10.7168C389.599 10.4434 389.104 10.0658 388.752 9.58398C388.407 9.0957 388.235 8.53255 388.235 7.89453C388.235 7.23698 388.407 6.66406 388.752 6.17578C389.104 5.6875 389.599 5.3099 390.237 5.04297C390.875 4.76953 391.604 4.63281 392.424 4.63281ZM392.424 6.04883C391.942 6.04883 391.516 6.12695 391.145 6.2832C390.78 6.43294 390.494 6.64779 390.286 6.92773C390.077 7.20117 389.973 7.52344 389.973 7.89453C389.973 8.2526 390.074 8.57161 390.276 8.85156C390.478 9.125 390.764 9.33333 391.135 9.47656C391.513 9.61328 391.942 9.68164 392.424 9.68164C392.906 9.68164 393.329 9.61328 393.694 9.47656C394.065 9.33333 394.351 9.125 394.553 8.85156C394.755 8.57161 394.856 8.2526 394.856 7.89453C394.856 7.52344 394.755 7.20117 394.553 6.92773C394.351 6.64779 394.065 6.43294 393.694 6.2832C393.329 6.12695 392.906 6.04883 392.424 6.04883ZM393.342 3.24609H391.477V0.208984H393.342V3.24609ZM127.934 36.6035C127.934 37.9837 127.723 39.3053 127.3 40.5684C126.876 41.8249 126.284 42.9349 125.522 43.8984C124.761 44.8555 123.872 45.5814 122.856 46.0762L121.694 44.5234C122.606 44.1133 123.416 43.5013 124.126 42.6875C124.842 41.8672 125.399 40.9264 125.796 39.8652C126.199 38.7975 126.401 37.7103 126.401 36.6035V33.6055H127.934V36.6035ZM128.266 36.6035C128.266 37.6647 128.462 38.7031 128.852 39.7188C129.249 40.7344 129.8 41.6393 130.503 42.4336C131.212 43.2279 132.01 43.8236 132.895 44.2207L131.782 45.6953C130.799 45.2266 129.92 44.5299 129.145 43.6055C128.377 42.681 127.781 41.6133 127.358 40.4023C126.935 39.1914 126.723 37.9251 126.723 36.6035V33.6055H128.266V36.6035ZM136.343 49.6992H134.477V32.1504H136.343V49.6992ZM148.169 33.9277C148.169 35.7832 147.925 37.4857 147.437 39.0352C146.948 40.5781 146.102 42.0202 144.898 43.3613C143.7 44.696 142.075 45.8711 140.025 46.8867L139.019 45.4219C140.816 44.5495 142.254 43.5534 143.335 42.4336C144.416 41.3073 145.191 40.0671 145.659 38.7129C146.128 37.3522 146.362 35.832 146.362 34.1523V33.9277H148.169ZM147.31 35.4414H140.005V33.9277H147.31V35.4414ZM139.38 40.3242L139.107 38.7129L146.167 38.2637V39.6895L139.38 40.3242ZM153.277 49.6504H151.402V32.1504H153.277V49.6504ZM169.791 38.752H157.711V37.2871H169.791V38.752ZM171.607 42.4531H155.591V40.9688H171.607V42.4531ZM159.556 38.0293H157.711V32.7949H159.556V38.0293ZM169.888 49.2402H157.593V47.7168H169.888V49.2402ZM159.449 48.1562H157.593V44.123H159.449V48.1562ZM187.535 49.6504H185.758V32.1504H187.535V49.6504ZM182.955 40.2852H178.58V38.7422H182.955V40.2852ZM183.912 48.791H182.164V32.541H183.912V48.791ZM174.273 44.0059C175.693 44.0059 176.861 43.9701 177.779 43.8984C178.697 43.8268 179.628 43.6901 180.572 43.4883L180.748 45.041C179.798 45.2363 178.85 45.3665 177.906 45.4316C176.962 45.4967 175.751 45.5358 174.273 45.5488H173.131V44.0059H174.273ZM179.762 35.7637H174.938V44.6211H173.131V34.2598H179.762V35.7637ZM199.821 47.1406H197.956V42.9219H199.821V47.1406ZM205.69 47.1406H203.864V42.9219H205.69V47.1406ZM209.03 36.1445H194.616V34.6406H209.03V36.1445ZM209.88 47.7363H193.864V46.2227H209.88V47.7363ZM201.833 37.1504C203.024 37.1504 204.059 37.2806 204.938 37.541C205.817 37.7949 206.488 38.1725 206.95 38.6738C207.419 39.1686 207.653 39.7643 207.653 40.4609C207.653 41.151 207.419 41.7435 206.95 42.2383C206.488 42.7266 205.817 43.1042 204.938 43.3711C204.066 43.638 203.031 43.7715 201.833 43.7715C200.635 43.7715 199.596 43.6413 198.718 43.3809C197.845 43.1139 197.175 42.7331 196.706 42.2383C196.237 41.7435 196.003 41.151 196.003 40.4609C196.003 39.7643 196.237 39.1686 196.706 38.6738C197.175 38.1725 197.845 37.7949 198.718 37.541C199.596 37.2806 200.635 37.1504 201.833 37.1504ZM201.833 38.5957C201.006 38.5957 200.296 38.6673 199.704 38.8105C199.111 38.9538 198.659 39.1654 198.346 39.4453C198.04 39.7253 197.887 40.0638 197.887 40.4609C197.887 40.8516 198.04 41.1868 198.346 41.4668C198.659 41.7467 199.111 41.9583 199.704 42.1016C200.296 42.2448 201.006 42.3164 201.833 42.3164C202.647 42.3164 203.35 42.2448 203.942 42.1016C204.535 41.9583 204.984 41.7467 205.29 41.4668C205.602 41.1868 205.759 40.8516 205.759 40.4609C205.759 40.0638 205.602 39.7253 205.29 39.4453C204.984 39.1654 204.535 38.9538 203.942 38.8105C203.35 38.6673 202.647 38.5957 201.833 38.5957ZM202.741 35.5586H200.915V32.4141H202.741V35.5586ZM219.402 35.5293H211.54V34.0352H219.402V35.5293ZM215.993 44.9727H214.167V39.0352H215.993V44.9727ZM220.495 35.1094C220.489 35.9362 220.479 36.6296 220.466 37.1895C220.453 37.7428 220.411 38.4395 220.339 39.2793C220.267 40.1126 220.154 41.0111 219.997 41.9746L218.152 41.8184C218.366 40.4707 218.5 39.2891 218.552 38.2734C218.611 37.2578 218.64 36.2031 218.64 35.1094V34.0352H220.495V35.1094ZM224.372 49.6504H222.517V32.1504H224.372V49.6504ZM227.048 40.959H223.855V39.377H227.048V40.959ZM210.583 44.3867C212.738 44.3672 214.701 44.3249 216.472 44.2598C218.249 44.1882 219.929 44.0579 221.511 43.8691L221.609 45.2559C219.968 45.5098 218.236 45.6823 216.413 45.7734C214.59 45.8646 212.715 45.9036 210.788 45.8906L210.583 44.3867ZM233.543 35.2852C233.543 36.3464 233.341 37.3522 232.937 38.3027C232.54 39.2533 231.97 40.0833 231.228 40.793C230.486 41.4961 229.617 42.0234 228.621 42.375L227.654 40.9102C228.533 40.5977 229.301 40.1549 229.959 39.582C230.623 39.0026 231.13 38.3385 231.482 37.5898C231.84 36.8411 232.019 36.0729 232.019 35.2852V33.918H233.543V35.2852ZM233.894 35.2656C233.894 36.0013 234.063 36.7174 234.402 37.4141C234.74 38.1042 235.229 38.7227 235.867 39.2695C236.505 39.8099 237.254 40.2298 238.113 40.5293L237.166 41.9844C236.183 41.6393 235.333 41.1315 234.617 40.4609C233.901 39.7904 233.351 39.0059 232.966 38.1074C232.582 37.2025 232.39 36.2552 232.39 35.2656V33.918H233.894V35.2656ZM240.906 38.1465H237.136V36.6133H240.906V38.1465ZM237.664 34.7871H228.211V33.293H237.664V34.7871ZM242.224 49.6504H240.369V45.0117H230.369V43.498H242.224V49.6504ZM242.224 42.6191H240.369V32.1504H242.224V42.6191ZM259.031 41.5547H257.186V32.1504H259.031V41.5547ZM249.412 44.3477H257.195V42.3945H259.031V49.4355H247.576V42.3945H249.412V44.3477ZM257.195 47.9316V45.8125H249.412V47.9316H257.195ZM249.539 32.9707C250.424 32.9577 251.219 33.1237 251.922 33.4688C252.632 33.8073 253.188 34.2891 253.592 34.9141C253.995 35.5326 254.197 36.2389 254.197 37.0332C254.197 37.8079 253.995 38.5046 253.592 39.123C253.188 39.735 252.632 40.2135 251.922 40.5586C251.219 40.9036 250.424 41.0762 249.539 41.0762C248.654 41.0762 247.856 40.9036 247.146 40.5586C246.443 40.2135 245.89 39.735 245.486 39.123C245.083 38.5046 244.881 37.8079 244.881 37.0332C244.881 36.2389 245.083 35.5326 245.486 34.9141C245.89 34.2891 246.443 33.8073 247.146 33.4688C247.856 33.1237 248.654 32.9577 249.539 32.9707ZM249.539 34.5234C248.992 34.5104 248.501 34.6113 248.064 34.8262C247.635 35.041 247.299 35.3405 247.059 35.7246C246.818 36.1022 246.697 36.5384 246.697 37.0332C246.697 37.5215 246.818 37.9577 247.059 38.3418C247.299 38.7194 247.635 39.0156 248.064 39.2305C248.501 39.4453 248.992 39.5527 249.539 39.5527C250.086 39.5527 250.574 39.4453 251.004 39.2305C251.434 39.0156 251.769 38.7194 252.01 38.3418C252.251 37.9577 252.371 37.5215 252.371 37.0332C252.371 36.5384 252.247 36.1022 252 35.7246C251.759 35.3405 251.424 35.041 250.994 34.8262C250.571 34.6113 250.086 34.5104 249.539 34.5234ZM275.926 49.6504H274.09V32.1504H275.926V49.6504ZM264.305 44.709H262.479V33.8594H264.305V44.709ZM263.944 43.6152C265.35 43.6152 266.753 43.5534 268.153 43.4297C269.559 43.2995 270.965 43.0879 272.371 42.7949L272.616 44.3574C271.144 44.6569 269.699 44.875 268.28 45.0117C266.867 45.1419 265.422 45.207 263.944 45.207H262.479V43.6152H263.944ZM291.923 49.6992H290.077V32.1504H291.923V49.6992ZM294.745 40.4707H291.503V38.9375H294.745V40.4707ZM280.448 43.8105C282.102 43.8105 283.547 43.7682 284.784 43.6836C286.021 43.5924 287.268 43.4329 288.524 43.2051L288.749 44.7871C287.473 45.015 286.21 45.168 284.96 45.2461C283.716 45.3177 282.212 45.3535 280.448 45.3535H279.032V43.8105H280.448ZM287.216 35.3535H280.878V44.5332H279.032V33.8301H287.216V35.3535ZM297.167 48.1367C296.92 48.1367 296.689 48.0716 296.474 47.9414C296.259 47.8112 296.09 47.6419 295.966 47.4336C295.849 47.2188 295.79 46.9876 295.79 46.7402C295.79 46.4993 295.849 46.2715 295.966 46.0566C296.09 45.8418 296.259 45.6758 296.474 45.5586C296.689 45.4349 296.92 45.373 297.167 45.373C297.408 45.373 297.636 45.4349 297.851 45.5586C298.066 45.6758 298.235 45.8418 298.359 46.0566C298.482 46.2715 298.544 46.4993 298.544 46.7402C298.544 46.9876 298.482 47.2188 298.359 47.4336C298.235 47.6419 298.066 47.8112 297.851 47.9414C297.636 48.0716 297.408 48.1367 297.167 48.1367ZM4.48906 76.582C4.09843 76.582 3.73385 76.4811 3.39531 76.2793C3.06328 76.0775 2.79635 75.8073 2.59453 75.4688C2.39271 75.1302 2.29179 74.7591 2.29179 74.3555C2.29179 73.9518 2.39271 73.5807 2.59453 73.2422C2.79635 72.9036 3.06328 72.6367 3.39531 72.4414C3.73385 72.2461 4.09843 72.1484 4.48906 72.1484C4.89271 72.1484 5.26705 72.2461 5.61211 72.4414C5.95716 72.6367 6.22734 72.9036 6.42265 73.2422C6.61797 73.5807 6.71562 73.9518 6.71562 74.3555C6.71562 74.7591 6.61797 75.1302 6.42265 75.4688C6.22734 75.8073 5.95716 76.0775 5.61211 76.2793C5.26705 76.4811 4.89271 76.582 4.48906 76.582ZM26.3934 67.7051C26.3934 68.7142 26.185 69.6615 25.7684 70.5469C25.3582 71.4323 24.7755 72.1973 24.0203 72.8418C23.2651 73.4863 22.3829 73.9681 21.3738 74.2871L20.4949 72.8613C21.3803 72.5749 22.1518 72.1712 22.8094 71.6504C23.4669 71.123 23.9715 70.5208 24.323 69.8438C24.6811 69.1602 24.8602 68.4473 24.8602 67.7051V66.9727H26.3934V67.7051ZM26.7059 67.7051C26.7059 68.3952 26.8881 69.0592 27.2527 69.6973C27.6173 70.3353 28.1316 70.8984 28.7957 71.3867C29.4663 71.8685 30.2475 72.2331 31.1395 72.4805L30.2703 73.9355C29.2482 73.6361 28.353 73.1836 27.5848 72.5781C26.823 71.9727 26.2339 71.25 25.8172 70.4102C25.407 69.5638 25.202 68.6621 25.202 67.7051V66.9727H26.7059V67.7051ZM30.5828 67.5977H20.9832V66.123H30.5828V67.5977ZM26.7254 66.8066H24.8602V64.082H26.7254V66.8066ZM34.7137 74.502H32.868V64.1699H34.7137V74.502ZM34.7137 81.4355H23.2195V75.3418H34.7137V81.4355ZM25.0457 79.9316H32.8973V76.8359H25.0457V79.9316ZM45.0656 64.4434C46.3807 64.4434 47.5038 64.5605 48.4348 64.7949C49.3658 65.0228 50.0754 65.3613 50.5637 65.8105C51.0585 66.2598 51.3059 66.8034 51.3059 67.4414C51.3059 68.0924 51.0585 68.6458 50.5637 69.1016C50.0754 69.5508 49.3658 69.8926 48.4348 70.127C47.5038 70.3613 46.3807 70.485 45.0656 70.498C43.7505 70.485 42.6242 70.3613 41.6867 70.127C40.7557 69.8926 40.0396 69.5508 39.5383 69.1016C39.0435 68.6458 38.7961 68.0924 38.7961 67.4414C38.7961 66.8034 39.0435 66.2598 39.5383 65.8105C40.0396 65.3613 40.7557 65.0228 41.6867 64.7949C42.6242 64.5605 43.7505 64.4434 45.0656 64.4434ZM45.0656 65.8203C44.1411 65.8203 43.3534 65.8822 42.7023 66.0059C42.0578 66.1296 41.5695 66.3151 41.2375 66.5625C40.9055 66.8099 40.7394 67.1029 40.7394 67.4414C40.7394 67.8125 40.9022 68.1217 41.2277 68.3691C41.5533 68.61 42.0383 68.7923 42.6828 68.916C43.3273 69.0397 44.1216 69.1016 45.0656 69.1016C46.0096 69.1016 46.8039 69.0397 47.4484 68.916C48.093 68.7923 48.578 68.6068 48.9035 68.3594C49.2355 68.1055 49.4016 67.7995 49.4016 67.4414C49.4016 67.1029 49.2323 66.8132 48.8937 66.5723C48.5617 66.3314 48.0702 66.1458 47.4191 66.0156C46.7746 65.8854 45.9901 65.8203 45.0656 65.8203ZM53.0441 73.0469H37.0871V71.5625H53.0441V73.0469ZM51.0227 78.4961H40.8469V80.4395H39.0207V77.1582H49.2062V75.7812H38.9914V74.3945H51.0227V78.4961ZM51.5305 81.4844H39.0207V80.0488H51.5305V81.4844ZM74.4121 74.834H58.4355V73.3496H74.4121V74.834ZM67.332 73.9453H65.4863V71.1816H67.332V73.9453ZM72.5762 71.8457H60.5156V70.3809H72.5762V71.8457ZM72.459 66.1133H62.3711V71.1719H60.5156V64.6387H72.459V66.1133ZM72.0098 68.9062H61.8242V67.5195H72.0098V68.9062ZM66.4238 75.9766C67.7129 75.9635 68.8034 76.0677 69.6953 76.2891C70.5938 76.5104 71.2806 76.8327 71.7559 77.2559C72.2311 77.679 72.4688 78.1934 72.4688 78.7988C72.4688 79.4108 72.2311 79.9251 71.7559 80.3418C71.2806 80.765 70.5938 81.084 69.6953 81.2988C68.8034 81.5202 67.7129 81.6309 66.4238 81.6309C65.1348 81.6309 64.0345 81.5202 63.123 81.2988C62.2116 81.084 61.5215 80.765 61.0527 80.3418C60.584 79.9251 60.3496 79.4108 60.3496 78.7988C60.3496 78.1868 60.5872 77.6725 61.0625 77.2559C61.5378 76.8327 62.2279 76.5104 63.1328 76.2891C64.0378 76.0677 65.1348 75.9635 66.4238 75.9766ZM66.4238 77.3633C65.4993 77.3633 64.7246 77.4186 64.0996 77.5293C63.4811 77.6335 63.0124 77.793 62.6934 78.0078C62.3743 78.2161 62.2148 78.4798 62.2148 78.7988C62.2148 79.1178 62.3711 79.3848 62.6836 79.5996C62.9961 79.8079 63.4681 79.9609 64.0996 80.0586C64.7311 80.1628 65.5059 80.2148 66.4238 80.2148C67.3353 80.2148 68.1003 80.1628 68.7188 80.0586C69.3372 79.9609 69.806 79.8079 70.125 79.5996C70.444 79.3848 70.6035 79.1178 70.6035 78.7988C70.6035 78.4798 70.444 78.2161 70.125 78.0078C69.8125 77.793 69.3438 77.6335 68.7188 77.5293C68.0938 77.4186 67.3288 77.3633 66.4238 77.3633ZM83.9828 68.5547H75.3012V67.0605H83.9828V68.5547ZM79.6566 69.5996C80.3923 69.5996 81.0466 69.7721 81.6195 70.1172C82.199 70.4557 82.6514 70.931 82.977 71.543C83.3025 72.1549 83.4652 72.8548 83.4652 73.6426C83.4652 74.4238 83.3025 75.1237 82.977 75.7422C82.6514 76.3542 82.199 76.8359 81.6195 77.1875C81.0466 77.5391 80.3923 77.7148 79.6566 77.7148C78.9275 77.7148 78.2732 77.5391 77.6937 77.1875C77.1208 76.8359 76.6716 76.3509 76.3461 75.7324C76.0271 75.1139 75.8676 74.4173 75.8676 73.6426C75.8676 72.8678 76.0271 72.1712 76.3461 71.5527C76.6716 70.9342 77.1208 70.4557 77.6937 70.1172C78.2732 69.7721 78.9275 69.5996 79.6566 69.5996ZM79.6566 71.1523C79.2465 71.1523 78.8754 71.2598 78.5434 71.4746C78.2178 71.6829 77.9639 71.9759 77.7816 72.3535C77.5993 72.7246 77.5082 73.1543 77.5082 73.6426C77.5082 74.1243 77.5993 74.554 77.7816 74.9316C77.9704 75.3092 78.2276 75.599 78.5531 75.8008C78.8786 76.0026 79.2465 76.1035 79.6566 76.1035C80.0733 76.1035 80.4444 76.0026 80.7699 75.8008C81.102 75.599 81.3624 75.3092 81.5512 74.9316C81.74 74.554 81.8344 74.1243 81.8344 73.6426C81.8344 73.1543 81.74 72.7246 81.5512 72.3535C81.3624 71.9759 81.102 71.6829 80.7699 71.4746C80.4444 71.2598 80.0733 71.1523 79.6566 71.1523ZM90.3207 81.6504H88.5531V64.1504H90.3207V81.6504ZM89.1391 72.959H85.9359V71.4453H89.1391V72.959ZM86.5414 80.8301H84.7934V64.5605H86.5414V80.8301ZM80.5844 67.9883H78.7484V64.668H80.5844V67.9883ZM112.665 74.4336H96.7082V72.9395H112.665V74.4336ZM110.702 81.6504H108.847V77.6172H98.4758V76.1328H110.702V81.6504ZM105.585 66.6309H103.759V64.1406H105.585V66.6309ZM105.282 67.1191C105.282 68.0306 104.976 68.8379 104.364 69.541C103.759 70.2441 102.919 70.8105 101.845 71.2402C100.771 71.6634 99.5402 71.9434 98.1535 72.0801L97.5578 70.6445C98.7687 70.5469 99.8332 70.3385 100.751 70.0195C101.676 69.694 102.389 69.2839 102.89 68.7891C103.398 68.2878 103.652 67.7311 103.652 67.1191V66.8066H105.282V67.1191ZM105.702 67.1191C105.702 67.7311 105.953 68.2878 106.454 68.7891C106.962 69.2839 107.675 69.694 108.593 70.0195C109.517 70.3385 110.585 70.5469 111.796 70.6445L111.2 72.0801C109.814 71.9434 108.583 71.6634 107.509 71.2402C106.435 70.8105 105.592 70.2441 104.98 69.541C104.374 68.8379 104.071 68.0306 104.071 67.1191V66.8066H105.702V67.1191ZM111.073 67.3438H98.3195V65.8789H111.073V67.3438ZM126.855 70.1367H123.076V68.6133H126.855V70.1367ZM128.183 74.5703H126.328V64.1504H128.183V74.5703ZM122.314 75.0684C123.545 75.0684 124.602 75.1986 125.488 75.459C126.38 75.7194 127.06 76.097 127.529 76.5918C128.004 77.0801 128.242 77.6693 128.242 78.3594C128.242 79.0495 128.004 79.6387 127.529 80.127C127.06 80.6217 126.38 80.9993 125.488 81.2598C124.602 81.5202 123.545 81.6536 122.314 81.6602C121.097 81.6536 120.045 81.5202 119.16 81.2598C118.274 80.9993 117.594 80.6217 117.119 80.127C116.643 79.6387 116.406 79.0495 116.406 78.3594C116.406 77.6693 116.643 77.0801 117.119 76.5918C117.594 76.097 118.274 75.7194 119.16 75.459C120.045 75.1986 121.097 75.0684 122.314 75.0684ZM122.314 76.4941C121.474 76.4941 120.745 76.569 120.127 76.7188C119.515 76.862 119.046 77.0736 118.72 77.3535C118.401 77.6335 118.242 77.9688 118.242 78.3594C118.242 78.737 118.401 79.0658 118.72 79.3457C119.046 79.6257 119.515 79.8405 120.127 79.9902C120.745 80.1335 121.474 80.2051 122.314 80.2051C123.173 80.2051 123.906 80.1335 124.511 79.9902C125.123 79.8405 125.589 79.6257 125.908 79.3457C126.233 79.0658 126.396 78.737 126.396 78.3594C126.396 77.9688 126.233 77.6335 125.908 77.3535C125.589 77.0736 125.123 76.862 124.511 76.7188C123.906 76.569 123.173 76.4941 122.314 76.4941ZM119.502 67.2754C119.502 68.3496 119.3 69.3652 118.896 70.3223C118.499 71.2793 117.929 72.1191 117.187 72.8418C116.445 73.5579 115.576 74.1016 114.58 74.4727L113.613 72.9883C114.498 72.6758 115.27 72.2233 115.927 71.6309C116.591 71.0384 117.099 70.3646 117.451 69.6094C117.802 68.8477 117.978 68.0697 117.978 67.2754V65.918H119.502V67.2754ZM119.853 67.2559C119.853 67.9915 120.022 68.7077 120.361 69.4043C120.699 70.0944 121.188 70.7129 121.826 71.2598C122.464 71.8001 123.212 72.2201 124.072 72.5195L123.125 73.9941C122.142 73.6491 121.292 73.138 120.576 72.4609C119.86 71.7839 119.309 70.9961 118.925 70.0977C118.541 69.1927 118.349 68.2454 118.349 67.2559V65.918H119.853V67.2559ZM123.623 66.8848H114.17V65.3516H123.623V66.8848ZM148.008 68.7598H143.428V67.2852H148.008V68.7598ZM147.881 72.4023H143.291V70.8887H147.881V72.4023ZM149.551 74.541H147.696V64.1699H149.551V74.541ZM144.082 65.4297C144.082 66.9336 143.76 68.291 143.116 69.502C142.471 70.7129 141.54 71.748 140.323 72.6074C139.112 73.4603 137.647 74.1374 135.928 74.6387L135.166 73.1738C136.664 72.7507 137.927 72.2005 138.955 71.5234C139.991 70.8398 140.772 70.0553 141.299 69.1699C141.833 68.2845 142.1 67.3242 142.1 66.2891V65.4297H144.082ZM143.37 66.9531H136.075V65.4297H143.37V66.9531ZM143.789 74.7266C144.968 74.7266 146 74.8665 146.885 75.1465C147.777 75.4199 148.461 75.8105 148.936 76.3184C149.418 76.8262 149.659 77.4349 149.659 78.1445C149.659 78.8477 149.418 79.4596 148.936 79.9805C148.461 80.4948 147.777 80.8887 146.885 81.1621C146 81.4355 144.968 81.5723 143.789 81.5723C142.605 81.5723 141.569 81.4355 140.684 81.1621C139.799 80.8887 139.112 80.4948 138.623 79.9805C138.142 79.4596 137.901 78.8477 137.901 78.1445C137.901 77.4349 138.142 76.8262 138.623 76.3184C139.112 75.8105 139.799 75.4199 140.684 75.1465C141.569 74.8665 142.605 74.7266 143.789 74.7266ZM143.789 76.1914C142.969 76.1784 142.25 76.25 141.631 76.4062C141.019 76.5625 140.547 76.7904 140.215 77.0898C139.89 77.3828 139.727 77.7344 139.727 78.1445C139.727 78.5482 139.89 78.8965 140.215 79.1895C140.547 79.4759 141.016 79.6973 141.621 79.8535C142.233 80.0098 142.956 80.0879 143.789 80.0879C144.61 80.0879 145.319 80.0098 145.918 79.8535C146.524 79.6973 146.989 79.4759 147.315 79.1895C147.647 78.8965 147.813 78.5482 147.813 78.1445C147.813 77.7344 147.647 77.3828 147.315 77.0898C146.989 76.7904 146.524 76.5625 145.918 76.4062C145.319 76.25 144.61 76.1784 143.789 76.1914ZM165.284 69.3262H161.778V67.8809H165.284V69.3262ZM165.255 72.4512H161.759V70.9961H165.255V72.4512ZM161.71 67.041H151.876V65.6055H161.71V67.041ZM156.856 67.7637C157.657 67.7637 158.36 67.8841 158.966 68.125C159.578 68.3659 160.053 68.7142 160.391 69.1699C160.736 69.6257 160.909 70.153 160.909 70.752C160.909 71.3379 160.736 71.8555 160.391 72.3047C160.053 72.7474 159.578 73.0924 158.966 73.3398C158.36 73.5872 157.657 73.7109 156.856 73.7109C156.075 73.7109 155.378 73.5872 154.766 73.3398C154.161 73.0924 153.689 72.7474 153.35 72.3047C153.018 71.8555 152.852 71.3379 152.852 70.752C152.852 70.153 153.018 69.6257 153.35 69.1699C153.689 68.7142 154.161 68.3659 154.766 68.125C155.378 67.8841 156.075 67.7637 156.856 67.7637ZM156.856 69.1406C156.42 69.1276 156.026 69.1895 155.675 69.3262C155.323 69.4564 155.053 69.6452 154.864 69.8926C154.675 70.1335 154.581 70.4199 154.581 70.752C154.581 71.071 154.679 71.3542 154.874 71.6016C155.069 71.8424 155.339 72.0345 155.684 72.1777C156.029 72.3145 156.42 72.3828 156.856 72.3828C157.312 72.3828 157.712 72.3145 158.057 72.1777C158.402 72.0345 158.673 71.8424 158.868 71.6016C159.063 71.3542 159.161 71.071 159.161 70.752C159.161 70.4199 159.063 70.1335 158.868 69.8926C158.673 69.6452 158.402 69.4564 158.057 69.3262C157.712 69.1895 157.312 69.1276 156.856 69.1406ZM157.804 66.7871H155.958V63.9453H157.804V66.7871ZM166.417 73.877H164.581V64.1504H166.417V73.877ZM166.417 78.6426H156.866V80.5371H155.011V77.3438H164.581V76.0449H154.981V74.6777H166.417V78.6426ZM166.915 81.4844H155.011V80.0879H166.915V81.4844ZM176.71 64.4434C178.025 64.4434 179.148 64.5605 180.079 64.7949C181.01 65.0228 181.72 65.3613 182.208 65.8105C182.703 66.2598 182.95 66.8034 182.95 67.4414C182.95 68.0924 182.703 68.6458 182.208 69.1016C181.72 69.5508 181.01 69.8926 180.079 70.127C179.148 70.3613 178.025 70.485 176.71 70.498C175.395 70.485 174.269 70.3613 173.331 70.127C172.4 69.8926 171.684 69.5508 171.183 69.1016C170.688 68.6458 170.441 68.0924 170.441 67.4414C170.441 66.8034 170.688 66.2598 171.183 65.8105C171.684 65.3613 172.4 65.0228 173.331 64.7949C174.269 64.5605 175.395 64.4434 176.71 64.4434ZM176.71 65.8203C175.786 65.8203 174.998 65.8822 174.347 66.0059C173.702 66.1296 173.214 66.3151 172.882 66.5625C172.55 66.8099 172.384 67.1029 172.384 67.4414C172.384 67.8125 172.547 68.1217 172.872 68.3691C173.198 68.61 173.683 68.7923 174.327 68.916C174.972 69.0397 175.766 69.1016 176.71 69.1016C177.654 69.1016 178.448 69.0397 179.093 68.916C179.738 68.7923 180.223 68.6068 180.548 68.3594C180.88 68.1055 181.046 67.7995 181.046 67.4414C181.046 67.1029 180.877 66.8132 180.538 66.5723C180.206 66.3314 179.715 66.1458 179.064 66.0156C178.419 65.8854 177.635 65.8203 176.71 65.8203ZM184.689 73.0469H168.732V71.5625H184.689V73.0469ZM182.667 78.4961H172.491V80.4395H170.665V77.1582H180.851V75.7812H170.636V74.3945H182.667V78.4961ZM183.175 81.4844H170.665V80.0488H183.175V81.4844ZM195.832 69.3164C195.832 70.5534 195.617 71.7773 195.188 72.9883C194.764 74.1927 194.175 75.2637 193.42 76.2012C192.665 77.1387 191.818 77.8418 190.881 78.3105L189.768 76.8555C190.64 76.4323 191.424 75.8171 192.121 75.0098C192.818 74.196 193.365 73.291 193.762 72.2949C194.165 71.2923 194.367 70.2995 194.367 69.3164V66.7188H195.832V69.3164ZM196.203 69.3164C196.203 70.2409 196.389 71.1719 196.76 72.1094C197.137 73.0404 197.665 73.89 198.342 74.6582C199.025 75.4264 199.8 76.0124 200.666 76.416L199.621 77.8711C198.671 77.4219 197.824 76.7513 197.082 75.8594C196.34 74.9609 195.76 73.9421 195.344 72.8027C194.934 71.6569 194.729 70.4948 194.729 69.3164V66.7188H196.203V69.3164ZM200.002 67.4512H190.422V65.9277H200.002V67.4512ZM203.732 81.6504H201.887V64.1504H203.732V81.6504ZM206.555 72.666H203.312V71.1035H206.555V72.666ZM220.305 66.4746H208.987V64.9902H220.305V66.4746ZM223 72.959H206.985V71.4453H223V72.959ZM220.969 66.2012C220.969 67.2103 220.94 68.1543 220.881 69.0332C220.823 69.9056 220.676 70.9049 220.442 72.0312L218.616 71.8555C218.778 71.0807 218.896 70.3581 218.967 69.6875C219.045 69.0169 219.091 68.4342 219.104 67.9395C219.117 67.4382 219.123 66.8587 219.123 66.2012V64.9902H220.969V66.2012ZM221.077 81.6992H219.221V76.8555H208.674V75.3809H221.077V81.6992ZM237.503 81.6504H235.667V64.1504H237.503V81.6504ZM240.325 72.7832H237.083V71.25H240.325V72.7832ZM234.143 68.4082H223.772V66.8945H234.143V68.4082ZM229.036 69.707C229.869 69.707 230.615 69.8796 231.272 70.2246C231.936 70.5697 232.454 71.0514 232.825 71.6699C233.203 72.2884 233.391 72.9883 233.391 73.7695C233.391 74.5573 233.203 75.2604 232.825 75.8789C232.454 76.4974 231.936 76.9792 231.272 77.3242C230.615 77.6693 229.869 77.8418 229.036 77.8418C228.196 77.8418 227.447 77.6693 226.79 77.3242C226.132 76.9792 225.615 76.4974 225.237 75.8789C224.866 75.2604 224.68 74.5573 224.68 73.7695C224.68 72.9883 224.866 72.2884 225.237 71.6699C225.615 71.0514 226.132 70.5697 226.79 70.2246C227.447 69.8796 228.196 69.707 229.036 69.707ZM229.036 71.2402C228.541 71.2402 228.098 71.3477 227.708 71.5625C227.317 71.7708 227.008 72.0671 226.78 72.4512C226.559 72.8353 226.448 73.2747 226.448 73.7695C226.448 74.2708 226.559 74.7103 226.78 75.0879C227.008 75.4655 227.317 75.7617 227.708 75.9766C228.098 76.1849 228.541 76.2891 229.036 76.2891C229.531 76.2891 229.973 76.1849 230.364 75.9766C230.755 75.7617 231.061 75.4655 231.282 75.0879C231.503 74.7103 231.614 74.2708 231.614 73.7695C231.614 73.2747 231.503 72.8353 231.282 72.4512C231.061 72.0671 230.755 71.7708 230.364 71.5625C229.973 71.3477 229.531 71.2402 229.036 71.2402ZM229.944 67.5391H228.098V64.3848H229.944V67.5391ZM254.027 68.6621H249.241V67.1289H254.027V68.6621ZM254.085 72.4023H249.241V70.8984H254.085V72.4023ZM249.681 73.9355H241.546V65.6543H249.681V73.9355ZM243.392 72.4707H247.855V67.1582H243.392V72.4707ZM255.345 76.9336H253.489V64.1699H255.345V76.9336ZM255.736 81.3086H243.909V79.7754H255.736V81.3086ZM245.784 80.498H243.909V75.7715H245.784V80.498ZM276.635 76.9922H274.789V64.1699H276.635V76.9922ZM277.162 81.3086H265.199V79.7754H277.162V81.3086ZM267.055 80.5469H265.199V75.7812H267.055V80.5469ZM268.139 66.875C268.139 68.0208 267.937 69.1016 267.533 70.1172C267.136 71.1263 266.566 72.0117 265.824 72.7734C265.082 73.5352 264.21 74.1113 263.207 74.502L262.221 73.0469C263.119 72.7148 263.9 72.2331 264.564 71.6016C265.229 70.9635 265.733 70.2376 266.078 69.4238C266.423 68.6035 266.596 67.7539 266.596 66.875V65.1465H268.139V66.875ZM268.5 66.875C268.5 67.7214 268.669 68.5319 269.008 69.3066C269.346 70.0749 269.844 70.7585 270.502 71.3574C271.16 71.9499 271.924 72.4023 272.797 72.7148L271.84 74.1895C270.831 73.8118 269.958 73.2682 269.223 72.5586C268.493 71.8424 267.93 70.9993 267.533 70.0293C267.136 69.0527 266.938 68.0013 266.938 66.875V65.1465H268.5V66.875ZM292.055 68.7598H287.475V67.2852H292.055V68.7598ZM291.928 72.4023H287.338V70.8887H291.928V72.4023ZM293.598 74.541H291.743V64.1699H293.598V74.541ZM288.129 65.4297C288.129 66.9336 287.807 68.291 287.162 69.502C286.518 70.7129 285.587 71.748 284.37 72.6074C283.159 73.4603 281.694 74.1374 279.975 74.6387L279.213 73.1738C280.711 72.7507 281.974 72.2005 283.002 71.5234C284.037 70.8398 284.819 70.0553 285.346 69.1699C285.88 68.2845 286.147 67.3242 286.147 66.2891V65.4297H288.129ZM287.416 66.9531H280.121V65.4297H287.416V66.9531ZM287.836 74.7266C289.015 74.7266 290.047 74.8665 290.932 75.1465C291.824 75.4199 292.508 75.8105 292.983 76.3184C293.465 76.8262 293.705 77.4349 293.705 78.1445C293.705 78.8477 293.465 79.4596 292.983 79.9805C292.508 80.4948 291.824 80.8887 290.932 81.1621C290.047 81.4355 289.015 81.5723 287.836 81.5723C286.651 81.5723 285.616 81.4355 284.731 81.1621C283.845 80.8887 283.159 80.4948 282.67 79.9805C282.189 79.4596 281.948 78.8477 281.948 78.1445C281.948 77.4349 282.189 76.8262 282.67 76.3184C283.159 75.8105 283.845 75.4199 284.731 75.1465C285.616 74.8665 286.651 74.7266 287.836 74.7266ZM287.836 76.1914C287.016 76.1784 286.297 76.25 285.678 76.4062C285.066 76.5625 284.594 76.7904 284.262 77.0898C283.937 77.3828 283.774 77.7344 283.774 78.1445C283.774 78.5482 283.937 78.8965 284.262 79.1895C284.594 79.4759 285.063 79.6973 285.668 79.8535C286.28 80.0098 287.003 80.0879 287.836 80.0879C288.657 80.0879 289.366 80.0098 289.965 79.8535C290.571 79.6973 291.036 79.4759 291.362 79.1895C291.694 78.8965 291.86 78.5482 291.86 78.1445C291.86 77.7344 291.694 77.3828 291.362 77.0898C291.036 76.7904 290.571 76.5625 289.965 76.4062C289.366 76.25 288.657 76.1784 287.836 76.1914ZM306.548 70.4688H302.729V68.9453H306.548V70.4688ZM306.518 74.8438H302.612V73.3301H306.518V74.8438ZM310.932 81.6504H309.175V64.1504H310.932V81.6504ZM307.358 80.8105H305.591V64.5996H307.358V80.8105ZM303.462 66.3379C303.462 67.959 303.24 69.4694 302.798 70.8691C302.355 72.2624 301.649 73.5547 300.679 74.7461C299.715 75.9375 298.455 76.9954 296.899 77.9199L295.786 76.5918C297.14 75.791 298.25 74.8893 299.116 73.8867C299.988 72.8776 300.63 71.7773 301.04 70.5859C301.457 69.388 301.665 68.0892 301.665 66.6895V66.3379H303.462ZM302.348 67.8516H296.655V66.3379H302.348V67.8516ZM328.775 73.6133H312.759V72.1875H328.775V73.6133ZM326.802 78.6914H316.529V80.5859H314.673V77.4609H324.966V76.1719H314.654V74.8242H326.802V78.6914ZM327.349 81.4453H314.673V80.1367H327.349V81.4453ZM326.753 68.3984H316.655V70.166H314.82V67.168H324.898V65.918H314.771V64.6094H326.753V68.3984ZM327.066 71.0352H314.82V69.7363H327.066V71.0352ZM347.896 77.0117H346.051V64.1602H347.896V77.0117ZM350.445 70.9277H347.33V69.3848H350.445V70.9277ZM348.639 81.3086H336.812V79.7754H348.639V81.3086ZM338.648 80.4102H336.812V75.6738H338.648V80.4102ZM339.068 65.3516C339.941 65.3516 340.732 65.5371 341.441 65.9082C342.158 66.2793 342.717 66.7969 343.121 67.4609C343.531 68.1185 343.736 68.8672 343.736 69.707C343.736 70.5404 343.531 71.2891 343.121 71.9531C342.717 72.6172 342.158 73.138 341.441 73.5156C340.732 73.8867 339.941 74.0723 339.068 74.0723C338.196 74.0723 337.405 73.8867 336.695 73.5156C335.986 73.138 335.426 72.6172 335.016 71.9531C334.612 71.2891 334.41 70.5404 334.41 69.707C334.41 68.8672 334.612 68.1185 335.016 67.4609C335.426 66.7969 335.982 66.2793 336.686 65.9082C337.395 65.5371 338.189 65.3516 339.068 65.3516ZM339.068 66.9727C338.548 66.9727 338.069 67.0866 337.633 67.3145C337.197 67.5423 336.852 67.8678 336.598 68.291C336.35 68.7077 336.227 69.1797 336.227 69.707C336.227 70.2409 336.35 70.7161 336.598 71.1328C336.852 71.543 337.197 71.8652 337.633 72.0996C338.069 72.3275 338.548 72.4414 339.068 72.4414C339.615 72.4414 340.104 72.3275 340.533 72.0996C340.963 71.8652 341.301 71.543 341.549 71.1328C341.796 70.7161 341.92 70.2409 341.92 69.707C341.92 69.1667 341.796 68.6914 341.549 68.2812C341.301 67.8646 340.963 67.5423 340.533 67.3145C340.104 67.0866 339.615 66.9727 339.068 66.9727ZM364.293 70.1367H360.514V68.6133H364.293V70.1367ZM365.621 74.5703H363.766V64.1504H365.621V74.5703ZM359.752 75.0684C360.983 75.0684 362.041 75.1986 362.926 75.459C363.818 75.7194 364.498 76.097 364.967 76.5918C365.442 77.0801 365.68 77.6693 365.68 78.3594C365.68 79.0495 365.442 79.6387 364.967 80.127C364.498 80.6217 363.818 80.9993 362.926 81.2598C362.041 81.5202 360.983 81.6536 359.752 81.6602C358.535 81.6536 357.483 81.5202 356.598 81.2598C355.713 80.9993 355.032 80.6217 354.557 80.127C354.082 79.6387 353.844 79.0495 353.844 78.3594C353.844 77.6693 354.082 77.0801 354.557 76.5918C355.032 76.097 355.713 75.7194 356.598 75.459C357.483 75.1986 358.535 75.0684 359.752 75.0684ZM359.752 76.4941C358.912 76.4941 358.183 76.569 357.565 76.7188C356.953 76.862 356.484 77.0736 356.159 77.3535C355.84 77.6335 355.68 77.9688 355.68 78.3594C355.68 78.737 355.84 79.0658 356.159 79.3457C356.484 79.6257 356.953 79.8405 357.565 79.9902C358.183 80.1335 358.912 80.2051 359.752 80.2051C360.612 80.2051 361.344 80.1335 361.95 79.9902C362.562 79.8405 363.027 79.6257 363.346 79.3457C363.672 79.0658 363.834 78.737 363.834 78.3594C363.834 77.9688 363.672 77.6335 363.346 77.3535C363.027 77.0736 362.562 76.862 361.95 76.7188C361.344 76.569 360.612 76.4941 359.752 76.4941ZM356.94 67.2754C356.94 68.3496 356.738 69.3652 356.334 70.3223C355.937 71.2793 355.368 72.1191 354.625 72.8418C353.883 73.5579 353.014 74.1016 352.018 74.4727L351.051 72.9883C351.937 72.6758 352.708 72.2233 353.366 71.6309C354.03 71.0384 354.537 70.3646 354.889 69.6094C355.241 68.8477 355.416 68.0697 355.416 67.2754V65.918H356.94V67.2754ZM357.291 67.2559C357.291 67.9915 357.461 68.7077 357.799 69.4043C358.138 70.0944 358.626 70.7129 359.264 71.2598C359.902 71.8001 360.651 72.2201 361.51 72.5195L360.563 73.9941C359.58 73.6491 358.73 73.138 358.014 72.4609C357.298 71.7839 356.748 70.9961 356.364 70.0977C355.98 69.1927 355.787 68.2454 355.787 67.2559V65.918H357.291V67.2559ZM361.061 66.8848H351.608V65.3516H361.061V66.8848ZM374.011 68.6035C374.011 69.9837 373.799 71.3053 373.376 72.5684C372.953 73.8249 372.36 74.9349 371.598 75.8984C370.837 76.8555 369.948 77.5814 368.932 78.0762L367.77 76.5234C368.682 76.1133 369.492 75.5013 370.202 74.6875C370.918 73.8672 371.475 72.9264 371.872 71.8652C372.276 70.7975 372.477 69.7103 372.477 68.6035V65.6055H374.011V68.6035ZM374.343 68.6035C374.343 69.6647 374.538 70.7031 374.929 71.7188C375.326 72.7344 375.876 73.6393 376.579 74.4336C377.289 75.2279 378.086 75.8236 378.971 76.2207L377.858 77.6953C376.875 77.2266 375.996 76.5299 375.221 75.6055C374.453 74.681 373.858 73.6133 373.434 72.4023C373.011 71.1914 372.8 69.9251 372.8 68.6035V65.6055H374.343V68.6035ZM382.419 81.6992H380.554V64.1504H382.419V81.6992ZM397.79 70.4883H393.132V68.9746H397.79V70.4883ZM397.595 75.166H392.937V73.6719H397.595V75.166ZM393.728 65.9277C393.728 67.7832 393.49 69.4824 393.015 71.0254C392.54 72.5618 391.716 73.9941 390.544 75.3223C389.379 76.6504 387.8 77.8255 385.808 78.8477L384.763 77.4316C386.527 76.5397 387.933 75.5339 388.982 74.4141C390.036 73.2878 390.792 72.0508 391.247 70.7031C391.703 69.349 391.931 67.832 391.931 66.1523V65.9277H393.728ZM393.044 67.4414H385.739V65.9277H393.044V67.4414ZM385.134 72.2949L384.841 70.7129L391.921 70.2637V71.6699L385.134 72.2949ZM399.372 81.6602H397.536V64.1406H399.372V81.6602ZM53.8793 98.6309C53.8793 99.64 53.5668 100.568 52.9418 101.414C52.3168 102.26 51.4802 102.967 50.432 103.533C49.3839 104.1 48.2185 104.484 46.9359 104.686L46.2231 103.23C47.3168 103.074 48.3259 102.768 49.2504 102.312C50.1749 101.857 50.9073 101.307 51.4477 100.662C51.988 100.018 52.2582 99.3405 52.2582 98.6309V97.957H53.8793V98.6309ZM54.3676 98.6309C54.3676 99.3405 54.6345 100.018 55.1684 100.662C55.7087 101.307 56.4412 101.857 57.3656 102.312C58.2966 102.768 59.309 103.074 60.4027 103.23L59.7289 104.686C58.4398 104.484 57.2647 104.103 56.2035 103.543C55.1488 102.983 54.309 102.277 53.684 101.424C53.0655 100.571 52.7563 99.64 52.7563 98.6309V97.957H54.3676V98.6309ZM54.1918 113.66H52.3656V107.049H54.1918V113.66ZM61.2914 107.537H45.3344V106.023H61.2914V107.537ZM59.7973 98.6797H46.809V97.1953H59.7973V98.6797ZM75.2176 99.3438H63.8992V97.8398H75.2176V99.3438ZM78.1766 111.287H62.2195V109.764H78.1766V111.287ZM70.1199 110.555H68.2938V103.592H70.1199V110.555ZM76.3797 99.5586C76.3797 100.594 76.3667 101.463 76.3406 102.166C76.3146 102.863 76.256 103.689 76.1648 104.646C76.0737 105.597 75.9272 106.626 75.7254 107.732L73.8406 107.527C74.0555 106.479 74.2117 105.49 74.3094 104.559C74.407 103.628 74.4656 102.804 74.4852 102.088C74.5112 101.365 74.5242 100.522 74.5242 99.5586V97.8398H76.3797V99.5586ZM92.152 98.6406C92.152 99.8646 91.8232 101.014 91.1656 102.088C90.5146 103.156 89.6455 104.061 88.5582 104.803C87.471 105.545 86.2828 106.059 84.9938 106.346L84.1637 104.793C85.277 104.572 86.3219 104.155 87.2984 103.543C88.275 102.931 89.0563 102.192 89.6422 101.326C90.2281 100.46 90.5211 99.5651 90.5211 98.6406V97.332H92.152V98.6406ZM92.4742 98.6406C92.4742 99.5586 92.7705 100.454 93.3629 101.326C93.9553 102.199 94.7431 102.944 95.7262 103.562C96.7093 104.174 97.7542 104.585 98.8609 104.793L98.0309 106.346C96.7548 106.059 95.5732 105.548 94.4859 104.812C93.3987 104.077 92.5263 103.172 91.8688 102.098C91.2112 101.023 90.8824 99.8711 90.8824 98.6406V97.332H92.4742V98.6406ZM99.6031 111.355H83.5875V109.822H99.6031V111.355ZM114.682 106.971H102.475V105.477H114.682V106.971ZM116.488 111.453H100.473V109.93H116.488V111.453ZM114.506 99.1289H104.369V105.906H102.475V97.5859H114.506V99.1289ZM114.115 102.938H103.793V101.473H114.115V102.938ZM119.106 107.869C120.375 107.869 121.498 107.84 122.475 107.781C123.458 107.716 124.493 107.586 125.58 107.391L125.727 108.914C124.633 109.109 123.598 109.24 122.621 109.305C121.651 109.363 120.48 109.399 119.106 109.412H117.914V107.869H119.106ZM124.135 104.275H119.702V108.504H117.914V102.771H122.368V99.5391H117.885V98.0352H124.135V104.275ZM132.377 113.65H130.62V96.1504H132.377V113.65ZM127.817 103.855H124.946V102.352H127.817V103.855ZM128.784 112.752H127.036V96.5508H128.784V112.752ZM142.807 98.6406C142.807 99.8646 142.479 101.014 141.821 102.088C141.17 103.156 140.301 104.061 139.214 104.803C138.126 105.545 136.938 106.059 135.649 106.346L134.819 104.793C135.932 104.572 136.977 104.155 137.954 103.543C138.93 102.931 139.712 102.192 140.298 101.326C140.884 100.46 141.177 99.5651 141.177 98.6406V97.332H142.807V98.6406ZM143.13 98.6406C143.13 99.5586 143.426 100.454 144.018 101.326C144.611 102.199 145.399 102.944 146.382 103.562C147.365 104.174 148.41 104.585 149.516 104.793L148.686 106.346C147.41 106.059 146.229 105.548 145.141 104.812C144.054 104.077 143.182 103.172 142.524 102.098C141.867 101.023 141.538 99.8711 141.538 98.6406V97.332H143.13V98.6406ZM150.259 111.355H134.243V109.822H150.259V111.355ZM167.124 105.613H151.109V104.188H167.124V105.613ZM165.152 110.691H154.878V112.586H153.023V109.461H163.316V108.172H153.003V106.824H165.152V110.691ZM165.698 113.445H153.023V112.137H165.698V113.445ZM165.103 100.398H155.005V102.166H153.169V99.168H163.247V97.918H153.12V96.6094H165.103V100.398ZM165.415 103.035H153.169V101.736H165.415V103.035ZM178.785 106.033H176.92V103.367H178.785V106.033ZM177.809 96.9414C178.661 96.9414 179.417 97.0879 180.074 97.3809C180.732 97.6738 181.246 98.084 181.617 98.6113C181.995 99.1322 182.184 99.7409 182.184 100.438C182.184 101.108 181.995 101.707 181.617 102.234C181.246 102.762 180.732 103.172 180.074 103.465C179.417 103.758 178.661 103.904 177.809 103.904C176.969 103.904 176.214 103.758 175.543 103.465C174.879 103.172 174.365 102.762 174 102.234C173.635 101.707 173.453 101.108 173.453 100.438C173.453 99.7539 173.635 99.1484 174 98.6211C174.365 98.0872 174.879 97.6738 175.543 97.3809C176.214 97.0879 176.969 96.9414 177.809 96.9414ZM177.809 98.3672C177.301 98.3672 176.848 98.4518 176.451 98.6211C176.054 98.7904 175.745 99.0312 175.523 99.3438C175.302 99.6562 175.191 100.021 175.191 100.438C175.191 100.841 175.302 101.196 175.523 101.502C175.745 101.808 176.054 102.049 176.451 102.225C176.855 102.394 177.307 102.482 177.809 102.488C178.323 102.482 178.779 102.394 179.176 102.225C179.573 102.049 179.882 101.808 180.104 101.502C180.325 101.196 180.436 100.841 180.436 100.438C180.436 100.021 180.325 99.6562 180.104 99.3438C179.889 99.0247 179.579 98.7839 179.176 98.6211C178.779 98.4518 178.323 98.3672 177.809 98.3672ZM186.275 109.549H184.41V96.1699H186.275V109.549ZM188.766 103.514H185.543V101.951H188.766V103.514ZM186.891 113.279H174.938V111.756H186.891V113.279ZM176.812 112.439H174.938V108.387H176.812V112.439ZM172.467 105.535C174.42 105.548 176.321 105.516 178.17 105.438C180.019 105.359 181.741 105.2 183.336 104.959L183.473 106.326C181.852 106.613 180.156 106.805 178.385 106.902C176.62 106.993 174.719 107.039 172.682 107.039L172.467 105.535ZM195.68 109.412H193.815V106.551H195.68V109.412ZM203.102 113.65H201.237V96.1504H203.102V113.65ZM205.729 105.047H202.506V103.504H205.729V105.047ZM189.166 108.895C191.354 108.895 193.346 108.865 195.143 108.807C196.94 108.742 198.639 108.592 200.241 108.357L200.358 109.744C199.192 109.946 197.978 110.099 196.715 110.203C195.452 110.301 194.258 110.366 193.131 110.398C192.005 110.431 190.778 110.447 189.45 110.447L189.166 108.895ZM199.987 99.7148H189.489V98.2305H199.987V99.7148ZM194.762 100.633C195.582 100.633 196.308 100.77 196.94 101.043C197.571 101.31 198.066 101.688 198.424 102.176C198.789 102.664 198.971 103.237 198.971 103.895C198.971 104.533 198.789 105.096 198.424 105.584C198.066 106.066 197.571 106.443 196.94 106.717C196.308 106.99 195.582 107.127 194.762 107.127C193.942 107.127 193.213 106.99 192.575 106.717C191.937 106.443 191.442 106.066 191.09 105.584C190.745 105.096 190.573 104.533 190.573 103.895C190.573 103.237 190.745 102.664 191.09 102.176C191.442 101.688 191.937 101.31 192.575 101.043C193.213 100.77 193.942 100.633 194.762 100.633ZM194.762 102.049C194.28 102.049 193.854 102.127 193.483 102.283C193.118 102.433 192.832 102.648 192.623 102.928C192.415 103.201 192.311 103.523 192.311 103.895C192.311 104.253 192.412 104.572 192.614 104.852C192.816 105.125 193.102 105.333 193.473 105.477C193.851 105.613 194.28 105.682 194.762 105.682C195.244 105.682 195.667 105.613 196.032 105.477C196.403 105.333 196.689 105.125 196.891 104.852C197.093 104.572 197.194 104.253 197.194 103.895C197.194 103.523 197.093 103.201 196.891 102.928C196.689 102.648 196.403 102.433 196.032 102.283C195.667 102.127 195.244 102.049 194.762 102.049ZM195.68 99.2461H193.815V96.209H195.68V99.2461ZM219.899 113.65H218.063V96.1504H219.899V113.65ZM222.721 104.783H219.479V103.25H222.721V104.783ZM216.54 100.408H206.169V98.8945H216.54V100.408ZM211.432 101.707C212.266 101.707 213.011 101.88 213.669 102.225C214.333 102.57 214.85 103.051 215.221 103.67C215.599 104.288 215.788 104.988 215.788 105.77C215.788 106.557 215.599 107.26 215.221 107.879C214.85 108.497 214.333 108.979 213.669 109.324C213.011 109.669 212.266 109.842 211.432 109.842C210.593 109.842 209.844 109.669 209.186 109.324C208.529 108.979 208.011 108.497 207.634 107.879C207.263 107.26 207.077 106.557 207.077 105.77C207.077 104.988 207.263 104.288 207.634 103.67C208.011 103.051 208.529 102.57 209.186 102.225C209.844 101.88 210.593 101.707 211.432 101.707ZM211.432 103.24C210.938 103.24 210.495 103.348 210.104 103.562C209.714 103.771 209.404 104.067 209.177 104.451C208.955 104.835 208.845 105.275 208.845 105.77C208.845 106.271 208.955 106.71 209.177 107.088C209.404 107.465 209.714 107.762 210.104 107.977C210.495 108.185 210.938 108.289 211.432 108.289C211.927 108.289 212.37 108.185 212.761 107.977C213.151 107.762 213.457 107.465 213.679 107.088C213.9 106.71 214.011 106.271 214.011 105.77C214.011 105.275 213.9 104.835 213.679 104.451C213.457 104.067 213.151 103.771 212.761 103.562C212.37 103.348 211.927 103.24 211.432 103.24ZM212.341 99.5391H210.495V96.3848H212.341V99.5391ZM237.331 102.752H225.251V101.287H237.331V102.752ZM239.148 106.453H223.132V104.969H239.148V106.453ZM227.097 102.029H225.251V96.7949H227.097V102.029ZM237.429 113.24H225.134V111.717H237.429V113.24ZM226.989 112.156H225.134V108.123H226.989V112.156ZM259.559 113.65H257.781V96.1504H259.559V113.65ZM254.979 104.285H250.604V102.742H254.979V104.285ZM255.936 112.791H254.188V96.541H255.936V112.791ZM246.297 108.006C247.716 108.006 248.885 107.97 249.803 107.898C250.721 107.827 251.652 107.69 252.596 107.488L252.771 109.041C251.821 109.236 250.874 109.367 249.93 109.432C248.986 109.497 247.775 109.536 246.297 109.549H245.154V108.006H246.297ZM251.785 99.7637H246.961V108.621H245.154V98.2598H251.785V99.7637ZM280.067 105.73H267.88V104.236H280.067V105.73ZM281.903 111.521H265.888V109.988H281.903V111.521ZM274.764 110.555H272.948V104.9H274.764V110.555ZM279.901 99.0117H269.745V104.92H267.88V97.5273H279.901V99.0117ZM291.65 108.094H289.823V105.135H291.65V108.094ZM290.751 96.4531C292.021 96.4531 293.124 96.5866 294.062 96.8535C295.006 97.1204 295.728 97.5013 296.23 97.9961C296.738 98.4909 296.991 99.0898 296.991 99.793C296.991 100.464 296.738 101.049 296.23 101.551C295.728 102.046 295.006 102.423 294.062 102.684C293.124 102.944 292.021 103.074 290.751 103.074C289.482 103.074 288.375 102.944 287.431 102.684C286.493 102.423 285.767 102.046 285.253 101.551C284.739 101.049 284.482 100.464 284.482 99.793C284.482 99.0964 284.739 98.5007 285.253 98.0059C285.767 97.5046 286.493 97.1204 287.431 96.8535C288.375 96.5866 289.482 96.4531 290.751 96.4531ZM290.751 97.8984C289.846 97.8984 289.068 97.9733 288.417 98.123C287.773 98.2663 287.275 98.4811 286.923 98.7676C286.578 99.0475 286.405 99.3893 286.405 99.793C286.405 100.177 286.578 100.506 286.923 100.779C287.275 101.053 287.773 101.264 288.417 101.414C289.068 101.557 289.846 101.629 290.751 101.629C291.637 101.629 292.405 101.557 293.056 101.414C293.713 101.264 294.215 101.053 294.56 100.779C294.911 100.506 295.087 100.177 295.087 99.793C295.087 99.3893 294.911 99.0475 294.56 98.7676C294.215 98.4811 293.713 98.2663 293.056 98.123C292.405 97.9733 291.637 97.8984 290.751 97.8984ZM296.786 113.436H284.687V107.605H296.786V113.436ZM286.523 111.932H294.97V109.09H286.523V111.932ZM298.73 105.77H282.773V104.256H298.73V105.77ZM314.16 113.699H312.295V96.1504H314.16V113.699ZM304.785 97.4688C305.657 97.4688 306.435 97.7227 307.119 98.2305C307.802 98.7383 308.336 99.4544 308.72 100.379C309.104 101.303 309.296 102.381 309.296 103.611C309.296 104.848 309.104 105.929 308.72 106.854C308.336 107.778 307.802 108.494 307.119 109.002C306.435 109.503 305.657 109.754 304.785 109.754C303.912 109.754 303.131 109.503 302.441 109.002C301.757 108.494 301.224 107.778 300.839 106.854C300.455 105.929 300.263 104.848 300.263 103.611C300.263 102.381 300.455 101.303 300.839 100.379C301.224 99.4544 301.757 98.7383 302.441 98.2305C303.131 97.7227 303.912 97.4688 304.785 97.4688ZM304.785 99.1289C304.251 99.1289 303.776 99.3112 303.359 99.6758C302.942 100.04 302.62 100.561 302.392 101.238C302.171 101.909 302.06 102.7 302.06 103.611C302.06 104.516 302.171 105.307 302.392 105.984C302.62 106.661 302.942 107.182 303.359 107.547C303.776 107.905 304.251 108.084 304.785 108.084C305.319 108.084 305.791 107.905 306.201 107.547C306.617 107.182 306.94 106.661 307.168 105.984C307.395 105.307 307.509 104.516 307.509 103.611C307.509 102.7 307.395 101.909 307.168 101.238C306.94 100.561 306.621 100.04 306.211 99.6758C305.8 99.3112 305.325 99.1289 304.785 99.1289ZM327.803 104.959H325.938V102.068H327.803V104.959ZM335.567 106.258H333.702V96.1699H335.567V106.258ZM321.075 104.402C323.21 104.402 325.212 104.367 327.08 104.295C328.955 104.223 330.717 104.083 332.364 103.875L332.471 105.184C331.306 105.379 330.079 105.529 328.789 105.633C327.5 105.737 326.283 105.805 325.137 105.838C323.991 105.87 322.725 105.89 321.338 105.896L321.075 104.402ZM331.143 102.635H322.637V101.16H331.143V102.635ZM330.996 98.5137H324.493V101.688H322.637V97.0098H330.996V98.5137ZM325.743 108.709H333.741V107.01H335.567V113.436H323.897V107.01H325.743V108.709ZM333.741 111.932V110.115H325.743V111.932H333.741ZM352.432 113.65H350.596V96.1504H352.432V113.65ZM340.811 108.709H338.985V97.8594H340.811V108.709ZM340.45 107.615C341.856 107.615 343.259 107.553 344.659 107.43C346.065 107.299 347.471 107.088 348.878 106.795L349.122 108.357C347.651 108.657 346.205 108.875 344.786 109.012C343.373 109.142 341.928 109.207 340.45 109.207H338.985V107.615H340.45ZM368.429 113.699H366.583V96.1504H368.429V113.699ZM371.251 104.471H368.009V102.938H371.251V104.471ZM356.954 107.811C358.608 107.811 360.053 107.768 361.29 107.684C362.527 107.592 363.774 107.433 365.03 107.205L365.255 108.787C363.979 109.015 362.716 109.168 361.466 109.246C360.223 109.318 358.719 109.354 356.954 109.354H355.538V107.811H356.954ZM363.722 99.3535H357.384V108.533H355.538V97.8301H363.722V99.3535ZM373.673 112.137C373.426 112.137 373.195 112.072 372.98 111.941C372.765 111.811 372.596 111.642 372.472 111.434C372.355 111.219 372.296 110.988 372.296 110.74C372.296 110.499 372.355 110.271 372.472 110.057C372.596 109.842 372.765 109.676 372.98 109.559C373.195 109.435 373.426 109.373 373.673 109.373C373.914 109.373 374.142 109.435 374.357 109.559C374.572 109.676 374.741 109.842 374.865 110.057C374.989 110.271 375.05 110.499 375.05 110.74C375.05 110.988 374.989 111.219 374.865 111.434C374.741 111.642 374.572 111.811 374.357 111.941C374.142 112.072 373.914 112.137 373.673 112.137Z" fill="white"/>
</svg>
