<svg width="366" height="178" viewBox="0 0 366 178" fill="none" xmlns="http://www.w3.org/2000/svg">
<path d="M3.14453 12.3672C2.79297 12.3672 2.46419 12.276 2.1582 12.0938C1.85221 11.9115 1.60807 11.6673 1.42578 11.3613C1.24349 11.0553 1.15234 10.7201 1.15234 10.3555C1.15234 9.99089 1.24349 9.6556 1.42578 9.34961C1.60807 9.04362 1.85221 8.80273 2.1582 8.62695C2.46419 8.45117 2.79297 8.36328 3.14453 8.36328C3.50911 8.36328 3.84766 8.45117 4.16016 8.62695C4.47266 8.80273 4.7168 9.04362 4.89258 9.34961C5.06836 9.6556 5.15625 9.99089 5.15625 10.3555C5.15625 10.7201 5.06836 11.0553 4.89258 11.3613C4.7168 11.6673 4.47266 11.9115 4.16016 12.0938C3.84766 12.276 3.50911 12.3672 3.14453 12.3672ZM32.5 13.2461H30.9766V0.238281H32.5V13.2461ZM35.1172 7.25H32.0117V5.96094H35.1172V7.25ZM29.3164 3.61719H18.9648V2.36719H29.3164V3.61719ZM24.1406 4.57422C24.9609 4.57422 25.6868 4.70768 26.3184 4.97461C26.9499 5.24154 27.4414 5.61914 27.793 6.10742C28.1445 6.5957 28.3203 7.16536 28.3203 7.81641C28.3203 8.45443 28.1445 9.01432 27.793 9.49609C27.4414 9.97786 26.9499 10.3522 26.3184 10.6191C25.6868 10.8861 24.9609 11.0195 24.1406 11.0195C23.3203 11.0195 22.5911 10.8861 21.9531 10.6191C21.3151 10.3522 20.8236 9.97786 20.4785 9.49609C20.1335 9.01432 19.9609 8.45443 19.9609 7.81641C19.9609 7.16536 20.1335 6.5957 20.4785 6.10742C20.8236 5.61914 21.3151 5.24154 21.9531 4.97461C22.5911 4.70768 23.3203 4.57422 24.1406 4.57422ZM24.1406 5.78516C23.6068 5.78516 23.1315 5.86654 22.7148 6.0293C22.2982 6.19206 21.9792 6.42969 21.7578 6.74219C21.5365 7.05469 21.4258 7.41276 21.4258 7.81641C21.4258 8.22005 21.5365 8.57161 21.7578 8.87109C21.9792 9.17057 22.2982 9.40169 22.7148 9.56445C23.1315 9.72721 23.6068 9.80859 24.1406 9.80859C24.6745 9.80859 25.1497 9.72721 25.5664 9.56445C25.9831 9.40169 26.3053 9.17057 26.5332 8.87109C26.7611 8.57161 26.875 8.22005 26.875 7.81641C26.875 7.41276 26.7611 7.05469 26.5332 6.74219C26.3053 6.42969 25.9831 6.19206 25.5664 6.0293C25.1497 5.86654 24.6745 5.78516 24.1406 5.78516ZM24.9023 3.01172H23.3789V0.238281H24.9023V3.01172ZM33.3008 17.2109H21.6406V15.9219H33.3008V17.2109ZM23.1445 16.4492H21.6406V12.2109H23.1445V16.4492ZM51.9633 4.16406H48.9359V2.91406H51.9633V4.16406ZM51.9633 7.91406H48.9359V6.60547H51.9633V7.91406ZM49.3852 10.5508H47.8617V0.21875H49.3852V10.5508ZM49.3852 17.582H47.8617V12.6211H38.018V11.3516H49.3852V17.582ZM40.6937 1.27344C41.5661 1.26042 42.3474 1.42643 43.0375 1.77148C43.7276 2.11654 44.2712 2.60156 44.6684 3.22656C45.0655 3.85156 45.2641 4.5612 45.2641 5.35547C45.2641 6.14974 45.0655 6.85938 44.6684 7.48438C44.2712 8.10938 43.7276 8.59766 43.0375 8.94922C42.3474 9.30078 41.5661 9.47656 40.6937 9.47656C39.8214 9.47656 39.0401 9.30078 38.35 8.94922C37.6599 8.59766 37.1195 8.10938 36.7289 7.48438C36.3383 6.85938 36.143 6.14974 36.143 5.35547C36.143 4.5612 36.3383 3.85482 36.7289 3.23633C37.1195 2.61784 37.6599 2.13281 38.35 1.78125C39.0401 1.42969 39.8214 1.26042 40.6937 1.27344ZM40.6937 2.58203C40.1208 2.58203 39.6 2.69922 39.1312 2.93359C38.6625 3.16797 38.2979 3.49349 38.0375 3.91016C37.7771 4.32682 37.6469 4.80859 37.6469 5.35547C37.6469 5.90234 37.7771 6.38737 38.0375 6.81055C38.2979 7.23372 38.6625 7.5625 39.1312 7.79688C39.6 8.03125 40.1208 8.14844 40.6937 8.14844C41.2797 8.14844 41.807 8.03125 42.2758 7.79688C42.7445 7.5625 43.1091 7.23372 43.3695 6.81055C43.6299 6.38737 43.7602 5.90234 43.7602 5.35547C43.7602 4.80859 43.6299 4.32682 43.3695 3.91016C43.1091 3.49349 42.7445 3.16797 42.2758 2.93359C41.807 2.69922 41.2797 2.58203 40.6937 2.58203ZM68.5164 10.6289H52.6961V9.37891H68.5164V10.6289ZM66.7586 17.2109H54.7469V15.9219H66.7586V17.2109ZM56.2898 16.3125H54.7469V12.1523H56.2898V16.3125ZM60.6062 0.84375C61.8432 0.830729 62.924 0.960938 63.8484 1.23438C64.7729 1.50781 65.4858 1.90495 65.9871 2.42578C66.4884 2.94661 66.7391 3.5651 66.7391 4.28125C66.7391 4.9974 66.4884 5.61263 65.9871 6.12695C65.4858 6.64128 64.7729 7.03841 63.8484 7.31836C62.924 7.59831 61.8432 7.73828 60.6062 7.73828C59.3562 7.73828 58.269 7.59831 57.3445 7.31836C56.42 7.03841 55.7072 6.64128 55.2059 6.12695C54.7046 5.61263 54.4539 4.9974 54.4539 4.28125C54.4539 3.5651 54.7046 2.94661 55.2059 2.42578C55.7072 1.90495 56.42 1.50781 57.3445 1.23438C58.269 0.960938 59.3562 0.830729 60.6062 0.84375ZM60.6062 2.07422C59.6818 2.07422 58.8745 2.16211 58.1844 2.33789C57.4943 2.51367 56.9637 2.76758 56.5926 3.09961C56.2215 3.43164 56.0359 3.82552 56.0359 4.28125C56.0359 4.72396 56.2215 5.11133 56.5926 5.44336C56.9637 5.77539 57.4943 6.03255 58.1844 6.21484C58.8745 6.39714 59.6818 6.48828 60.6062 6.48828C61.5307 6.48828 62.338 6.39714 63.0281 6.21484C63.7182 6.03255 64.2488 5.77539 64.6199 5.44336C64.991 5.11133 65.1766 4.72396 65.1766 4.28125C65.1766 3.82552 64.991 3.43164 64.6199 3.09961C64.2488 2.76758 63.7182 2.51367 63.0281 2.33789C62.338 2.16211 61.5307 2.07422 60.6062 2.07422ZM89.025 17.582H87.5211V0.21875H89.025V17.582ZM88.0875 8.5H84.6695V7.23047H88.0875V8.5ZM81.6813 2.48438C81.6813 4.04688 81.4729 5.51497 81.0563 6.88867C80.6396 8.26237 79.9462 9.54492 78.9762 10.7363C78.0061 11.9277 76.7203 12.9661 75.1188 13.8516L74.2203 12.7773C75.6526 11.9831 76.8115 11.0651 77.6969 10.0234C78.5823 8.98177 79.2236 7.85547 79.6207 6.64453C80.0178 5.43359 80.2164 4.13151 80.2164 2.73828V2.48438H81.6813ZM80.7242 3.75391H74.8844V2.48438H80.7242V3.75391ZM85.1188 16.7227H83.6539V0.6875H85.1188V16.7227ZM105.422 12.9336H103.898V0.238281H105.422V12.9336ZM105.969 17.2109H94.2109V15.9219H105.969V17.2109ZM95.7344 16.3516H94.2109V11.6445H95.7344V16.3516ZM96.0469 1.44922C96.9062 1.44922 97.6842 1.62826 98.3809 1.98633C99.0775 2.3444 99.6211 2.84896 100.012 3.5C100.402 4.15104 100.598 4.88672 100.598 5.70703C100.598 6.54036 100.402 7.2793 100.012 7.92383C99.6211 8.56836 99.0775 9.07292 98.3809 9.4375C97.6842 9.80208 96.9062 9.98438 96.0469 9.98438C95.1875 9.98438 94.4128 9.80208 93.7227 9.4375C93.0326 9.07292 92.4889 8.56836 92.0918 7.92383C91.6947 7.2793 91.4961 6.54036 91.4961 5.70703C91.4961 4.88672 91.6947 4.15104 92.0918 3.5C92.4889 2.84896 93.0326 2.3444 93.7227 1.98633C94.4128 1.62826 95.1875 1.44922 96.0469 1.44922ZM96.0469 2.79688C95.474 2.79688 94.9531 2.92057 94.4844 3.16797C94.0156 3.41536 93.651 3.76042 93.3906 4.20312C93.1302 4.64583 93 5.14714 93 5.70703C93 6.26693 93.1302 6.77148 93.3906 7.2207C93.651 7.66992 94.0156 8.01823 94.4844 8.26562C94.9531 8.51302 95.474 8.63672 96.0469 8.63672C96.6198 8.63672 97.1374 8.51302 97.5996 8.26562C98.0618 8.01823 98.4264 7.66992 98.6934 7.2207C98.9603 6.77148 99.0938 6.26693 99.0938 5.70703C99.0938 5.14714 98.9603 4.64583 98.6934 4.20312C98.4264 3.76042 98.0618 3.41536 97.5996 3.16797C97.1374 2.92057 96.6198 2.79688 96.0469 2.79688ZM121.233 3.91016H116.233V2.71875H121.233V3.91016ZM121.233 7.07422H116.233V5.86328H121.233V7.07422ZM122.346 9.30078H120.823V0.21875H122.346V9.30078ZM122.346 14.2227H112.659V16.957H111.135V13.0508H120.823V11.3711H111.096V10.1406H122.346V14.2227ZM123.01 17.3477H111.135V16.1172H123.01V17.3477ZM110.373 3.53906H115.217V1.03906H116.721V8.59766H108.85V1.03906H110.373V3.53906ZM115.217 7.34766V4.75H110.373V7.34766H115.217ZM139.964 8.38281H136.624V7.07422H139.964V8.38281ZM134.3 5.57031C134.3 6.72917 134.137 7.85872 133.812 8.95898C133.486 10.0592 133.021 11.0521 132.415 11.9375C131.81 12.8229 131.09 13.5195 130.257 14.0273L129.339 12.8555C130.107 12.4128 130.775 11.804 131.341 11.0293C131.907 10.2546 132.344 9.39193 132.65 8.44141C132.956 7.49089 133.109 6.53385 133.109 5.57031V4.65234H134.3V5.57031ZM134.554 5.57031C134.554 6.49479 134.707 7.40951 135.013 8.31445C135.319 9.2194 135.758 10.0365 136.331 10.7656C136.904 11.4948 137.575 12.0677 138.343 12.4844L137.464 13.6367C136.631 13.181 135.905 12.5332 135.286 11.6934C134.668 10.8535 134.196 9.90299 133.87 8.8418C133.545 7.7806 133.382 6.6901 133.382 5.57031V4.65234H134.554V5.57031ZM137.816 4.71094H129.808V3.44141H137.816V4.71094ZM134.573 4.39844H133.109V0.863281H134.573V4.39844ZM144.32 17.582H142.855V0.21875H144.32V17.582ZM140.804 16.6836H139.359V0.648438H140.804V16.6836ZM160.677 9.24219H159.173V0.21875H160.677V9.24219ZM160.697 14.2227H150.951V16.7227H149.447V13.0703H159.173V11.293H149.408V10.082H160.697V14.2227ZM161.322 17.3867H149.447V16.1562H161.322V17.3867ZM152.318 2.67969C152.318 3.68229 152.11 4.62305 151.693 5.50195C151.276 6.38086 150.69 7.14583 149.935 7.79688C149.18 8.44792 148.314 8.9362 147.337 9.26172L146.615 8.05078C147.487 7.76432 148.259 7.34766 148.929 6.80078C149.6 6.25391 150.124 5.62565 150.502 4.91602C150.879 4.20638 151.068 3.46094 151.068 2.67969V1.74219H152.318V2.67969ZM152.611 2.67969C152.611 3.42188 152.8 4.12826 153.177 4.79883C153.555 5.4694 154.082 6.05534 154.759 6.55664C155.436 7.05794 156.211 7.4388 157.084 7.69922L156.322 8.89062C155.358 8.57812 154.502 8.11914 153.754 7.51367C153.005 6.9082 152.422 6.1888 152.005 5.35547C151.589 4.52214 151.38 3.63021 151.38 2.67969V1.74219H152.611V2.67969ZM156.615 2.48438H147.005V1.21484H156.615V2.48438ZM171.977 3.40234H164.047V2.15234H171.977V3.40234ZM168.324 12.9922H166.82V7.11328H168.324V12.9922ZM172.875 3.05078C172.862 3.87109 172.849 4.55143 172.836 5.0918C172.823 5.63216 172.781 6.32878 172.709 7.18164C172.637 8.03451 172.523 8.95573 172.367 9.94531L170.824 9.80859C171.046 8.42839 171.186 7.2207 171.244 6.18555C171.303 5.15039 171.332 4.10547 171.332 3.05078V2.15234H172.875V3.05078ZM176.645 17.582H175.121V0.21875H176.645V17.582ZM179.457 8.8125H176.234V7.48438H179.457V8.8125ZM163.07 12.4844C165.18 12.4714 167.136 12.429 168.939 12.3574C170.743 12.2858 172.439 12.1589 174.027 11.9766L174.105 13.1289C172.465 13.3763 170.727 13.5456 168.891 13.6367C167.055 13.7279 165.18 13.7669 163.266 13.7539L163.07 12.4844ZM200.571 9.75H184.751V8.48047H200.571V9.75ZM192.661 11.2734C193.898 11.2734 194.966 11.3971 195.864 11.6445C196.762 11.8919 197.449 12.25 197.925 12.7188C198.4 13.1875 198.637 13.7539 198.637 14.418C198.637 15.082 198.4 15.6484 197.925 16.1172C197.449 16.5859 196.766 16.9408 195.874 17.1816C194.982 17.4225 193.911 17.543 192.661 17.543C191.411 17.543 190.337 17.4225 189.438 17.1816C188.54 16.9408 187.853 16.5859 187.378 16.1172C186.902 15.6484 186.665 15.082 186.665 14.418C186.665 13.7539 186.906 13.1875 187.387 12.7188C187.869 12.25 188.559 11.8919 189.458 11.6445C190.356 11.3971 191.424 11.2734 192.661 11.2734ZM192.661 12.4844C191.736 12.4844 190.939 12.5592 190.268 12.709C189.598 12.8587 189.09 13.0801 188.745 13.373C188.4 13.666 188.227 14.0143 188.227 14.418C188.227 14.8086 188.403 15.1471 188.755 15.4336C189.106 15.7201 189.614 15.9382 190.278 16.0879C190.942 16.2376 191.736 16.3125 192.661 16.3125C193.585 16.3125 194.38 16.2376 195.044 16.0879C195.708 15.9382 196.216 15.7201 196.567 15.4336C196.919 15.1471 197.095 14.8086 197.095 14.418C197.095 14.0143 196.919 13.666 196.567 13.373C196.216 13.0801 195.708 12.8587 195.044 12.709C194.38 12.5592 193.585 12.4844 192.661 12.4844ZM193.032 2.30859C193.032 3.20703 192.72 4.01758 192.095 4.74023C191.47 5.46289 190.636 6.05534 189.595 6.51758C188.553 6.97982 187.42 7.28906 186.196 7.44531L185.649 6.21484C186.691 6.09766 187.674 5.85352 188.598 5.48242C189.523 5.11133 190.265 4.64909 190.825 4.0957C191.385 3.54232 191.665 2.94661 191.665 2.30859V1.78125H193.032V2.30859ZM193.657 2.30859C193.657 2.94661 193.937 3.54232 194.497 4.0957C195.057 4.64909 195.799 5.11133 196.723 5.48242C197.648 5.85352 198.637 6.09766 199.692 6.21484L199.126 7.44531C197.915 7.28906 196.789 6.97982 195.747 6.51758C194.705 6.05534 193.869 5.46289 193.237 4.74023C192.606 4.01758 192.29 3.20703 192.29 2.30859V1.78125H193.657V2.30859ZM199.165 2.38672H186.196V1.11719H199.165V2.38672ZM207.202 2.91406C207.202 4.00781 207.001 5.0332 206.597 5.99023C206.193 6.94727 205.633 7.7806 204.917 8.49023C204.201 9.19987 203.361 9.74349 202.398 10.1211L201.577 8.89062C202.437 8.5651 203.195 8.10286 203.853 7.50391C204.51 6.90495 205.021 6.20833 205.386 5.41406C205.751 4.61979 205.933 3.78646 205.933 2.91406V1.11719H207.202V2.91406ZM207.437 3.03125C207.437 3.79948 207.622 4.54492 207.993 5.26758C208.364 5.99023 208.876 6.625 209.527 7.17188C210.178 7.71875 210.92 8.13542 211.753 8.42188L210.913 9.63281C209.989 9.29427 209.168 8.79622 208.452 8.13867C207.736 7.48112 207.18 6.71289 206.782 5.83398C206.385 4.95508 206.187 4.02083 206.187 3.03125V1.11719H207.437V3.03125ZM215.21 10.7852H213.687V0.21875H215.21V10.7852ZM217.827 6.03906H214.78V4.75H217.827V6.03906ZM209.644 11.2344C210.829 11.2344 211.851 11.3581 212.71 11.6055C213.57 11.8529 214.227 12.2109 214.683 12.6797C215.139 13.1484 215.366 13.7148 215.366 14.3789C215.366 15.043 215.139 15.6126 214.683 16.0879C214.227 16.5632 213.573 16.9245 212.72 17.1719C211.867 17.4193 210.842 17.543 209.644 17.543C208.459 17.543 207.433 17.4193 206.568 17.1719C205.702 16.9245 205.038 16.5632 204.575 16.0879C204.113 15.6126 203.882 15.043 203.882 14.3789C203.882 13.7148 204.113 13.1484 204.575 12.6797C205.038 12.2109 205.702 11.8529 206.568 11.6055C207.433 11.3581 208.459 11.2344 209.644 11.2344ZM209.644 12.4648C208.784 12.4648 208.036 12.5397 207.398 12.6895C206.76 12.8392 206.271 13.0605 205.933 13.3535C205.594 13.6465 205.425 13.9883 205.425 14.3789C205.425 14.7826 205.594 15.1309 205.933 15.4238C206.271 15.7168 206.756 15.9382 207.388 16.0879C208.019 16.2376 208.771 16.319 209.644 16.332C210.529 16.319 211.288 16.2376 211.919 16.0879C212.551 15.9382 213.036 15.7168 213.374 15.4238C213.713 15.1309 213.882 14.7826 213.882 14.3789C213.882 13.9753 213.713 13.6302 213.374 13.3438C213.036 13.0573 212.547 12.8392 211.909 12.6895C211.271 12.5397 210.516 12.4648 209.644 12.4648ZM228.97 8.26562H225.63V6.99609H228.97V8.26562ZM233.404 17.582H231.92V0.21875H233.404V17.582ZM229.908 16.7031H228.443V0.589844H229.908V16.7031ZM222.466 1.68359C223.222 1.68359 223.879 1.92773 224.439 2.41602C224.999 2.9043 225.435 3.60417 225.748 4.51562C226.06 5.42708 226.216 6.49479 226.216 7.71875C226.216 8.92969 226.06 9.99089 225.748 10.9023C225.435 11.8138 224.999 12.5169 224.439 13.0117C223.879 13.5065 223.222 13.7539 222.466 13.7539C221.724 13.7539 221.07 13.5065 220.504 13.0117C219.937 12.5169 219.501 11.8138 219.195 10.9023C218.889 9.99089 218.736 8.92969 218.736 7.71875C218.736 6.49479 218.889 5.42708 219.195 4.51562C219.501 3.60417 219.937 2.9043 220.504 2.41602C221.07 1.92773 221.724 1.68359 222.466 1.68359ZM222.466 3.12891C221.998 3.12891 221.591 3.31445 221.246 3.68555C220.901 4.05664 220.637 4.58724 220.455 5.27734C220.272 5.96745 220.181 6.78125 220.181 7.71875C220.181 8.64323 220.272 9.45052 220.455 10.1406C220.637 10.8307 220.904 11.3613 221.255 11.7324C221.607 12.1035 222.011 12.2891 222.466 12.2891C222.935 12.2891 223.342 12.1035 223.687 11.7324C224.032 11.3613 224.299 10.8307 224.488 10.1406C224.677 9.45052 224.771 8.64323 224.771 7.71875C224.771 6.78125 224.677 5.96745 224.488 5.27734C224.299 4.58724 224.032 4.05664 223.687 3.68555C223.342 3.31445 222.935 3.12891 222.466 3.12891ZM248.795 8.83203H240.768V1.41016H248.795V8.83203ZM242.272 7.58203H247.311V2.66016H242.272V7.58203ZM253.6 10.1406H252.077V0.21875H253.6V10.1406ZM256.217 5.6875H253.17V4.39844H256.217V5.6875ZM248.678 12.2109C248.678 13.0833 248.395 13.8874 247.829 14.623C247.262 15.3587 246.497 15.9772 245.534 16.4785C244.57 16.9798 243.515 17.3216 242.37 17.5039L241.784 16.332C242.786 16.1758 243.714 15.8958 244.567 15.4922C245.42 15.0885 246.103 14.6003 246.618 14.0273C247.132 13.4544 247.389 12.849 247.389 12.2109V11.7227H248.678V12.2109ZM248.971 12.2109C248.971 12.8359 249.232 13.4349 249.752 14.0078C250.273 14.5807 250.963 15.0723 251.823 15.4824C252.682 15.8926 253.6 16.1758 254.577 16.332L254.01 17.5234C252.864 17.3281 251.806 16.9798 250.836 16.4785C249.866 15.9772 249.092 15.3555 248.512 14.6133C247.933 13.8711 247.643 13.0703 247.643 12.2109V11.7227H248.971V12.2109ZM253.913 12.4062H242.467V11.1562H253.913V12.4062ZM263.005 3.44141C263.005 4.27474 262.806 5.04297 262.409 5.74609C262.012 6.44922 261.452 7.04818 260.729 7.54297C260.007 8.03776 259.17 8.40885 258.22 8.65625L257.555 7.48438C258.363 7.28906 259.085 6.99284 259.723 6.5957C260.361 6.19857 260.856 5.72656 261.208 5.17969C261.559 4.63281 261.735 4.05339 261.735 3.44141V3.16797H263.005V3.44141ZM263.317 3.44141C263.317 4.01432 263.496 4.55469 263.854 5.0625C264.212 5.57031 264.707 6.00977 265.339 6.38086C265.97 6.75195 266.69 7.02865 267.497 7.21094L266.833 8.42188C265.895 8.1875 265.069 7.82943 264.352 7.34766C263.636 6.86589 263.08 6.28971 262.682 5.61914C262.285 4.94857 262.087 4.22266 262.087 3.44141V3.16797H263.317V3.44141ZM267.106 3.38281H257.927V2.15234H267.106V3.38281ZM263.298 2.875H261.774V0.277344H263.298V2.875ZM263.239 17.0547H261.696V10.082H263.239V17.0547ZM271.286 17.6016H269.723V0.238281H271.286V17.6016ZM256.833 9.78906C258.968 9.80208 260.996 9.77279 262.917 9.70117C264.837 9.62956 266.651 9.47005 268.356 9.22266L268.454 10.3945C266.696 10.694 264.873 10.8893 262.985 10.9805C261.097 11.0716 259.118 11.1107 257.048 11.0977L256.833 9.78906ZM270.134 13.5781H265.72V12.3477H270.134V13.5781ZM292.81 17.6211H291.267V0.21875H292.81V17.6211ZM291.736 8.48047H287.459V7.21094H291.736V8.48047ZM284.138 5.88281C284.138 7.06771 283.93 8.2168 283.513 9.33008C283.097 10.4434 282.524 11.4264 281.795 12.2793C281.065 13.1322 280.245 13.7799 279.334 14.2227L278.455 13.0312C279.301 12.6276 280.063 12.0547 280.74 11.3125C281.417 10.5703 281.948 9.72396 282.332 8.77344C282.716 7.82292 282.908 6.85938 282.908 5.88281V4.32031H284.138V5.88281ZM284.412 5.88281C284.412 6.82031 284.61 7.74154 285.007 8.64648C285.405 9.55143 285.948 10.3587 286.638 11.0684C287.328 11.778 288.097 12.3281 288.943 12.7188L288.064 13.9102C287.14 13.4805 286.306 12.8587 285.564 12.0449C284.822 11.2311 284.242 10.2871 283.826 9.21289C283.409 8.13867 283.201 7.02865 283.201 5.88281V4.32031H284.412V5.88281ZM288.357 4.49609H278.923V3.24609H288.357V4.49609ZM284.431 3.94922H282.908V0.550781H284.431V3.94922ZM303.309 11.1367C304.493 11.1367 305.516 11.2604 306.375 11.5078C307.234 11.7552 307.892 12.1198 308.348 12.6016C308.803 13.0833 309.031 13.6628 309.031 14.3398C309.031 15.0169 308.803 15.5964 308.348 16.0781C307.892 16.5599 307.238 16.9277 306.385 17.1816C305.532 17.4355 304.507 17.569 303.309 17.582C302.124 17.569 301.098 17.4355 300.232 17.1816C299.367 16.9277 298.702 16.5599 298.24 16.0781C297.778 15.5964 297.547 15.0169 297.547 14.3398C297.547 13.6628 297.778 13.0833 298.24 12.6016C298.702 12.1198 299.367 11.7552 300.232 11.5078C301.098 11.2604 302.124 11.1367 303.309 11.1367ZM303.309 12.3477C302.436 12.3477 301.684 12.429 301.053 12.5918C300.421 12.7546 299.936 12.9824 299.598 13.2754C299.259 13.5684 299.09 13.9232 299.09 14.3398C299.09 14.7435 299.259 15.0951 299.598 15.3945C299.936 15.694 300.424 15.9251 301.062 16.0879C301.701 16.2507 302.449 16.332 303.309 16.332C304.181 16.332 304.936 16.2507 305.574 16.0879C306.212 15.9251 306.701 15.694 307.039 15.3945C307.378 15.0951 307.547 14.7435 307.547 14.3398C307.547 13.9232 307.378 13.5684 307.039 13.2754C306.701 12.9824 306.215 12.7546 305.584 12.5918C304.952 12.429 304.194 12.3477 303.309 12.3477ZM308.875 10.668H307.352V0.21875H308.875V10.668ZM311.492 5.90234H308.445V4.59375H311.492V5.90234ZM297.547 3.96875H302.605V1.3125H304.129V9.32031H296.043V1.3125H297.547V3.96875ZM302.605 8.07031V5.17969H297.547V8.07031H302.605ZM325.76 10.3164H324.237V0.21875H325.76V10.3164ZM328.377 5.98047H325.096V4.67188H328.377V5.98047ZM316.307 12.9336H324.237V11.0781H325.76V17.3477H314.784V11.0781H316.307V12.9336ZM324.237 16.1172V14.1445H316.307V16.1172H324.237ZM322.577 3.28516H312.225V2.01562H322.577V3.28516ZM317.401 4.08594C318.234 4.08594 318.963 4.20964 319.588 4.45703C320.213 4.70443 320.702 5.05924 321.053 5.52148C321.405 5.98372 321.58 6.52083 321.58 7.13281C321.58 7.74479 321.405 8.27865 321.053 8.73438C320.702 9.1901 320.213 9.54492 319.588 9.79883C318.963 10.0527 318.234 10.1797 317.401 10.1797C316.567 10.1797 315.835 10.0527 315.204 9.79883C314.572 9.54492 314.084 9.1901 313.739 8.73438C313.394 8.27865 313.221 7.74479 313.221 7.13281C313.221 6.52083 313.394 5.98372 313.739 5.52148C314.084 5.05924 314.572 4.70443 315.204 4.45703C315.835 4.20964 316.567 4.08594 317.401 4.08594ZM317.401 5.27734C316.867 5.26432 316.392 5.33594 315.975 5.49219C315.558 5.64844 315.239 5.86979 315.018 6.15625C314.797 6.44271 314.686 6.76823 314.686 7.13281C314.686 7.4974 314.797 7.82292 315.018 8.10938C315.239 8.39583 315.558 8.61719 315.975 8.77344C316.392 8.92969 316.867 9.00781 317.401 9.00781C317.935 9.00781 318.41 8.92969 318.827 8.77344C319.243 8.61719 319.566 8.39583 319.793 8.10938C320.021 7.82292 320.135 7.4974 320.135 7.13281C320.135 6.75521 320.018 6.42643 319.784 6.14648C319.549 5.86654 319.227 5.64844 318.817 5.49219C318.407 5.33594 317.935 5.26432 317.401 5.27734ZM318.163 2.69922H316.639V0.0625H318.163V2.69922ZM343.388 17.582H341.864V0.21875H343.388V17.582ZM331.708 12.6797H330.204V1.9375H331.708V12.6797ZM331.61 11.7812C333.029 11.7812 334.432 11.7161 335.819 11.5859C337.206 11.4557 338.602 11.2409 340.009 10.9414L340.223 12.25C338.752 12.5495 337.317 12.7676 335.917 12.9043C334.517 13.041 333.082 13.1094 331.61 13.1094H330.204V11.7812H331.61ZM359.394 17.6211H357.87V0.21875H359.394V17.6211ZM362.304 8.38281H359.042V7.09375H362.304V8.38281ZM348.085 11.9766C349.765 11.9766 351.22 11.931 352.45 11.8398C353.681 11.7487 354.928 11.5859 356.191 11.3516L356.386 12.6797C355.11 12.9141 353.853 13.0703 352.616 13.1484C351.379 13.2266 349.869 13.2656 348.085 13.2656H346.718V11.9766H348.085ZM354.823 3.1875H348.241V12.5625H346.718V1.91797H354.823V3.1875ZM364.677 16.1172C364.456 16.1172 364.248 16.0586 364.052 15.9414C363.857 15.8242 363.704 15.668 363.593 15.4727C363.483 15.2773 363.427 15.069 363.427 14.8477C363.427 14.6263 363.483 14.418 363.593 14.2227C363.704 14.0273 363.857 13.8743 364.052 13.7637C364.248 13.653 364.456 13.5977 364.677 13.5977C364.899 13.5977 365.107 13.653 365.302 13.7637C365.498 13.8743 365.651 14.0273 365.761 14.2227C365.872 14.418 365.927 14.6263 365.927 14.8477C365.927 15.069 365.872 15.2773 365.761 15.4727C365.651 15.668 365.498 15.8242 365.302 15.9414C365.107 16.0586 364.899 16.1172 364.677 16.1172ZM73.9664 34.7773C73.9664 35.9753 73.6279 37.0951 72.9508 38.1367C72.2737 39.1784 71.398 40.0573 70.3238 40.7734C69.2496 41.4896 68.12 41.9844 66.9352 42.2578L66.232 40.9688C67.2607 40.7604 68.2698 40.3535 69.2594 39.748C70.249 39.1426 71.0562 38.4004 71.6812 37.5215C72.3062 36.6426 72.6187 35.7279 72.6187 34.7773V33.4492H73.9664V34.7773ZM74.2203 34.7773C74.2203 35.7148 74.5393 36.6263 75.1773 37.5117C75.8154 38.3971 76.6324 39.1458 77.6285 39.7578C78.6246 40.3698 79.6305 40.7734 80.6461 40.9688L79.943 42.2578C78.7711 41.9844 77.648 41.4928 76.5738 40.7832C75.4996 40.0736 74.6207 39.1947 73.9371 38.1465C73.2535 37.0983 72.9117 35.9753 72.9117 34.7773V33.4492H74.2203V34.7773ZM81.4664 47.2188H65.568V45.9492H81.4664V47.2188ZM96.5156 42.8633H84.5039V41.6133H96.5156V42.8633ZM98.3516 47.3164H82.4531V46.0469H98.3516V47.3164ZM96.3203 35.0117H86.0664V41.9844H84.5039V33.7227H96.3203V35.0117ZM95.9492 38.8203H85.5781V37.5898H95.9492V38.8203ZM101.077 44.0156C102.327 44.0156 103.45 43.9831 104.446 43.918C105.442 43.8529 106.5 43.7227 107.62 43.5273L107.737 44.7969C106.617 44.9922 105.569 45.1224 104.592 45.1875C103.616 45.2526 102.444 45.2917 101.077 45.3047H99.9242V44.0156H101.077ZM106.116 40.1484H101.409V44.5625H99.9242V38.8789H104.651V35.4219H99.8851V34.1523H106.116V40.1484ZM114.182 49.582H112.717V32.2188H114.182V49.582ZM109.846 39.7383H106.955V38.4883H109.846V39.7383ZM110.627 48.6641H109.182V32.6484H110.627V48.6641ZM124.622 34.7773C124.622 35.9753 124.283 37.0951 123.606 38.1367C122.929 39.1784 122.054 40.0573 120.979 40.7734C119.905 41.4896 118.776 41.9844 117.591 42.2578L116.887 40.9688C117.916 40.7604 118.925 40.3535 119.915 39.748C120.904 39.1426 121.712 38.4004 122.337 37.5215C122.962 36.6426 123.274 35.7279 123.274 34.7773V33.4492H124.622V34.7773ZM124.876 34.7773C124.876 35.7148 125.195 36.6263 125.833 37.5117C126.471 38.3971 127.288 39.1458 128.284 39.7578C129.28 40.3698 130.286 40.7734 131.302 40.9688L130.598 42.2578C129.427 41.9844 128.304 41.4928 127.229 40.7832C126.155 40.0736 125.276 39.1947 124.593 38.1465C123.909 37.0983 123.567 35.9753 123.567 34.7773V33.4492H124.876V34.7773ZM132.122 47.2188H116.223V45.9492H132.122V47.2188ZM148.987 41.4961H133.089V40.2852H148.987V41.4961ZM146.995 46.5742H136.566V48.6445H135.023V45.5195H145.472V44.0352H135.003V42.8828H146.995V46.5742ZM147.562 49.3477H135.023V48.2344H147.562V49.3477ZM146.937 36.3398H136.683V38.2539H135.159V35.2852H145.394V33.8594H135.101V32.7461H146.937V36.3398ZM147.249 38.9766H135.159V37.8633H147.249V38.9766ZM160.727 42.082H159.184V39.4453H160.727V42.082ZM159.906 33.0391C160.753 33.0391 161.501 33.1823 162.152 33.4688C162.803 33.7552 163.311 34.1556 163.676 34.6699C164.04 35.1842 164.223 35.7865 164.223 36.4766C164.223 37.1406 164.04 37.7298 163.676 38.2441C163.311 38.7585 162.803 39.1589 162.152 39.4453C161.501 39.7318 160.753 39.875 159.906 39.875C159.073 39.875 158.327 39.7318 157.67 39.4453C157.012 39.1589 156.505 38.7585 156.146 38.2441C155.788 37.7298 155.609 37.1406 155.609 36.4766C155.609 35.7995 155.788 35.2005 156.146 34.6797C156.505 34.1589 157.012 33.7552 157.67 33.4688C158.327 33.1823 159.073 33.0391 159.906 33.0391ZM159.906 34.2305C159.359 34.2305 158.868 34.3249 158.432 34.5137C157.995 34.7025 157.657 34.9661 157.416 35.3047C157.175 35.6432 157.055 36.0339 157.055 36.4766C157.055 36.9062 157.175 37.2871 157.416 37.6191C157.657 37.9512 157.995 38.2116 158.432 38.4004C158.868 38.5892 159.359 38.6901 159.906 38.7031C160.466 38.6901 160.964 38.5892 161.4 38.4004C161.837 38.2116 162.175 37.9512 162.416 37.6191C162.657 37.2871 162.777 36.9062 162.777 36.4766C162.777 36.0339 162.657 35.64 162.416 35.2949C162.175 34.9499 161.837 34.6862 161.4 34.5039C160.964 34.3216 160.466 34.2305 159.906 34.2305ZM168.168 45.5195H166.625V32.2383H168.168V45.5195ZM170.766 39.4258H167.523V38.1172H170.766V39.4258ZM168.793 49.1914H157.133V47.9023H168.793V49.1914ZM158.676 48.4883H157.133V44.3672H158.676V48.4883ZM154.594 41.6523C156.547 41.6654 158.454 41.6328 160.316 41.5547C162.178 41.4766 163.91 41.3138 165.512 41.0664L165.629 42.2188C164.001 42.5052 162.305 42.694 160.541 42.7852C158.777 42.8763 156.859 42.9219 154.789 42.9219L154.594 41.6523ZM177.612 45.4023H176.069V42.5703H177.612V45.4023ZM184.975 49.582H183.432V32.2188H184.975V49.582ZM187.748 40.9102H184.506V39.6211H187.748V40.9102ZM171.284 44.9531C173.484 44.9531 175.483 44.9206 177.28 44.8555C179.077 44.7904 180.776 44.6406 182.377 44.4062L182.475 45.5781C181.303 45.7734 180.086 45.9199 178.823 46.0176C177.56 46.1152 176.358 46.1803 175.219 46.2129C174.08 46.2454 172.853 46.2617 171.537 46.2617L171.284 44.9531ZM182.065 35.5977H171.596V34.3477H182.065V35.5977ZM176.85 36.6133C177.657 36.6133 178.37 36.7467 178.989 37.0137C179.607 37.2806 180.092 37.6549 180.444 38.1367C180.795 38.6185 180.971 39.1849 180.971 39.8359C180.971 40.474 180.795 41.0306 180.444 41.5059C180.092 41.9811 179.607 42.3522 178.989 42.6191C178.37 42.8861 177.657 43.0195 176.85 43.0195C176.043 43.0195 175.327 42.8861 174.702 42.6191C174.077 42.3522 173.595 41.9811 173.256 41.5059C172.918 41.0306 172.748 40.474 172.748 39.8359C172.748 39.1849 172.918 38.6185 173.256 38.1367C173.595 37.6549 174.077 37.2806 174.702 37.0137C175.327 36.7467 176.043 36.6133 176.85 36.6133ZM176.85 37.8047C176.329 37.8047 175.867 37.8893 175.463 38.0586C175.06 38.2279 174.744 38.4655 174.516 38.7715C174.288 39.0775 174.174 39.4323 174.174 39.8359C174.174 40.2266 174.285 40.5749 174.506 40.8809C174.728 41.1868 175.043 41.418 175.454 41.5742C175.864 41.7305 176.329 41.8086 176.85 41.8086C177.371 41.8086 177.833 41.7305 178.237 41.5742C178.64 41.418 178.953 41.1868 179.174 40.8809C179.396 40.5749 179.506 40.2266 179.506 39.8359C179.506 39.4323 179.396 39.0775 179.174 38.7715C178.953 38.4655 178.64 38.2279 178.237 38.0586C177.833 37.8893 177.371 37.8047 176.85 37.8047ZM177.612 35.1484H176.069V32.2578H177.612V35.1484ZM201.821 49.582H200.298V32.2188H201.821V49.582ZM204.731 40.6562H201.47V39.3867H204.731V40.6562ZM198.618 36.2812H188.286V35.0117H198.618V36.2812ZM193.54 37.7266C194.36 37.7266 195.093 37.8958 195.737 38.2344C196.382 38.5729 196.886 39.0449 197.251 39.6504C197.615 40.2559 197.798 40.9427 197.798 41.7109C197.798 42.4792 197.615 43.166 197.251 43.7715C196.886 44.377 196.382 44.849 195.737 45.1875C195.093 45.526 194.36 45.6953 193.54 45.6953C192.72 45.6953 191.987 45.526 191.343 45.1875C190.698 44.849 190.193 44.377 189.829 43.7715C189.464 43.166 189.282 42.4792 189.282 41.7109C189.282 40.9427 189.464 40.2559 189.829 39.6504C190.193 39.0449 190.698 38.5729 191.343 38.2344C191.987 37.8958 192.72 37.7266 193.54 37.7266ZM193.54 39.0156C193.006 39.0156 192.527 39.1296 192.104 39.3574C191.681 39.5853 191.349 39.9043 191.108 40.3145C190.867 40.7246 190.747 41.1901 190.747 41.7109C190.747 42.2318 190.867 42.694 191.108 43.0977C191.349 43.5013 191.681 43.8171 192.104 44.0449C192.527 44.2728 193.006 44.3867 193.54 44.3867C194.074 44.3867 194.552 44.2728 194.975 44.0449C195.399 43.8171 195.731 43.5013 195.971 43.0977C196.212 42.694 196.333 42.2318 196.333 41.7109C196.333 41.1901 196.212 40.7246 195.971 40.3145C195.731 39.9043 195.399 39.5853 194.975 39.3574C194.552 39.1296 194.074 39.0156 193.54 39.0156ZM194.282 35.5977H192.759V32.4336H194.282V35.5977ZM218.237 35.2461H206.948V33.9766H218.237V35.2461ZM221.089 47.1211H205.269V45.8516H221.089V47.1211ZM212.984 46.5156H211.48V39.6406H212.984V46.5156ZM219.195 35.7148C219.195 36.7435 219.181 37.5996 219.155 38.2832C219.129 38.9668 219.071 39.7741 218.98 40.7051C218.889 41.6361 218.745 42.6419 218.55 43.7227L216.987 43.5469C217.196 42.5182 217.349 41.5482 217.446 40.6367C217.544 39.7253 217.603 38.9147 217.622 38.2051C217.642 37.4954 217.652 36.6654 217.652 35.7148V33.9766H219.195V35.7148ZM235.25 33.8398C235.25 34.8945 234.921 35.8613 234.264 36.7402C233.606 37.6191 232.737 38.3451 231.656 38.918C230.576 39.4909 229.43 39.8815 228.219 40.0898L227.594 38.8398C228.648 38.6966 229.661 38.3809 230.631 37.8926C231.601 37.4043 232.389 36.8053 232.994 36.0957C233.6 35.3861 233.902 34.6341 233.902 33.8398V32.8438H235.25V33.8398ZM235.484 33.8398C235.484 34.6211 235.79 35.3698 236.402 36.0859C237.014 36.8021 237.809 37.4043 238.785 37.8926C239.762 38.3809 240.771 38.6966 241.812 38.8398L241.188 40.0898C239.977 39.8815 238.834 39.4876 237.76 38.9082C236.686 38.3288 235.816 37.5996 235.152 36.7207C234.488 35.8418 234.156 34.8815 234.156 33.8398V32.8438H235.484V33.8398ZM235.406 49.582H233.902V42.9609H235.406V49.582ZM242.594 43.293H226.773V42.0039H242.594V43.293ZM256.979 36.5742H252.057V35.2852H256.979V36.5742ZM257.018 40.2852H252.057V39.0156H257.018V40.2852ZM252.448 41.8477H244.479V33.7422H252.448V41.8477ZM246.002 40.6172H250.944V35.0117H246.002V40.6172ZM258.053 44.9141H256.51V32.2383H258.053V44.9141ZM258.444 49.2109H246.823V47.9219H258.444V49.2109ZM248.366 48.4883H246.823V43.7812H248.366V48.4883ZM266.227 33.4883C267.139 33.4883 267.946 33.6608 268.649 34.0059C269.352 34.3509 269.902 34.8327 270.3 35.4512C270.697 36.0697 270.895 36.776 270.895 37.5703C270.895 38.3646 270.697 39.071 270.3 39.6895C269.902 40.3079 269.352 40.7897 268.649 41.1348C267.946 41.4798 267.139 41.6523 266.227 41.6523C265.329 41.6523 264.522 41.4798 263.805 41.1348C263.089 40.7897 262.533 40.3079 262.136 39.6895C261.738 39.071 261.54 38.3646 261.54 37.5703C261.54 36.776 261.738 36.0697 262.136 35.4512C262.533 34.8327 263.089 34.3509 263.805 34.0059C264.522 33.6608 265.329 33.4883 266.227 33.4883ZM266.227 34.8359C265.615 34.8359 265.069 34.9499 264.587 35.1777C264.105 35.4056 263.727 35.7279 263.454 36.1445C263.18 36.5612 263.044 37.0365 263.044 37.5703C263.044 38.1042 263.18 38.5762 263.454 38.9863C263.727 39.3965 264.105 39.7188 264.587 39.9531C265.069 40.1875 265.615 40.3047 266.227 40.3047C266.839 40.3047 267.386 40.1875 267.868 39.9531C268.35 39.7188 268.724 39.3965 268.991 38.9863C269.258 38.5762 269.391 38.1042 269.391 37.5703C269.391 37.0365 269.258 36.5612 268.991 36.1445C268.724 35.7279 268.35 35.4056 267.868 35.1777C267.386 34.9499 266.839 34.8359 266.227 34.8359ZM274.782 49.6211H273.259V32.2188H274.782V49.6211ZM260.641 44.4844C262.087 44.4844 263.399 44.4714 264.577 44.4453C265.755 44.4193 267.009 44.3639 268.337 44.2793C269.665 44.1947 270.921 44.0677 272.106 43.8984L272.223 45.0312C270.999 45.2526 269.73 45.4186 268.415 45.5293C267.1 45.64 265.866 45.7116 264.714 45.7441C263.561 45.7767 262.276 45.793 260.856 45.793L260.641 44.4844ZM296.365 41.2422H294.861V32.2188H296.365V41.2422ZM296.384 46.2227H286.638V48.7227H285.134V45.0703H294.861V43.293H285.095V42.082H296.384V46.2227ZM297.009 49.3867H285.134V48.1562H297.009V49.3867ZM288.005 34.6797C288.005 35.6823 287.797 36.623 287.38 37.502C286.964 38.3809 286.378 39.1458 285.623 39.7969C284.867 40.4479 284.002 40.9362 283.025 41.2617L282.302 40.0508C283.175 39.7643 283.946 39.3477 284.617 38.8008C285.287 38.2539 285.811 37.6257 286.189 36.916C286.567 36.2064 286.755 35.4609 286.755 34.6797V33.7422H288.005V34.6797ZM288.298 34.6797C288.298 35.4219 288.487 36.1283 288.865 36.7988C289.242 37.4694 289.77 38.0553 290.447 38.5566C291.124 39.0579 291.899 39.4388 292.771 39.6992L292.009 40.8906C291.046 40.5781 290.19 40.1191 289.441 39.5137C288.692 38.9082 288.11 38.1888 287.693 37.3555C287.276 36.5221 287.068 35.6302 287.068 34.6797V33.7422H288.298V34.6797ZM292.302 34.4844H282.693V33.2148H292.302V34.4844ZM306.844 32.5312C308.133 32.5312 309.236 32.6452 310.154 32.873C311.072 33.1009 311.772 33.4395 312.254 33.8887C312.736 34.3379 312.977 34.8815 312.977 35.5195C312.977 36.1706 312.736 36.7207 312.254 37.1699C311.772 37.6191 311.072 37.9609 310.154 38.1953C309.236 38.4297 308.133 38.5534 306.844 38.5664C305.555 38.5534 304.451 38.4297 303.533 38.1953C302.615 37.9609 301.912 37.6191 301.424 37.1699C300.936 36.7207 300.691 36.1706 300.691 35.5195C300.691 34.8815 300.936 34.3379 301.424 33.8887C301.912 33.4395 302.615 33.1009 303.533 32.873C304.451 32.6452 305.555 32.5312 306.844 32.5312ZM306.844 33.6836C305.893 33.6836 305.076 33.7552 304.393 33.8984C303.709 34.0417 303.188 34.2533 302.83 34.5332C302.472 34.8132 302.293 35.1419 302.293 35.5195C302.293 35.9232 302.469 36.265 302.82 36.5449C303.172 36.8249 303.689 37.0365 304.373 37.1797C305.057 37.3229 305.88 37.3945 306.844 37.3945C307.807 37.3945 308.631 37.3229 309.314 37.1797C309.998 37.0365 310.519 36.8216 310.877 36.5352C311.235 36.2487 311.414 35.9102 311.414 35.5195C311.414 35.1419 311.232 34.8164 310.867 34.543C310.503 34.2695 309.979 34.0579 309.295 33.9082C308.611 33.7585 307.794 33.6836 306.844 33.6836ZM314.754 40.9883H298.934V39.7383H314.754V40.9883ZM312.723 46.3789H302.41V48.4883H300.887V45.2461H311.219V43.6641H300.848V42.4922H312.723V46.3789ZM313.25 49.3867H300.887V48.1758H313.25V49.3867ZM40.0645 81.582H38.5605V64.2188H40.0645V81.582ZM39.127 72.5H35.709V71.2305H39.127V72.5ZM32.7207 66.4844C32.7207 68.0469 32.5124 69.515 32.0957 70.8887C31.679 72.2624 30.9857 73.5449 30.0156 74.7363C29.0456 75.9277 27.7598 76.9661 26.1582 77.8516L25.2598 76.7773C26.6921 75.9831 27.8509 75.0651 28.7363 74.0234C29.6217 72.9818 30.263 71.8555 30.6602 70.6445C31.0573 69.4336 31.2559 68.1315 31.2559 66.7383V66.4844H32.7207ZM31.7637 67.7539H25.9238V66.4844H31.7637V67.7539ZM36.1582 80.7227H34.6934V64.6875H36.1582V80.7227ZM55.5434 69.6094H51.1098V68.3203H55.5434V69.6094ZM47.7895 67.4414C47.7895 68.5352 47.5876 69.5671 47.184 70.5371C46.7803 71.5072 46.2172 72.3535 45.4945 73.0762C44.7719 73.7988 43.9288 74.3555 42.9652 74.7461L42.1449 73.4961C43.0043 73.1706 43.766 72.7018 44.4301 72.0898C45.0941 71.4779 45.615 70.7682 45.9926 69.9609C46.3702 69.1536 46.559 68.3138 46.559 67.4414V65.293H47.7895V67.4414ZM48.0629 67.5C48.0629 68.2943 48.2452 69.0658 48.6098 69.8145C48.9743 70.5632 49.4822 71.224 50.1332 71.7969C50.7842 72.3698 51.5264 72.8125 52.3598 73.125L51.5004 74.3164C50.5889 73.9518 49.7816 73.4277 49.0785 72.7441C48.3754 72.0605 47.8253 71.2663 47.4281 70.3613C47.031 69.4564 46.8324 68.5026 46.8324 67.5V65.293H48.0629V67.5ZM56.5199 77.2461H54.977V64.2383H56.5199V77.2461ZM56.9105 81.2109H45.2895V79.9219H56.9105V81.2109ZM46.8324 80.4883H45.2895V75.7617H46.8324V80.4883ZM72.448 81.582H70.9246V64.2188H72.448V81.582ZM75.3582 72.6562H72.0965V71.3867H75.3582V72.6562ZM69.2449 68.2812H58.9129V67.0117H69.2449V68.2812ZM64.1668 69.7266C64.9871 69.7266 65.7195 69.8958 66.3641 70.2344C67.0086 70.5729 67.5131 71.0449 67.8777 71.6504C68.2423 72.2559 68.4246 72.9427 68.4246 73.7109C68.4246 74.4792 68.2423 75.166 67.8777 75.7715C67.5131 76.377 67.0086 76.849 66.3641 77.1875C65.7195 77.526 64.9871 77.6953 64.1668 77.6953C63.3465 77.6953 62.6141 77.526 61.9695 77.1875C61.325 76.849 60.8204 76.377 60.4559 75.7715C60.0913 75.166 59.909 74.4792 59.909 73.7109C59.909 72.9427 60.0913 72.2559 60.4559 71.6504C60.8204 71.0449 61.325 70.5729 61.9695 70.2344C62.6141 69.8958 63.3465 69.7266 64.1668 69.7266ZM64.1668 71.0156C63.6329 71.0156 63.1544 71.1296 62.7312 71.3574C62.3081 71.5853 61.976 71.9043 61.7352 72.3145C61.4943 72.7246 61.3738 73.1901 61.3738 73.7109C61.3738 74.2318 61.4943 74.694 61.7352 75.0977C61.976 75.5013 62.3081 75.8171 62.7312 76.0449C63.1544 76.2728 63.6329 76.3867 64.1668 76.3867C64.7006 76.3867 65.1792 76.2728 65.6023 76.0449C66.0255 75.8171 66.3575 75.5013 66.5984 75.0977C66.8393 74.694 66.9598 74.2318 66.9598 73.7109C66.9598 73.1901 66.8393 72.7246 66.5984 72.3145C66.3575 71.9043 66.0255 71.5853 65.6023 71.3574C65.1792 71.1296 64.7006 71.0156 64.1668 71.0156ZM64.909 67.5977H63.3855V64.4336H64.909V67.5977ZM89.9387 70.7227H78.0441V69.4922H89.9387V70.7227ZM91.7746 74.3359H75.8762V73.0859H91.7746V74.3359ZM79.5676 70.1172H78.0441V64.8633H79.5676V70.1172ZM90.0363 81.1523H77.9465V79.8828H90.0363V81.1523ZM79.4699 80.2539H77.9465V76.1133H79.4699V80.2539ZM110.975 77.2461H109.451V64.2383H110.975V77.2461ZM113.592 71.25H110.486V69.9609H113.592V71.25ZM107.791 67.6172H97.4395V66.3672H107.791V67.6172ZM102.615 68.5742C103.436 68.5742 104.161 68.7077 104.793 68.9746C105.424 69.2415 105.916 69.6191 106.268 70.1074C106.619 70.5957 106.795 71.1654 106.795 71.8164C106.795 72.4544 106.619 73.0143 106.268 73.4961C105.916 73.9779 105.424 74.3522 104.793 74.6191C104.161 74.8861 103.436 75.0195 102.615 75.0195C101.795 75.0195 101.066 74.8861 100.428 74.6191C99.7897 74.3522 99.2982 73.9779 98.9531 73.4961C98.6081 73.0143 98.4355 72.4544 98.4355 71.8164C98.4355 71.1654 98.6081 70.5957 98.9531 70.1074C99.2982 69.6191 99.7897 69.2415 100.428 68.9746C101.066 68.7077 101.795 68.5742 102.615 68.5742ZM102.615 69.7852C102.081 69.7852 101.606 69.8665 101.189 70.0293C100.773 70.1921 100.454 70.4297 100.232 70.7422C100.011 71.0547 99.9004 71.4128 99.9004 71.8164C99.9004 72.2201 100.011 72.5716 100.232 72.8711C100.454 73.1706 100.773 73.4017 101.189 73.5645C101.606 73.7272 102.081 73.8086 102.615 73.8086C103.149 73.8086 103.624 73.7272 104.041 73.5645C104.458 73.4017 104.78 73.1706 105.008 72.8711C105.236 72.5716 105.35 72.2201 105.35 71.8164C105.35 71.4128 105.236 71.0547 105.008 70.7422C104.78 70.4297 104.458 70.1921 104.041 70.0293C103.624 69.8665 103.149 69.7852 102.615 69.7852ZM103.377 67.0117H101.854V64.2383H103.377V67.0117ZM111.775 81.2109H100.115V79.9219H111.775V81.2109ZM101.619 80.4492H100.115V76.2109H101.619V80.4492ZM130.438 68.1641H127.411V66.9141H130.438V68.1641ZM130.438 71.9141H127.411V70.6055H130.438V71.9141ZM127.86 74.5508H126.336V64.2188H127.86V74.5508ZM127.86 81.582H126.336V76.6211H116.493V75.3516H127.86V81.582ZM119.168 65.2734C120.041 65.2604 120.822 65.4264 121.512 65.7715C122.202 66.1165 122.746 66.6016 123.143 67.2266C123.54 67.8516 123.739 68.5612 123.739 69.3555C123.739 70.1497 123.54 70.8594 123.143 71.4844C122.746 72.1094 122.202 72.5977 121.512 72.9492C120.822 73.3008 120.041 73.4766 119.168 73.4766C118.296 73.4766 117.515 73.3008 116.825 72.9492C116.135 72.5977 115.594 72.1094 115.204 71.4844C114.813 70.8594 114.618 70.1497 114.618 69.3555C114.618 68.5612 114.813 67.8548 115.204 67.2363C115.594 66.6178 116.135 66.1328 116.825 65.7812C117.515 65.4297 118.296 65.2604 119.168 65.2734ZM119.168 66.582C118.595 66.582 118.075 66.6992 117.606 66.9336C117.137 67.168 116.773 67.4935 116.512 67.9102C116.252 68.3268 116.121 68.8086 116.121 69.3555C116.121 69.9023 116.252 70.3874 116.512 70.8105C116.773 71.2337 117.137 71.5625 117.606 71.7969C118.075 72.0312 118.595 72.1484 119.168 72.1484C119.754 72.1484 120.282 72.0312 120.75 71.7969C121.219 71.5625 121.584 71.2337 121.844 70.8105C122.105 70.3874 122.235 69.9023 122.235 69.3555C122.235 68.8086 122.105 68.3268 121.844 67.9102C121.584 67.4935 121.219 67.168 120.75 66.9336C120.282 66.6992 119.754 66.582 119.168 66.582ZM146.093 81.582H144.608V64.2188H146.093V81.582ZM145.175 72.5586H141.796V71.25H145.175V72.5586ZM142.245 80.7031H140.78V64.5898H142.245V80.7031ZM136.014 68.9648C136.014 70.3451 135.861 71.6211 135.555 72.793C135.249 73.9648 134.794 74.9935 134.188 75.8789C133.583 76.7643 132.837 77.4674 131.952 77.9883L130.995 76.8164C131.815 76.3607 132.512 75.7422 133.085 74.9609C133.658 74.1797 134.091 73.278 134.384 72.2559C134.677 71.2337 134.823 70.1367 134.823 68.9648V66.9141H136.014V68.9648ZM136.307 68.9648C136.307 70.0326 136.454 71.0384 136.747 71.9824C137.04 72.9264 137.47 73.763 138.036 74.4922C138.602 75.2214 139.289 75.7943 140.096 76.2109L139.179 77.4023C138.306 76.9206 137.567 76.2598 136.962 75.4199C136.356 74.5801 135.897 73.61 135.585 72.5098C135.272 71.4095 135.116 70.2279 135.116 68.9648V66.9141H136.307V68.9648ZM139.53 67.5781H131.405V66.2891H139.53V67.5781ZM163.935 73.4961H148.036V72.2852H163.935V73.4961ZM161.943 78.5742H151.513V80.6445H149.97V77.5195H160.419V76.0352H149.95V74.8828H161.943V78.5742ZM162.509 81.3477H149.97V80.2344H162.509V81.3477ZM161.884 68.3398H151.63V70.2539H150.107V67.2852H160.341V65.8594H150.048V64.7461H161.884V68.3398ZM162.196 70.9766H150.107V69.8633H162.196V70.9766ZM175.127 68.8867C175.127 70.1367 174.915 71.3607 174.492 72.5586C174.069 73.7565 173.49 74.8177 172.754 75.7422C172.018 76.6667 171.195 77.3763 170.283 77.8711L169.307 76.6406C170.153 76.224 170.921 75.6055 171.611 74.7852C172.301 73.9648 172.852 73.0339 173.262 71.9922C173.672 70.9505 173.877 69.9154 173.877 68.8867V65.7227H175.127V68.8867ZM175.381 68.8867C175.381 69.8763 175.583 70.8691 175.986 71.8652C176.39 72.8613 176.937 73.75 177.627 74.5312C178.317 75.3125 179.066 75.9049 179.873 76.3086L178.936 77.5391C178.037 77.0573 177.223 76.3704 176.494 75.4785C175.765 74.5866 175.192 73.5645 174.775 72.4121C174.359 71.2598 174.15 70.0846 174.15 68.8867V65.7227H175.381V68.8867ZM182.998 81.582H181.475V64.2188H182.998V81.582ZM185.908 72.5977H182.646V71.2695H185.908V72.5977ZM191.895 73.3984H190.371V70.1172H191.895V73.3984ZM198.34 73.3984H196.817V70.1172H198.34V73.3984ZM202.266 74.082H186.446V72.8125H202.266V74.082ZM194.356 75.4102C195.606 75.4102 196.677 75.5273 197.569 75.7617C198.461 75.9961 199.144 76.3411 199.62 76.7969C200.095 77.2526 200.332 77.8125 200.332 78.4766C200.332 79.1276 200.095 79.681 199.62 80.1367C199.144 80.5924 198.461 80.9408 197.569 81.1816C196.677 81.4225 195.606 81.543 194.356 81.543C193.106 81.543 192.032 81.4225 191.133 81.1816C190.235 80.9408 189.548 80.5924 189.073 80.1367C188.597 79.681 188.36 79.1276 188.36 78.4766C188.36 77.8125 188.597 77.2526 189.073 76.7969C189.548 76.3411 190.235 75.9961 191.133 75.7617C192.032 75.5273 193.106 75.4102 194.356 75.4102ZM194.356 76.582C193.431 76.582 192.637 76.6569 191.973 76.8066C191.309 76.9564 190.801 77.1745 190.45 77.4609C190.098 77.7474 189.922 78.0859 189.922 78.4766C189.922 78.8672 190.098 79.2025 190.45 79.4824C190.801 79.7624 191.309 79.9772 191.973 80.127C192.637 80.2767 193.431 80.3516 194.356 80.3516C195.267 80.3516 196.058 80.2767 196.729 80.127C197.399 79.9772 197.911 79.7624 198.262 79.4824C198.614 79.2025 198.789 78.8672 198.789 78.4766C198.789 78.0859 198.614 77.7474 198.262 77.4609C197.911 77.1745 197.403 76.9564 196.739 76.8066C196.075 76.6569 195.28 76.582 194.356 76.582ZM194.356 64.5508C195.619 64.5508 196.709 64.6777 197.627 64.9316C198.545 65.1855 199.252 65.5534 199.746 66.0352C200.241 66.5169 200.489 67.0964 200.489 67.7734C200.489 68.4375 200.241 69.0104 199.746 69.4922C199.252 69.974 198.545 70.3418 197.627 70.5957C196.709 70.8496 195.619 70.9766 194.356 70.9766C193.093 70.9766 191.999 70.8496 191.075 70.5957C190.15 70.3418 189.441 69.974 188.946 69.4922C188.451 69.0104 188.204 68.4375 188.204 67.7734C188.204 67.0964 188.451 66.5169 188.946 66.0352C189.441 65.5534 190.15 65.1855 191.075 64.9316C191.999 64.6777 193.093 64.5508 194.356 64.5508ZM194.356 65.7617C193.418 65.7617 192.605 65.8431 191.914 66.0059C191.224 66.1686 190.697 66.3997 190.332 66.6992C189.968 66.9987 189.786 67.3568 189.786 67.7734C189.786 68.1901 189.968 68.5482 190.332 68.8477C190.697 69.1471 191.224 69.3783 191.914 69.541C192.605 69.7038 193.418 69.7852 194.356 69.7852C195.293 69.7852 196.104 69.7038 196.788 69.541C197.471 69.3783 197.998 69.1471 198.37 68.8477C198.741 68.5482 198.926 68.1901 198.926 67.7734C198.926 67.3568 198.741 66.9987 198.37 66.6992C197.998 66.3997 197.471 66.1686 196.788 66.0059C196.104 65.8431 195.293 65.7617 194.356 65.7617ZM216.768 81.582H215.245V64.2188H216.768V81.582ZM219.679 72.6562H216.417V71.3867H219.679V72.6562ZM213.565 68.2812H203.233V67.0117H213.565V68.2812ZM208.487 69.7266C209.307 69.7266 210.04 69.8958 210.684 70.2344C211.329 70.5729 211.833 71.0449 212.198 71.6504C212.563 72.2559 212.745 72.9427 212.745 73.7109C212.745 74.4792 212.563 75.166 212.198 75.7715C211.833 76.377 211.329 76.849 210.684 77.1875C210.04 77.526 209.307 77.6953 208.487 77.6953C207.667 77.6953 206.934 77.526 206.29 77.1875C205.645 76.849 205.141 76.377 204.776 75.7715C204.412 75.166 204.229 74.4792 204.229 73.7109C204.229 72.9427 204.412 72.2559 204.776 71.6504C205.141 71.0449 205.645 70.5729 206.29 70.2344C206.934 69.8958 207.667 69.7266 208.487 69.7266ZM208.487 71.0156C207.953 71.0156 207.475 71.1296 207.052 71.3574C206.628 71.5853 206.296 71.9043 206.055 72.3145C205.815 72.7246 205.694 73.1901 205.694 73.7109C205.694 74.2318 205.815 74.694 206.055 75.0977C206.296 75.5013 206.628 75.8171 207.052 76.0449C207.475 76.2728 207.953 76.3867 208.487 76.3867C209.021 76.3867 209.499 76.2728 209.923 76.0449C210.346 75.8171 210.678 75.5013 210.919 75.0977C211.16 74.694 211.28 74.2318 211.28 73.7109C211.28 73.1901 211.16 72.7246 210.919 72.3145C210.678 71.9043 210.346 71.5853 209.923 71.3574C209.499 71.1296 209.021 71.0156 208.487 71.0156ZM209.229 67.5977H207.706V64.4336H209.229V67.5977ZM233.458 69.3945H228.107V68.1055H233.458V69.3945ZM233.458 74.8828H228.107V73.6133H233.458V74.8828ZM224.884 65.5664C225.73 65.5664 226.479 65.8171 227.13 66.3184C227.781 66.8197 228.292 67.526 228.663 68.4375C229.034 69.349 229.22 70.4102 229.22 71.6211C229.22 72.832 229.034 73.8932 228.663 74.8047C228.292 75.7161 227.781 76.4193 227.13 76.9141C226.479 77.4089 225.73 77.6562 224.884 77.6562C224.038 77.6562 223.286 77.4089 222.628 76.9141C221.971 76.4193 221.456 75.7161 221.085 74.8047C220.714 73.8932 220.529 72.832 220.529 71.6211C220.529 70.4102 220.714 69.349 221.085 68.4375C221.456 67.526 221.971 66.8197 222.628 66.3184C223.286 65.8171 224.038 65.5664 224.884 65.5664ZM224.884 66.9336C224.324 66.9336 223.823 67.1289 223.38 67.5195C222.937 67.9102 222.596 68.457 222.355 69.1602C222.114 69.8633 221.993 70.6836 221.993 71.6211C221.993 72.5456 222.114 73.3626 222.355 74.0723C222.596 74.7819 222.937 75.3288 223.38 75.7129C223.823 76.097 224.324 76.2891 224.884 76.2891C225.444 76.2891 225.945 76.097 226.388 75.7129C226.831 75.3288 227.172 74.7819 227.413 74.0723C227.654 73.3626 227.775 72.5456 227.775 71.6211C227.775 70.6836 227.654 69.8633 227.413 69.1602C227.172 68.457 226.834 67.9102 226.398 67.5195C225.961 67.1289 225.457 66.9336 224.884 66.9336ZM234.611 81.6211H233.087V64.2188H234.611V81.6211ZM255.607 81.3477H243.654V75.6445H255.607V81.3477ZM245.178 80.0977H254.104V76.875H245.178V80.0977ZM255.529 70.6836H243.771V64.8633H255.529V70.6836ZM245.275 69.4336H254.006V66.1133H245.275V69.4336ZM257.541 73.9258H241.721V72.6562H257.541V73.9258ZM250.393 73.2031H248.869V70.3516H250.393V73.2031ZM264.289 65.4883C265.201 65.4883 266.008 65.6608 266.711 66.0059C267.414 66.3509 267.965 66.8327 268.362 67.4512C268.759 68.0697 268.957 68.776 268.957 69.5703C268.957 70.3646 268.759 71.071 268.362 71.6895C267.965 72.3079 267.414 72.7897 266.711 73.1348C266.008 73.4798 265.201 73.6523 264.289 73.6523C263.391 73.6523 262.584 73.4798 261.868 73.1348C261.151 72.7897 260.595 72.3079 260.198 71.6895C259.801 71.071 259.602 70.3646 259.602 69.5703C259.602 68.776 259.801 68.0697 260.198 67.4512C260.595 66.8327 261.151 66.3509 261.868 66.0059C262.584 65.6608 263.391 65.4883 264.289 65.4883ZM264.289 66.8359C263.677 66.8359 263.131 66.9499 262.649 67.1777C262.167 67.4056 261.789 67.7279 261.516 68.1445C261.243 68.5612 261.106 69.0365 261.106 69.5703C261.106 70.1042 261.243 70.5762 261.516 70.9863C261.789 71.3965 262.167 71.7188 262.649 71.9531C263.131 72.1875 263.677 72.3047 264.289 72.3047C264.901 72.3047 265.448 72.1875 265.93 71.9531C266.412 71.7188 266.786 71.3965 267.053 70.9863C267.32 70.5762 267.454 70.1042 267.454 69.5703C267.454 69.0365 267.32 68.5612 267.053 68.1445C266.786 67.7279 266.412 67.4056 265.93 67.1777C265.448 66.9499 264.901 66.8359 264.289 66.8359ZM272.844 81.6211H271.321V64.2188H272.844V81.6211ZM258.704 76.4844C260.149 76.4844 261.461 76.4714 262.639 76.4453C263.817 76.4193 265.071 76.3639 266.399 76.2793C267.727 76.1947 268.983 76.0677 270.168 75.8984L270.286 77.0312C269.062 77.2526 267.792 77.4186 266.477 77.5293C265.162 77.64 263.928 77.7116 262.776 77.7441C261.623 77.7767 260.338 77.793 258.918 77.793L258.704 76.4844ZM293.275 66.4258H282.122V65.1758H293.275V66.4258ZM296.009 72.9492H280.111V71.6797H296.009V72.9492ZM286.888 77.1484H285.384V72.4609H286.888V77.1484ZM293.919 66.4844C293.919 67.526 293.89 68.4733 293.831 69.3262C293.773 70.179 293.626 71.1523 293.392 72.2461L291.907 72.0703C292.064 71.3281 292.178 70.6283 292.249 69.9707C292.321 69.3132 292.363 68.7337 292.376 68.2324C292.389 67.7311 292.396 67.1484 292.396 66.4844V65.1758H293.919V66.4844ZM294.388 81.2109H282.064V79.9219H294.388V81.2109ZM283.587 80.2539H282.064V75.7812H283.587V80.2539ZM291.556 77.1484H290.071V72.4609H291.556V77.1484ZM310.433 69.668H306.839V68.3984H310.433V69.668ZM310.414 73.0469H306.82V71.7773H310.414V73.0469ZM306.839 67.4219H297.015V66.1719H306.839V67.4219ZM301.976 68.3203C302.744 68.3203 303.431 68.4538 304.037 68.7207C304.642 68.9876 305.111 69.362 305.443 69.8438C305.775 70.3255 305.941 70.8854 305.941 71.5234C305.941 72.1615 305.775 72.7246 305.443 73.2129C305.111 73.7012 304.642 74.0788 304.037 74.3457C303.431 74.6126 302.744 74.7461 301.976 74.7461C301.208 74.7461 300.524 74.6126 299.925 74.3457C299.326 74.0788 298.864 73.7012 298.539 73.2129C298.213 72.7246 298.05 72.1615 298.05 71.5234C298.05 70.8854 298.213 70.3223 298.539 69.834C298.864 69.3457 299.326 68.9714 299.925 68.7109C300.524 68.4505 301.208 68.3203 301.976 68.3203ZM301.976 69.4727C301.481 69.4727 301.045 69.5605 300.668 69.7363C300.29 69.9121 299.997 70.153 299.789 70.459C299.58 70.765 299.476 71.1198 299.476 71.5234C299.476 71.9271 299.58 72.2819 299.789 72.5879C299.997 72.8939 300.29 73.1315 300.668 73.3008C301.045 73.4701 301.481 73.5547 301.976 73.5547C302.471 73.5547 302.91 73.4701 303.295 73.3008C303.679 73.1315 303.978 72.8939 304.193 72.5879C304.408 72.2819 304.515 71.9271 304.515 71.5234C304.515 71.1198 304.408 70.765 304.193 70.459C303.978 70.153 303.679 69.9121 303.295 69.7363C302.91 69.5605 302.471 69.4727 301.976 69.4727ZM302.757 67.0312H301.234V64.082H302.757V67.0312ZM311.39 75.4492H309.847V64.2188H311.39V75.4492ZM305.668 75.625C306.879 75.625 307.92 75.7389 308.793 75.9668C309.665 76.1947 310.332 76.5332 310.795 76.9824C311.257 77.4316 311.488 77.9688 311.488 78.5938C311.488 79.2057 311.257 79.7331 310.795 80.1758C310.332 80.6185 309.662 80.957 308.783 81.1914C307.904 81.4258 306.865 81.543 305.668 81.543C304.457 81.543 303.415 81.4258 302.543 81.1914C301.67 80.957 301 80.6185 300.531 80.1758C300.062 79.7331 299.828 79.2057 299.828 78.5938C299.828 77.9688 300.062 77.4316 300.531 76.9824C301 76.5332 301.67 76.1947 302.543 75.9668C303.415 75.7389 304.457 75.625 305.668 75.625ZM305.668 76.8164C304.795 76.8164 304.04 76.8848 303.402 77.0215C302.764 77.1582 302.272 77.36 301.927 77.627C301.582 77.8939 301.41 78.2161 301.41 78.5938C301.41 78.9583 301.582 79.2708 301.927 79.5312C302.272 79.7917 302.764 79.9935 303.402 80.1367C304.04 80.2799 304.795 80.3516 305.668 80.3516C306.527 80.3516 307.272 80.2799 307.904 80.1367C308.535 79.9935 309.02 79.7917 309.359 79.5312C309.698 79.2708 309.867 78.9583 309.867 78.5938C309.867 78.2161 309.698 77.8939 309.359 77.627C309.02 77.36 308.539 77.1582 307.914 77.0215C307.289 76.8848 306.54 76.8164 305.668 76.8164ZM321.791 64.5312C323.08 64.5312 324.184 64.6452 325.102 64.873C326.02 65.1009 326.719 65.4395 327.201 65.8887C327.683 66.3379 327.924 66.8815 327.924 67.5195C327.924 68.1706 327.683 68.7207 327.201 69.1699C326.719 69.6191 326.02 69.9609 325.102 70.1953C324.184 70.4297 323.08 70.5534 321.791 70.5664C320.502 70.5534 319.398 70.4297 318.48 70.1953C317.562 69.9609 316.859 69.6191 316.371 69.1699C315.883 68.7207 315.639 68.1706 315.639 67.5195C315.639 66.8815 315.883 66.3379 316.371 65.8887C316.859 65.4395 317.562 65.1009 318.48 64.873C319.398 64.6452 320.502 64.5312 321.791 64.5312ZM321.791 65.6836C320.84 65.6836 320.023 65.7552 319.34 65.8984C318.656 66.0417 318.135 66.2533 317.777 66.5332C317.419 66.8132 317.24 67.1419 317.24 67.5195C317.24 67.9232 317.416 68.265 317.768 68.5449C318.119 68.8249 318.637 69.0365 319.32 69.1797C320.004 69.3229 320.827 69.3945 321.791 69.3945C322.755 69.3945 323.578 69.3229 324.262 69.1797C324.945 69.0365 325.466 68.8216 325.824 68.5352C326.182 68.2487 326.361 67.9102 326.361 67.5195C326.361 67.1419 326.179 66.8164 325.814 66.543C325.45 66.2695 324.926 66.0579 324.242 65.9082C323.559 65.7585 322.742 65.6836 321.791 65.6836ZM329.701 72.9883H313.881V71.7383H329.701V72.9883ZM327.67 78.3789H317.357V80.4883H315.834V77.2461H326.166V75.6641H315.795V74.4922H327.67V78.3789ZM328.197 81.3867H315.834V80.1758H328.197V81.3867ZM78.6254 109.5H77.0824V106.629H78.6254V109.5ZM86.2816 113.582H84.7582V96.2188H86.2816V113.582ZM73.1957 108.953C75.1879 108.94 77.0401 108.895 78.7523 108.816C80.4646 108.738 82.0824 108.602 83.6059 108.406L83.723 109.578C82.0043 109.852 80.2139 110.034 78.352 110.125C76.49 110.216 74.4978 110.262 72.3754 110.262L72.141 108.953H73.1957ZM83.1566 99.6172H72.5121V98.3672H83.1566V99.6172ZM77.8246 100.613C78.6579 100.613 79.3904 100.747 80.0219 101.014C80.6534 101.281 81.1449 101.655 81.4965 102.137C81.848 102.618 82.0238 103.185 82.0238 103.836C82.0238 104.474 81.848 105.031 81.4965 105.506C81.1449 105.981 80.6534 106.352 80.0219 106.619C79.3904 106.886 78.6579 107.02 77.8246 107.02C77.0043 107.02 76.2784 106.889 75.6469 106.629C75.0154 106.368 74.5271 105.997 74.182 105.516C73.837 105.034 73.6645 104.474 73.6645 103.836C73.6645 103.185 73.837 102.618 74.182 102.137C74.5271 101.655 75.0154 101.281 75.6469 101.014C76.2784 100.747 77.0043 100.613 77.8246 100.613ZM77.8246 101.805C77.3038 101.805 76.835 101.889 76.4184 102.059C76.0017 102.228 75.6762 102.465 75.4418 102.771C75.2074 103.077 75.0902 103.432 75.0902 103.836C75.0902 104.227 75.2074 104.572 75.4418 104.871C75.6762 105.171 76.0017 105.402 76.4184 105.564C76.835 105.727 77.3038 105.809 77.8246 105.809C78.3585 105.809 78.8337 105.73 79.2504 105.574C79.6671 105.418 79.9893 105.187 80.2172 104.881C80.4451 104.575 80.559 104.227 80.559 103.836C80.559 103.432 80.4451 103.077 80.2172 102.771C79.9893 102.465 79.6671 102.228 79.2504 102.059C78.8337 101.889 78.3585 101.805 77.8246 101.805ZM78.6254 99.0312H77.0824V96.2383H78.6254V99.0312ZM104.749 106.473H88.9285V105.203H104.749V106.473ZM97.6004 105.613H96.077V102.586H97.6004V105.613ZM102.796 113.582H101.253V109.422H90.6863V108.191H102.796V113.582ZM92.5613 98.6406H101.155V96.6289H102.679V103.113H91.0379V96.6289H92.5613V98.6406ZM101.155 101.883V99.8125H92.5613V101.883H101.155ZM111.732 100.887C111.732 102.176 111.51 103.429 111.068 104.646C110.625 105.864 110.023 106.935 109.261 107.859C108.499 108.784 107.643 109.487 106.693 109.969L105.716 108.68C106.575 108.276 107.366 107.671 108.089 106.863C108.812 106.056 109.388 105.125 109.818 104.07C110.247 103.016 110.462 101.954 110.462 100.887V97.7227H111.732V100.887ZM111.986 100.887C111.986 101.915 112.197 102.934 112.62 103.943C113.043 104.952 113.616 105.851 114.339 106.639C115.062 107.426 115.846 108.016 116.693 108.406L115.755 109.617C114.831 109.161 113.981 108.488 113.206 107.596C112.432 106.704 111.82 105.672 111.37 104.5C110.921 103.328 110.696 102.124 110.696 100.887V97.7227H111.986V100.887ZM120.13 113.621H118.587V96.2188H120.13V113.621ZM132.015 98.0352C132.015 99.819 131.765 101.476 131.263 103.006C130.762 104.536 129.912 105.962 128.714 107.283C127.517 108.605 125.915 109.76 123.91 110.75L123.05 109.52C124.847 108.66 126.296 107.658 127.396 106.512C128.496 105.366 129.291 104.106 129.779 102.732C130.267 101.359 130.511 99.8516 130.511 98.2109V98.0352H132.015ZM131.312 99.3047H124.007V98.0352H131.312V99.3047ZM123.382 104.188L123.129 102.82L130.257 102.352V103.523L123.382 104.188ZM137.054 113.582H135.511V96.2188H137.054V113.582ZM153.627 102.723H141.732V101.492H153.627V102.723ZM155.463 106.336H139.564V105.086H155.463V106.336ZM143.256 102.117H141.732V96.8633H143.256V102.117ZM153.725 113.152H141.635V111.883H153.725V113.152ZM143.158 112.254H141.635V108.113H143.158V112.254ZM175.483 107.996H173.94V96.2383H175.483V107.996ZM174.272 102.41H170.132V101.121H174.272V102.41ZM170.054 97.6055C170.054 99.0638 169.738 100.395 169.106 101.6C168.475 102.804 167.563 103.849 166.372 104.734C165.18 105.62 163.745 106.329 162.065 106.863L161.382 105.633C162.866 105.177 164.136 104.585 165.19 103.855C166.245 103.126 167.052 102.283 167.612 101.326C168.172 100.369 168.452 99.3307 168.452 98.2109V97.6055H170.054ZM169.526 98.8555H162.241V97.6055H169.526V98.8555ZM170.405 107.273C170.405 108.341 170.106 109.308 169.507 110.174C168.908 111.04 168.11 111.756 167.114 112.322C166.118 112.889 165.021 113.289 163.823 113.523L163.198 112.312C164.24 112.13 165.21 111.801 166.108 111.326C167.007 110.851 167.729 110.262 168.276 109.559C168.823 108.855 169.096 108.094 169.096 107.273V106.473H170.405V107.273ZM170.6 107.273C170.6 108.081 170.867 108.829 171.401 109.52C171.935 110.21 172.648 110.789 173.54 111.258C174.432 111.727 175.399 112.059 176.44 112.254L175.796 113.484C174.611 113.25 173.524 112.853 172.534 112.293C171.544 111.733 170.757 111.023 170.171 110.164C169.585 109.305 169.292 108.341 169.292 107.273V106.473H170.6V107.273ZM192.29 113.621H190.747V96.2188H192.29V113.621ZM183.052 97.5664C183.911 97.5664 184.676 97.8171 185.347 98.3184C186.017 98.8197 186.542 99.526 186.919 100.438C187.297 101.349 187.486 102.41 187.486 103.621C187.486 104.832 187.297 105.893 186.919 106.805C186.542 107.716 186.017 108.419 185.347 108.914C184.676 109.409 183.911 109.656 183.052 109.656C182.193 109.656 181.428 109.409 180.757 108.914C180.086 108.419 179.562 107.716 179.185 106.805C178.807 105.893 178.618 104.832 178.618 103.621C178.618 102.41 178.807 101.349 179.185 100.438C179.562 99.526 180.086 98.8197 180.757 98.3184C181.428 97.8171 182.193 97.5664 183.052 97.5664ZM183.052 98.9336C182.479 98.9336 181.968 99.1289 181.519 99.5195C181.07 99.9102 180.721 100.457 180.474 101.16C180.226 101.863 180.103 102.684 180.103 103.621C180.103 104.546 180.226 105.363 180.474 106.072C180.721 106.782 181.07 107.329 181.519 107.713C181.968 108.097 182.479 108.289 183.052 108.289C183.625 108.289 184.136 108.097 184.585 107.713C185.034 107.329 185.383 106.782 185.63 106.072C185.877 105.363 186.001 104.546 186.001 103.621C186.001 102.684 185.877 101.863 185.63 101.16C185.383 100.457 185.038 99.9102 184.595 99.5195C184.152 99.1289 183.638 98.9336 183.052 98.9336ZM213.287 102.82H201.529V96.9609H213.287V102.82ZM203.033 101.59H211.764V98.1914H203.033V101.59ZM215.299 106.297H199.479V105.047H215.299V106.297ZM208.15 105.535H206.627V102.508H208.15V105.535ZM213.346 113.582H211.803V109.344H201.236V108.113H213.346V113.582ZM222.34 110.613H220.797V105.613H222.34V110.613ZM227.711 110.613H226.188V105.613H227.711V110.613ZM232.262 111.453H216.364V110.184H232.262V111.453ZM230.739 99.1094H217.77V97.8398H230.739V99.1094ZM230.7 106.043H217.809V104.773H230.7V106.043ZM222.047 105.047H220.524V98.8555H222.047V105.047ZM227.985 105.047H226.481V98.8555H227.985V105.047ZM247.585 105.535H246.061V96.2188H247.585V105.535ZM237.858 108.523H246.061V106.414H247.585V113.348H236.335V106.414H237.858V108.523ZM246.061 112.098V109.754H237.858V112.098H246.061ZM238.21 97.0781C239.082 97.0651 239.863 97.2246 240.554 97.5566C241.244 97.8887 241.784 98.3607 242.175 98.9727C242.565 99.5846 242.761 100.281 242.761 101.062C242.761 101.831 242.565 102.518 242.175 103.123C241.784 103.729 241.244 104.201 240.554 104.539C239.863 104.878 239.082 105.047 238.21 105.047C237.337 105.047 236.556 104.878 235.866 104.539C235.176 104.201 234.636 103.729 234.245 103.123C233.854 102.518 233.659 101.831 233.659 101.062C233.659 100.281 233.854 99.5846 234.245 98.9727C234.636 98.3607 235.176 97.8887 235.866 97.5566C236.556 97.2246 237.337 97.0651 238.21 97.0781ZM238.21 98.3672C237.624 98.3542 237.1 98.4648 236.637 98.6992C236.175 98.9336 235.814 99.2559 235.554 99.666C235.293 100.076 235.163 100.542 235.163 101.062C235.163 101.583 235.293 102.049 235.554 102.459C235.814 102.869 236.175 103.191 236.637 103.426C237.1 103.66 237.624 103.777 238.21 103.777C238.796 103.777 239.32 103.66 239.782 103.426C240.244 103.191 240.606 102.869 240.866 102.459C241.126 102.049 241.257 101.583 241.257 101.062C241.257 100.542 241.126 100.076 240.866 99.666C240.606 99.2559 240.244 98.9336 239.782 98.6992C239.32 98.4648 238.796 98.3542 238.21 98.3672ZM264.45 113.582H262.927V96.2188H264.45V113.582ZM252.771 108.68H251.267V97.9375H252.771V108.68ZM252.673 107.781C254.092 107.781 255.495 107.716 256.882 107.586C258.269 107.456 259.665 107.241 261.071 106.941L261.286 108.25C259.815 108.549 258.379 108.768 256.98 108.904C255.58 109.041 254.144 109.109 252.673 109.109H251.267V107.781H252.673ZM280.457 113.621H278.933V96.2188H280.457V113.621ZM283.367 104.383H280.105V103.094H283.367V104.383ZM269.148 107.977C270.828 107.977 272.283 107.931 273.513 107.84C274.744 107.749 275.99 107.586 277.254 107.352L277.449 108.68C276.173 108.914 274.916 109.07 273.679 109.148C272.442 109.227 270.932 109.266 269.148 109.266H267.781V107.977H269.148ZM275.886 99.1875H269.304V108.562H267.781V97.918H275.886V99.1875ZM285.74 112.117C285.519 112.117 285.311 112.059 285.115 111.941C284.92 111.824 284.767 111.668 284.656 111.473C284.546 111.277 284.49 111.069 284.49 110.848C284.49 110.626 284.546 110.418 284.656 110.223C284.767 110.027 284.92 109.874 285.115 109.764C285.311 109.653 285.519 109.598 285.74 109.598C285.962 109.598 286.17 109.653 286.365 109.764C286.561 109.874 286.714 110.027 286.824 110.223C286.935 110.418 286.99 110.626 286.99 110.848C286.99 111.069 286.935 111.277 286.824 111.473C286.714 111.668 286.561 111.824 286.365 111.941C286.17 112.059 285.962 112.117 285.74 112.117ZM2.90547 140.367C2.55391 140.367 2.22513 140.276 1.91914 140.094C1.61315 139.911 1.36901 139.667 1.18672 139.361C1.00443 139.055 0.913284 138.72 0.913284 138.355C0.913284 137.991 1.00443 137.656 1.18672 137.35C1.36901 137.044 1.61315 136.803 1.91914 136.627C2.22513 136.451 2.55391 136.363 2.90547 136.363C3.27006 136.363 3.6086 136.451 3.9211 136.627C4.2336 136.803 4.47774 137.044 4.65352 137.35C4.8293 137.656 4.91719 137.991 4.91719 138.355C4.91719 138.72 4.8293 139.055 4.65352 139.361C4.47774 139.667 4.2336 139.911 3.9211 140.094C3.6086 140.276 3.27006 140.367 2.90547 140.367ZM29.175 136.383H25.8352V135.074H29.175V136.383ZM23.5109 133.57C23.5109 134.729 23.3482 135.859 23.0227 136.959C22.6971 138.059 22.2316 139.052 21.6262 139.938C21.0207 140.823 20.3013 141.52 19.468 142.027L18.55 140.855C19.3182 140.413 19.9855 139.804 20.552 139.029C21.1184 138.255 21.5546 137.392 21.8605 136.441C22.1665 135.491 22.3195 134.534 22.3195 133.57V132.652H23.5109V133.57ZM23.7648 133.57C23.7648 134.495 23.9178 135.41 24.2238 136.314C24.5298 137.219 24.9693 138.036 25.5422 138.766C26.1151 139.495 26.7857 140.068 27.5539 140.484L26.675 141.637C25.8417 141.181 25.1158 140.533 24.4973 139.693C23.8788 138.854 23.4068 137.903 23.0813 136.842C22.7557 135.781 22.593 134.69 22.593 133.57V132.652H23.7648V133.57ZM27.0266 132.711H19.0188V131.441H27.0266V132.711ZM23.7844 132.398H22.3195V128.863H23.7844V132.398ZM33.5305 145.582H32.0656V128.219H33.5305V145.582ZM30.0148 144.684H28.5695V128.648H30.0148V144.684ZM37.5445 136.852C39.4326 136.852 40.8714 136.826 41.8609 136.773C42.8505 136.721 43.8401 136.604 44.8297 136.422L44.9859 137.691C43.9573 137.861 42.9254 137.971 41.8902 138.023C40.8551 138.076 39.4065 138.102 37.5445 138.102H36.3141V136.852H37.5445ZM43.8141 134.156H37.8375V137.594H36.3141V132.984H42.2906V130.523H36.275V129.293H43.8141V134.156ZM49.9664 138.902H48.4234V128.238H49.9664V138.902ZM48.7945 132.066H44.9664V130.816H48.7945V132.066ZM48.7945 135.68H44.9664V134.41H48.7945V135.68ZM49.9664 145.621H48.4234V141.09H38.2672V139.84H49.9664V145.621ZM60.3672 128.531C61.6562 128.531 62.7598 128.645 63.6777 128.873C64.5957 129.101 65.2956 129.439 65.7773 129.889C66.2591 130.338 66.5 130.882 66.5 131.52C66.5 132.171 66.2591 132.721 65.7773 133.17C65.2956 133.619 64.5957 133.961 63.6777 134.195C62.7598 134.43 61.6562 134.553 60.3672 134.566C59.0781 134.553 57.9746 134.43 57.0566 134.195C56.1387 133.961 55.4355 133.619 54.9473 133.17C54.459 132.721 54.2148 132.171 54.2148 131.52C54.2148 130.882 54.459 130.338 54.9473 129.889C55.4355 129.439 56.1387 129.101 57.0566 128.873C57.9746 128.645 59.0781 128.531 60.3672 128.531ZM60.3672 129.684C59.4167 129.684 58.5996 129.755 57.916 129.898C57.2324 130.042 56.7116 130.253 56.3535 130.533C55.9954 130.813 55.8164 131.142 55.8164 131.52C55.8164 131.923 55.9922 132.265 56.3438 132.545C56.6953 132.825 57.2129 133.036 57.8965 133.18C58.5801 133.323 59.4036 133.395 60.3672 133.395C61.3307 133.395 62.1543 133.323 62.8379 133.18C63.5215 133.036 64.0423 132.822 64.4004 132.535C64.7585 132.249 64.9375 131.91 64.9375 131.52C64.9375 131.142 64.7552 130.816 64.3906 130.543C64.026 130.27 63.502 130.058 62.8184 129.908C62.1348 129.758 61.3177 129.684 60.3672 129.684ZM68.2773 136.988H52.457V135.738H68.2773V136.988ZM66.2461 142.379H55.9336V144.488H54.4102V141.246H64.7422V139.664H54.3711V138.492H66.2461V142.379ZM66.7734 145.387H54.4102V144.176H66.7734V145.387ZM89.8602 143.355H73.9617V142.086H89.8602V143.355ZM82.6141 142.477H81.1102V137.887H82.6141V142.477ZM77.3797 132.594H86.4031V129.449H87.907V138.336H75.8367V129.449H77.3797V132.594ZM86.4031 137.086V133.844H77.3797V137.086H86.4031ZM104.421 138.648H102.898V128.219H104.421V138.648ZM107.038 134.02H103.991V132.75H107.038V134.02ZM99.6945 129.508C99.6945 130.953 99.3658 132.278 98.7082 133.482C98.0507 134.687 97.1099 135.729 95.8859 136.607C94.662 137.486 93.2036 138.173 91.5109 138.668L90.8664 137.418C92.3508 136.988 93.6333 136.415 94.7141 135.699C95.7948 134.983 96.6249 134.16 97.2043 133.229C97.7837 132.298 98.0734 131.292 98.0734 130.211V129.508H99.6945ZM98.9328 130.777H91.6281V129.508H98.9328V130.777ZM98.9328 138.844C100.092 138.844 101.101 138.977 101.96 139.244C102.82 139.511 103.477 139.895 103.933 140.396C104.389 140.898 104.616 141.493 104.616 142.184C104.616 142.874 104.389 143.473 103.933 143.98C103.477 144.488 102.82 144.876 101.96 145.143C101.101 145.41 100.092 145.543 98.9328 145.543C97.787 145.543 96.7844 145.41 95.925 145.143C95.0656 144.876 94.4048 144.488 93.9426 143.98C93.4803 143.473 93.2492 142.874 93.2492 142.184C93.2492 141.493 93.4803 140.898 93.9426 140.396C94.4048 139.895 95.0656 139.511 95.925 139.244C96.7844 138.977 97.787 138.844 98.9328 138.844ZM98.9328 140.074C98.0995 140.061 97.3671 140.139 96.7355 140.309C96.104 140.478 95.619 140.725 95.2805 141.051C94.9419 141.376 94.7727 141.754 94.7727 142.184C94.7727 142.613 94.9419 142.988 95.2805 143.307C95.619 143.626 96.104 143.873 96.7355 144.049C97.3671 144.225 98.0995 144.312 98.9328 144.312C99.7792 144.312 100.518 144.225 101.15 144.049C101.781 143.873 102.269 143.626 102.614 143.307C102.96 142.988 103.132 142.613 103.132 142.184C103.132 141.754 102.96 141.376 102.614 141.051C102.269 140.725 101.781 140.478 101.15 140.309C100.518 140.139 99.7792 140.061 98.9328 140.074ZM121.17 145.582H119.646V128.219H121.17V145.582ZM124.08 136.656H120.818V135.387H124.08V136.656ZM117.966 132.281H107.634V131.012H117.966V132.281ZM112.888 133.727C113.709 133.727 114.441 133.896 115.086 134.234C115.73 134.573 116.235 135.045 116.599 135.65C116.964 136.256 117.146 136.943 117.146 137.711C117.146 138.479 116.964 139.166 116.599 139.771C116.235 140.377 115.73 140.849 115.086 141.188C114.441 141.526 113.709 141.695 112.888 141.695C112.068 141.695 111.336 141.526 110.691 141.188C110.046 140.849 109.542 140.377 109.177 139.771C108.813 139.166 108.63 138.479 108.63 137.711C108.63 136.943 108.813 136.256 109.177 135.65C109.542 135.045 110.046 134.573 110.691 134.234C111.336 133.896 112.068 133.727 112.888 133.727ZM112.888 135.016C112.354 135.016 111.876 135.13 111.453 135.357C111.03 135.585 110.698 135.904 110.457 136.314C110.216 136.725 110.095 137.19 110.095 137.711C110.095 138.232 110.216 138.694 110.457 139.098C110.698 139.501 111.03 139.817 111.453 140.045C111.876 140.273 112.354 140.387 112.888 140.387C113.422 140.387 113.901 140.273 114.324 140.045C114.747 139.817 115.079 139.501 115.32 139.098C115.561 138.694 115.681 138.232 115.681 137.711C115.681 137.19 115.561 136.725 115.32 136.314C115.079 135.904 114.747 135.585 114.324 135.357C113.901 135.13 113.422 135.016 112.888 135.016ZM113.63 131.598H112.107V128.434H113.63V131.598ZM137.586 131.246H126.297V129.977H137.586V131.246ZM140.438 143.121H124.617V141.852H140.438V143.121ZM132.332 142.516H130.828V135.641H132.332V142.516ZM138.543 131.715C138.543 132.743 138.53 133.6 138.504 134.283C138.478 134.967 138.419 135.774 138.328 136.705C138.237 137.636 138.094 138.642 137.898 139.723L136.336 139.547C136.544 138.518 136.697 137.548 136.795 136.637C136.893 135.725 136.951 134.915 136.971 134.205C136.99 133.495 137 132.665 137 131.715V129.977H138.543V131.715ZM154.52 130.777C154.52 131.975 154.182 133.095 153.505 134.137C152.828 135.178 151.952 136.057 150.878 136.773C149.804 137.49 148.674 137.984 147.489 138.258L146.786 136.969C147.815 136.76 148.824 136.354 149.813 135.748C150.803 135.143 151.61 134.4 152.235 133.521C152.86 132.643 153.173 131.728 153.173 130.777V129.449H154.52V130.777ZM154.774 130.777C154.774 131.715 155.093 132.626 155.731 133.512C156.369 134.397 157.186 135.146 158.182 135.758C159.179 136.37 160.184 136.773 161.2 136.969L160.497 138.258C159.325 137.984 158.202 137.493 157.128 136.783C156.054 136.074 155.175 135.195 154.491 134.146C153.807 133.098 153.466 131.975 153.466 130.777V129.449H154.774V130.777ZM162.02 143.219H146.122V141.949H162.02V143.219ZM177.07 138.863H165.058V137.613H177.07V138.863ZM178.905 143.316H163.007V142.047H178.905V143.316ZM176.874 131.012H166.62V137.984H165.058V129.723H176.874V131.012ZM176.503 134.82H166.132V133.59H176.503V134.82ZM181.63 140.016C182.88 140.016 184.004 139.983 185 139.918C185.996 139.853 187.054 139.723 188.173 139.527L188.291 140.797C187.171 140.992 186.123 141.122 185.146 141.188C184.17 141.253 182.998 141.292 181.63 141.305H180.478V140.016H181.63ZM186.67 136.148H181.963V140.562H180.478V134.879H185.205V131.422H180.439V130.152H186.67V136.148ZM194.736 145.582H193.271V128.219H194.736V145.582ZM190.4 135.738H187.509V134.488H190.4V135.738ZM191.181 144.664H189.736V128.648H191.181V144.664ZM205.176 130.777C205.176 131.975 204.837 133.095 204.16 134.137C203.483 135.178 202.607 136.057 201.533 136.773C200.459 137.49 199.329 137.984 198.145 138.258L197.441 136.969C198.47 136.76 199.479 136.354 200.469 135.748C201.458 135.143 202.266 134.4 202.891 133.521C203.516 132.643 203.828 131.728 203.828 130.777V129.449H205.176V130.777ZM205.43 130.777C205.43 131.715 205.749 132.626 206.387 133.512C207.025 134.397 207.842 135.146 208.838 135.758C209.834 136.37 210.84 136.773 211.855 136.969L211.152 138.258C209.98 137.984 208.857 137.493 207.783 136.783C206.709 136.074 205.83 135.195 205.146 134.146C204.463 133.098 204.121 131.975 204.121 130.777V129.449H205.43V130.777ZM212.676 143.219H196.777V141.949H212.676V143.219ZM229.541 137.496H213.643V136.285H229.541V137.496ZM227.549 142.574H217.12V144.645H215.577V141.52H226.026V140.035H215.557V138.883H227.549V142.574ZM228.116 145.348H215.577V144.234H228.116V145.348ZM227.491 132.34H217.237V134.254H215.713V131.285H225.948V129.859H215.655V128.746H227.491V132.34ZM227.803 134.977H215.713V133.863H227.803V134.977ZM243.82 139.059H242.316V136.383H243.82V139.059ZM250.988 136.734H235.167V135.484H250.988V136.734ZM248.956 142.438H238.644V144.488H237.12V141.305H247.452V139.664H237.081V138.492H248.956V142.438ZM249.484 145.387H237.12V144.176H249.484V145.387ZM243.546 129.82C243.546 130.693 243.224 131.467 242.579 132.145C241.935 132.822 241.082 133.372 240.021 133.795C238.96 134.218 237.797 134.495 236.534 134.625L236.027 133.453C237.107 133.362 238.12 133.147 239.064 132.809C240.008 132.47 240.769 132.04 241.349 131.52C241.928 130.999 242.218 130.432 242.218 129.82V129.312H243.546V129.82ZM243.956 129.82C243.956 130.432 244.243 130.999 244.816 131.52C245.389 132.04 246.154 132.47 247.111 132.809C248.068 133.147 249.08 133.362 250.148 133.453L249.64 134.625C248.39 134.495 247.231 134.218 246.163 133.795C245.096 133.372 244.239 132.818 243.595 132.135C242.95 131.451 242.628 130.68 242.628 129.82V129.312H243.956V129.82ZM249.581 130.055H236.613V128.844H249.581V130.055ZM265.295 133.395H259.943V132.105H265.295V133.395ZM265.295 138.883H259.943V137.613H265.295V138.883ZM256.72 129.566C257.567 129.566 258.315 129.817 258.966 130.318C259.617 130.82 260.129 131.526 260.5 132.438C260.871 133.349 261.056 134.41 261.056 135.621C261.056 136.832 260.871 137.893 260.5 138.805C260.129 139.716 259.617 140.419 258.966 140.914C258.315 141.409 257.567 141.656 256.72 141.656C255.874 141.656 255.122 141.409 254.464 140.914C253.807 140.419 253.293 139.716 252.922 138.805C252.55 137.893 252.365 136.832 252.365 135.621C252.365 134.41 252.55 133.349 252.922 132.438C253.293 131.526 253.807 130.82 254.464 130.318C255.122 129.817 255.874 129.566 256.72 129.566ZM256.72 130.934C256.16 130.934 255.659 131.129 255.216 131.52C254.774 131.91 254.432 132.457 254.191 133.16C253.95 133.863 253.83 134.684 253.83 135.621C253.83 136.546 253.95 137.363 254.191 138.072C254.432 138.782 254.774 139.329 255.216 139.713C255.659 140.097 256.16 140.289 256.72 140.289C257.28 140.289 257.782 140.097 258.224 139.713C258.667 139.329 259.009 138.782 259.25 138.072C259.491 137.363 259.611 136.546 259.611 135.621C259.611 134.684 259.491 133.863 259.25 133.16C259.009 132.457 258.67 131.91 258.234 131.52C257.798 131.129 257.293 130.934 256.72 130.934ZM266.447 145.621H264.923V128.219H266.447V145.621ZM277.336 130.68C277.336 131.669 277.01 132.581 276.359 133.414C275.708 134.247 274.862 134.941 273.82 135.494C272.779 136.048 271.665 136.428 270.48 136.637L269.875 135.426C270.891 135.27 271.87 134.96 272.814 134.498C273.758 134.036 274.523 133.469 275.109 132.799C275.695 132.128 275.988 131.422 275.988 130.68V129.938H277.336V130.68ZM277.707 130.68C277.707 131.422 278 132.128 278.586 132.799C279.172 133.469 279.937 134.036 280.881 134.498C281.825 134.96 282.805 135.27 283.82 135.426L283.254 136.637C282.056 136.428 280.933 136.051 279.885 135.504C278.837 134.957 277.99 134.264 277.346 133.424C276.701 132.584 276.379 131.669 276.379 130.68V129.938H277.707V130.68ZM277.57 145.582H276.066V138.941H277.57V145.582ZM284.758 139.391H268.938V138.121H284.758V139.391ZM283.254 130.562H270.422V129.312H283.254V130.562ZM299.299 133.668H293.85V132.398H299.299V133.668ZM299.299 138.453H293.85V137.184H299.299V138.453ZM294.436 141.188H286.526V129.957H294.436V141.188ZM288.049 139.957H292.952V131.168H288.049V139.957ZM300.217 145.621H298.694V128.219H300.217V145.621ZM304.036 148.004H302.591L303.665 142.691H305.559L304.036 148.004ZM320.521 129.84C320.521 130.895 320.192 131.861 319.535 132.74C318.877 133.619 318.008 134.345 316.927 134.918C315.847 135.491 314.701 135.882 313.49 136.09L312.865 134.84C313.92 134.697 314.932 134.381 315.902 133.893C316.872 133.404 317.66 132.805 318.265 132.096C318.871 131.386 319.173 130.634 319.173 129.84V128.844H320.521V129.84ZM320.755 129.84C320.755 130.621 321.061 131.37 321.673 132.086C322.285 132.802 323.08 133.404 324.056 133.893C325.033 134.381 326.042 134.697 327.084 134.84L326.459 136.09C325.248 135.882 324.105 135.488 323.031 134.908C321.957 134.329 321.088 133.6 320.423 132.721C319.759 131.842 319.427 130.882 319.427 129.84V128.844H320.755V129.84ZM320.677 145.582H319.173V138.961H320.677V145.582ZM327.865 139.293H312.045V138.004H327.865V139.293ZM342.25 132.574H337.328V131.285H342.25V132.574ZM342.289 136.285H337.328V135.016H342.289V136.285ZM337.719 137.848H329.75V129.742H337.719V137.848ZM331.273 136.617H336.215V131.012H331.273V136.617ZM343.324 140.914H341.781V128.238H343.324V140.914ZM343.715 145.211H332.094V143.922H343.715V145.211ZM333.637 144.488H332.094V139.781H333.637V144.488ZM353.725 128.531C355.014 128.531 356.118 128.645 357.036 128.873C357.953 129.101 358.653 129.439 359.135 129.889C359.617 130.338 359.858 130.882 359.858 131.52C359.858 132.171 359.617 132.721 359.135 133.17C358.653 133.619 357.953 133.961 357.036 134.195C356.118 134.43 355.014 134.553 353.725 134.566C352.436 134.553 351.332 134.43 350.414 134.195C349.496 133.961 348.793 133.619 348.305 133.17C347.817 132.721 347.573 132.171 347.573 131.52C347.573 130.882 347.817 130.338 348.305 129.889C348.793 129.439 349.496 129.101 350.414 128.873C351.332 128.645 352.436 128.531 353.725 128.531ZM353.725 129.684C352.774 129.684 351.957 129.755 351.274 129.898C350.59 130.042 350.069 130.253 349.711 130.533C349.353 130.813 349.174 131.142 349.174 131.52C349.174 131.923 349.35 132.265 349.702 132.545C350.053 132.825 350.571 133.036 351.254 133.18C351.938 133.323 352.761 133.395 353.725 133.395C354.689 133.395 355.512 133.323 356.196 133.18C356.879 133.036 357.4 132.822 357.758 132.535C358.116 132.249 358.295 131.91 358.295 131.52C358.295 131.142 358.113 130.816 357.748 130.543C357.384 130.27 356.86 130.058 356.176 129.908C355.493 129.758 354.675 129.684 353.725 129.684ZM361.635 136.988H345.815V135.738H361.635V136.988ZM359.604 142.379H349.291V144.488H347.768V141.246H358.1V139.664H347.729V138.492H359.604V142.379ZM360.131 145.387H347.768V144.176H360.131V145.387ZM93.9965 170.688H78.1762V169.438H93.9965V170.688ZM86.8285 169.984H85.3246V167.25H86.8285V169.984ZM92.0434 177.582H90.5004V173.578H79.934V172.348H92.0434V177.582ZM86.8285 162.562H85.3246V160.141H86.8285V162.562ZM86.5941 163.09C86.5941 164.001 86.2816 164.809 85.6566 165.512C85.0316 166.215 84.1918 166.778 83.1371 167.201C82.0824 167.624 80.9105 167.908 79.6215 168.051L79.1137 166.859C80.2465 166.755 81.2784 166.534 82.2094 166.195C83.1404 165.857 83.8793 165.421 84.4262 164.887C84.973 164.353 85.2465 163.754 85.2465 163.09V162.777H86.5941V163.09ZM86.9262 163.09C86.9262 163.754 87.1996 164.353 87.7465 164.887C88.2934 165.421 89.0323 165.857 89.9633 166.195C90.8943 166.534 91.9262 166.755 93.059 166.859L92.5512 168.051C91.2621 167.908 90.0902 167.624 89.0355 167.201C87.9809 166.778 87.141 166.215 86.516 165.512C85.891 164.809 85.5785 164.001 85.5785 163.09V162.777H86.9262V163.09ZM92.3949 163.188H79.8168V161.938H92.3949V163.188ZM101.038 163.949C101.038 164.978 100.83 165.951 100.413 166.869C99.9962 167.787 99.4168 168.585 98.6746 169.262C97.9324 169.939 97.0796 170.453 96.116 170.805L95.3152 169.574C96.1746 169.262 96.9428 168.819 97.6199 168.246C98.297 167.673 98.8243 167.016 99.202 166.273C99.5796 165.531 99.7684 164.757 99.7684 163.949V162.133H101.038V163.949ZM101.311 163.949C101.311 164.717 101.5 165.453 101.878 166.156C102.255 166.859 102.783 167.478 103.46 168.012C104.137 168.546 104.905 168.949 105.764 169.223L104.983 170.453C104.02 170.128 103.164 169.643 102.415 168.998C101.666 168.354 101.083 167.598 100.667 166.732C100.25 165.867 100.042 164.939 100.042 163.949V162.133H101.311V163.949ZM105.315 162.934H95.7059V161.684H105.315V162.934ZM109.397 172.973H107.874V160.238H109.397V172.973ZM109.944 177.211H98.1863V175.922H109.944V177.211ZM99.7098 176.488H98.1863V171.762H99.7098V176.488ZM125.384 177.582H123.861V160.219H125.384V177.582ZM128.294 168.656H125.032V167.387H128.294V168.656ZM122.181 164.281H111.849V163.012H122.181V164.281ZM117.103 165.727C117.923 165.727 118.655 165.896 119.3 166.234C119.945 166.573 120.449 167.045 120.814 167.65C121.178 168.256 121.361 168.943 121.361 169.711C121.361 170.479 121.178 171.166 120.814 171.771C120.449 172.377 119.945 172.849 119.3 173.188C118.655 173.526 117.923 173.695 117.103 173.695C116.282 173.695 115.55 173.526 114.905 173.188C114.261 172.849 113.756 172.377 113.392 171.771C113.027 171.166 112.845 170.479 112.845 169.711C112.845 168.943 113.027 168.256 113.392 167.65C113.756 167.045 114.261 166.573 114.905 166.234C115.55 165.896 116.282 165.727 117.103 165.727ZM117.103 167.016C116.569 167.016 116.09 167.13 115.667 167.357C115.244 167.585 114.912 167.904 114.671 168.314C114.43 168.725 114.31 169.19 114.31 169.711C114.31 170.232 114.43 170.694 114.671 171.098C114.912 171.501 115.244 171.817 115.667 172.045C116.09 172.273 116.569 172.387 117.103 172.387C117.637 172.387 118.115 172.273 118.538 172.045C118.961 171.817 119.293 171.501 119.534 171.098C119.775 170.694 119.896 170.232 119.896 169.711C119.896 169.19 119.775 168.725 119.534 168.314C119.293 167.904 118.961 167.585 118.538 167.357C118.115 167.13 117.637 167.016 117.103 167.016ZM117.845 163.598H116.321V160.434H117.845V163.598ZM142.875 166.723H130.98V165.492H142.875V166.723ZM144.711 170.336H128.812V169.086H144.711V170.336ZM132.504 166.117H130.98V160.863H132.504V166.117ZM142.972 177.152H130.882V175.883H142.972V177.152ZM132.406 176.254H130.882V172.113H132.406V176.254ZM156.079 175.023H154.536V170.941H156.079V175.023ZM161.938 175.023H160.434V170.941H161.938V175.023ZM165.336 164.086H151.118V162.816H165.336V164.086ZM166.235 175.59H150.336V174.32H166.235V175.59ZM158.246 165.219C159.418 165.219 160.434 165.346 161.293 165.6C162.153 165.854 162.81 166.225 163.266 166.713C163.722 167.201 163.95 167.79 163.95 168.48C163.95 169.158 163.722 169.737 163.266 170.219C162.81 170.701 162.153 171.072 161.293 171.332C160.434 171.592 159.418 171.723 158.246 171.723C157.075 171.723 156.059 171.592 155.2 171.332C154.34 171.072 153.683 170.701 153.227 170.219C152.771 169.737 152.543 169.158 152.543 168.48C152.543 167.79 152.771 167.201 153.227 166.713C153.683 166.225 154.34 165.854 155.2 165.6C156.059 165.346 157.075 165.219 158.246 165.219ZM158.246 166.43C157.387 166.43 156.645 166.511 156.02 166.674C155.395 166.837 154.916 167.071 154.584 167.377C154.252 167.683 154.086 168.051 154.086 168.48C154.086 168.897 154.252 169.258 154.584 169.564C154.916 169.87 155.395 170.105 156.02 170.268C156.645 170.43 157.387 170.512 158.246 170.512C159.093 170.512 159.829 170.43 160.454 170.268C161.079 170.105 161.557 169.87 161.889 169.564C162.221 169.258 162.387 168.897 162.387 168.48C162.387 168.051 162.221 167.683 161.889 167.377C161.557 167.071 161.079 166.837 160.454 166.674C159.829 166.511 159.093 166.43 158.246 166.43ZM158.989 163.578H157.485V160.512H158.989V163.578ZM175.952 163.402H168.022V162.152H175.952V163.402ZM172.3 172.992H170.796V167.113H172.3V172.992ZM176.85 163.051C176.837 163.871 176.824 164.551 176.811 165.092C176.798 165.632 176.756 166.329 176.684 167.182C176.613 168.035 176.499 168.956 176.343 169.945L174.8 169.809C175.021 168.428 175.161 167.221 175.22 166.186C175.278 165.15 175.307 164.105 175.307 163.051V162.152H176.85V163.051ZM180.62 177.582H179.096V160.219H180.62V177.582ZM183.432 168.812H180.21V167.484H183.432V168.812ZM167.046 172.484C169.155 172.471 171.111 172.429 172.915 172.357C174.718 172.286 176.414 172.159 178.003 171.977L178.081 173.129C176.44 173.376 174.702 173.546 172.866 173.637C171.03 173.728 169.155 173.767 167.241 173.754L167.046 172.484ZM197.544 177.582H196.021V160.219H197.544V177.582ZM200.357 168.578H197.154V167.289H200.357V168.578ZM193.052 162.094C193.052 163.786 192.775 165.382 192.222 166.879C191.668 168.376 190.799 169.757 189.614 171.02C188.43 172.283 186.919 173.37 185.083 174.281L184.224 173.07C185.838 172.263 187.189 171.319 188.277 170.238C189.364 169.158 190.181 167.956 190.728 166.635C191.275 165.313 191.548 163.884 191.548 162.348V162.094H193.052ZM192.329 163.383H185.025V162.094H192.329V163.383ZM211.217 171.879C211.217 172.634 211.057 173.373 210.738 174.096C210.419 174.818 209.964 175.463 209.371 176.029C208.779 176.596 208.072 177.035 207.252 177.348L206.471 176.215C207.187 175.941 207.809 175.574 208.336 175.111C208.863 174.649 209.273 174.135 209.566 173.568C209.859 173.002 210.006 172.439 210.006 171.879V170.922H211.217V171.879ZM211.49 171.879C211.49 172.465 211.611 173.048 211.852 173.627C212.092 174.206 212.451 174.73 212.926 175.199C213.401 175.668 213.977 176.039 214.654 176.312L214.01 177.484C213.202 177.172 212.525 176.723 211.979 176.137C211.432 175.551 211.025 174.89 210.758 174.154C210.491 173.419 210.357 172.66 210.357 171.879V170.922H211.49V171.879ZM217.643 171.879C217.643 172.582 217.506 173.301 217.232 174.037C216.959 174.773 216.549 175.447 216.002 176.059C215.455 176.671 214.791 177.146 214.01 177.484L213.346 176.312C214.01 176.013 214.579 175.613 215.055 175.111C215.53 174.61 215.888 174.073 216.129 173.5C216.37 172.927 216.49 172.387 216.49 171.879V170.922H217.643V171.879ZM217.994 171.879C217.994 172.478 218.137 173.061 218.424 173.627C218.71 174.193 219.12 174.704 219.654 175.16C220.188 175.616 220.813 175.967 221.529 176.215L220.768 177.348C219.934 177.048 219.218 176.622 218.619 176.068C218.02 175.515 217.564 174.877 217.252 174.154C216.939 173.432 216.783 172.673 216.783 171.879V170.922H217.994V171.879ZM219.947 170.16H218.424V160.238H219.947V170.16ZM210.572 161.254C211.445 161.254 212.226 161.423 212.916 161.762C213.606 162.1 214.146 162.579 214.537 163.197C214.928 163.816 215.123 164.522 215.123 165.316C215.123 166.098 214.928 166.794 214.537 167.406C214.146 168.018 213.606 168.493 212.916 168.832C212.226 169.171 211.445 169.34 210.572 169.34C209.7 169.34 208.919 169.171 208.229 168.832C207.538 168.493 206.998 168.018 206.607 167.406C206.217 166.794 206.021 166.098 206.021 165.316C206.021 164.522 206.217 163.816 206.607 163.197C206.998 162.579 207.538 162.1 208.229 161.762C208.919 161.423 209.7 161.254 210.572 161.254ZM210.572 162.562C209.986 162.549 209.462 162.66 209 162.895C208.538 163.129 208.176 163.458 207.916 163.881C207.656 164.304 207.525 164.783 207.525 165.316C207.525 165.837 207.656 166.306 207.916 166.723C208.176 167.139 208.538 167.465 209 167.699C209.462 167.934 209.986 168.057 210.572 168.07C211.158 168.057 211.682 167.934 212.145 167.699C212.607 167.465 212.968 167.139 213.229 166.723C213.489 166.306 213.619 165.837 213.619 165.316C213.619 164.783 213.489 164.304 213.229 163.881C212.968 163.458 212.607 163.129 212.145 162.895C211.682 162.66 211.158 162.549 210.572 162.562ZM226.032 172.68H234.704V170.648H236.246V177.348H224.508V170.648H226.032V172.68ZM234.704 176.117V173.891H226.032V176.117H234.704ZM238.317 169.418H222.496V168.148H238.317V169.418ZM230.954 161.234C230.954 162.185 230.625 163.061 229.967 163.861C229.31 164.662 228.447 165.326 227.379 165.854C226.312 166.381 225.179 166.736 223.981 166.918L223.395 165.688C224.437 165.544 225.439 165.258 226.403 164.828C227.366 164.398 228.144 163.868 228.737 163.236C229.329 162.605 229.625 161.938 229.625 161.234V160.414H230.954V161.234ZM231.207 161.234C231.207 161.924 231.507 162.585 232.106 163.217C232.705 163.848 233.486 164.385 234.45 164.828C235.413 165.271 236.403 165.557 237.418 165.688L236.852 166.918C235.654 166.736 234.521 166.378 233.454 165.844C232.386 165.31 231.523 164.643 230.866 163.842C230.208 163.041 229.879 162.172 229.879 161.234V160.414H231.207V161.234ZM253.698 177.582H252.175V160.219H253.698V177.582ZM242.018 172.68H240.514V161.938H242.018V172.68ZM241.921 171.781C243.34 171.781 244.743 171.716 246.13 171.586C247.516 171.456 248.913 171.241 250.319 170.941L250.534 172.25C249.063 172.549 247.627 172.768 246.227 172.904C244.828 173.041 243.392 173.109 241.921 173.109H240.514V171.781H241.921ZM269.704 177.621H268.181V160.219H269.704V177.621ZM272.614 168.383H269.353V167.094H272.614V168.383ZM258.396 171.977C260.075 171.977 261.53 171.931 262.761 171.84C263.991 171.749 265.238 171.586 266.501 171.352L266.696 172.68C265.42 172.914 264.164 173.07 262.927 173.148C261.69 173.227 260.18 173.266 258.396 173.266H257.029V171.977H258.396ZM265.134 163.188H258.552V172.562H257.029V161.918H265.134V163.188ZM274.988 176.117C274.767 176.117 274.558 176.059 274.363 175.941C274.168 175.824 274.015 175.668 273.904 175.473C273.793 175.277 273.738 175.069 273.738 174.848C273.738 174.626 273.793 174.418 273.904 174.223C274.015 174.027 274.168 173.874 274.363 173.764C274.558 173.653 274.767 173.598 274.988 173.598C275.209 173.598 275.418 173.653 275.613 173.764C275.808 173.874 275.961 174.027 276.072 174.223C276.183 174.418 276.238 174.626 276.238 174.848C276.238 175.069 276.183 175.277 276.072 175.473C275.961 175.668 275.808 175.824 275.613 175.941C275.418 176.059 275.209 176.117 274.988 176.117Z" fill="white"/>
</svg>
